<?xml version="1.0" encoding="UTF-8"?>
<svg id="Layer_1" data-name="Layer 1" xmlns="http://www.w3.org/2000/svg" viewBox="0 0 768 768">
  <defs>
    <style>
      .cls-1 {
        fill: #0c293a;
      }

      .cls-1, .cls-2, .cls-3, .cls-4, .cls-5, .cls-6, .cls-7, .cls-8, .cls-9, .cls-10, .cls-11, .cls-12, .cls-13, .cls-14, .cls-15, .cls-16, .cls-17, .cls-18, .cls-19, .cls-20, .cls-21, .cls-22, .cls-23, .cls-24, .cls-25, .cls-26, .cls-27, .cls-28, .cls-29, .cls-30 {
        stroke-width: 0px;
      }

      .cls-2 {
        fill: #fdc933;
      }

      .cls-3 {
        fill: #002339;
      }

      .cls-4 {
        fill: #fdc932;
      }

      .cls-5 {
        fill: #f8c735;
      }

      .cls-6 {
        fill: #7cd0fa;
      }

      .cls-7 {
        fill: #fac936;
      }

      .cls-8 {
        fill: #ebbe3c;
      }

      .cls-9 {
        fill: #363b32;
      }

      .cls-10 {
        fill: #d7c281;
      }

      .cls-11 {
        fill: #ada881;
      }

      .cls-12 {
        fill: #fdca38;
      }

      .cls-13 {
        fill: #fdca31;
      }

      .cls-14 {
        fill: #fbb109;
      }

      .cls-15 {
        fill: #05273e;
      }

      .cls-16 {
        fill: #fdca33;
      }

      .cls-17 {
        fill: #f8b10e;
      }

      .cls-18 {
        fill: #00233a;
      }

      .cls-19 {
        fill: #443101;
      }

      .cls-20 {
        fill: #032640;
      }

      .cls-21 {
        fill: #7dd0fa;
      }

      .cls-22 {
        fill: #fab00a;
      }

      .cls-23 {
        fill: #e5d364;
      }

      .cls-24 {
        fill: #fdca32;
      }

      .cls-25 {
        fill: #fcaf07;
      }

      .cls-26 {
        fill: #f1c243;
      }

      .cls-27 {
        fill: #2b2602;
      }

      .cls-28 {
        fill: #f5cf48;
      }

      .cls-29 {
        fill: #ddb240;
      }

      .cls-30 {
        fill: #574703;
      }
    </style>
  </defs>
  <circle class="cls-3" cx="365.33" cy="362.08" r="340"/>
  <path class="cls-2" d="M425.2,156.61c-3.51,9.16-7.03,18.32-10.53,27.49-3,7.86-5.93,15.75-8.95,23.6-6.53,16.98-13.09,33.94-19.65,50.91-.41,1.03-.81,2.07-1.22,3.1-.08.42-.16.85-.24,1.27.64.59,1.3,1.68,1.93,1.66,2.06-.05,4.12-.75,6.18-.76,17.96-.07,35.92-.05,53.88-.05,3.45,0,6.89,0,10.72,0-3.26,2.17-6.12,4.06-8.97,5.96-4.23,2.25-8.46,4.51-12.7,6.76-.82.3-1.67.52-2.44.92-15.27,7.86-30.57,15.66-45.74,23.72-2.04,1.08-3.77,3.28-4.95,5.35-6.16,10.8-12.06,21.75-18.12,32.61-5.64,10.11-11.44,20.12-17.03,30.26-8.67,15.71-17.23,31.47-25.79,47.23-1.61,2.98-2.96,6.1-4.79,9.91,2.3,0,3.53.13,4.72-.02,12.84-1.63,25.66-3.4,38.51-4.92,3.17-.38,6.5-1.95,9.62.36.42.08.84.17,1.26.25l3.25.75c0,3.15,0,6.29.01,9.44,0,2.95.46,5.5,4.21,5.86.74.07,1.41.98,2.11,1.51-1.71.96-3.14.99-4.56,1.1-3.1.23-6.23.29-9.29.79-6.67,1.11-13.3,2.53-19.96,3.68-3.83.66-5.31,2.16-5.48,6.13-2.01.48-4.02.96-6.03,1.44-.44-2-.88-3.97-3.62-3.79-2.41.17-5.2-.6-6.76,2.98,2.69.54,5.02,1.01,7.34,1.48-.32.18-.63.48-.97.53-15.48,2.3-30.97,4.58-46.46,6.81-.65.09-1.38-.39-2.07-.6-.17-1.22-.51-2.44-.47-3.66.03-1.07.14-2.68.81-3.09,5.93-3.66,9.11-9.55,12.67-15.14.7-1.11.89-3.02,1.81-3.43,3.65-1.62,3.39-5.26,4.59-8.07,2.16-5.05,2.46-11.45,10-12.2-1.34-1.09-2.43-1.98-3.5-2.85,1.05-1.64,1.73-2.97,2.65-4.11,4.72-5.8,6.27-13.98,13.46-17.92h0c.48-1.29,1.62-2.75,1.32-3.82-1.88-6.66,3.6-10.5,5.69-15.61.87-2.13,2.18-4.08,3.51-6.52,2.89.36,2.81.36,3.02-3.81.08-1.52.54-3.07,1.08-4.5.48-1.28,1.34-2.42,2-3.65,1.54-2.89,2.43-6.48,4.72-8.52,4.15-3.7,5.94-11.68,2.69-16.52.98-2.51,1.82-5.09,2.98-7.51,1.91-3.97,4.04-7.83,6.22-12.03-1.28-.38-1.85-.71-2.41-.7-9.48.27-18.96.43-28.43.9-16.31.82-32.6,1.84-48.9,2.77,1.03-.5,2.02-1.29,3.1-1.44,1.84-.25,3.74-.02,5.61-.12,2.4-.13,3.55-1.02,2.16-3.59-.75-1.39-1.17-2.95-1.95-4.98,4.95,2.22,6.43,1.64,8.67-2.64,2.03-3.87,4.6-7.03,8.26-9.8,3.94-2.97,7.66-7.08,9.67-11.51,2.02-4.43,5.46-7.26,8.44-10.5,2.57-2.79,5.5-4.76,2.89-9.21,5.12-.12,7.68-2.94,9.97-6.45,1.59-2.44,3.75-4.51,5.71-6.69.91-1.01,2.13-1.78,2.93-2.87,3.31-4.53,5.05-10.35,11-12.73.86-.35.87-2.49,1.59-3.58,1.93-2.91,3.9-5.81,6.1-8.51,1.68-2.07,3.8-3.77,5.61-5.74,1.16-1.26,1.86-3.13,3.22-3.98,2.65-1.65,3.3-3.87,3.03-6.67h0c3.83-.96,5.58-4.14,7.13-7.22,2.14-4.25,5.1-7.6,9.07-10.16.92-.59,1.75-1.44,2.37-2.34,2.89-4.24,4.26-9.67,9.86-11.75.8-.3,1.06-2.11,1.52-3.25.32-.79.32-1.82.85-2.38,6-6.43,12.07-12.78,18.33-19.37.32,1.82.58,3.28.85,4.74,1.83-2.48,3.83-4.99,3.8-7.46-.07-5.14,2.62-8.52,5.99-11.87-.08,1.49-.62,2.83-1.03,4.21-1.58,5.29-3.12,10.6-4.67,15.9,0,0,.02-.03.02-.03-2.87,2.07-3.27,5.06-3.05,8.27Z"/>
  <path class="cls-22" d="M282.63,460.31c.69.21,1.42.69,2.07.6,15.49-2.23,30.98-4.51,46.46-6.81.34-.05.65-.35.98-.53,1.01-.22,2.03-.45,3.04-.67,2.01-.48,4.02-.96,6.03-1.44,2.99-.07,5.97-.15,8.96-.22.75-.22,1.49-.44,2.24-.66.75-.03,1.5-.05,2.25-.08l7.59-2.1c.47,0,.94,0,1.41,0,2.04-.49,4.08-.98,6.12-1.47,1.46-.02,2.93-.04,4.39-.07,1.25-.25,2.5-.5,3.75-.75,1.5-.25,3-.51,4.5-.76,1.25-.24,2.51-.49,3.76-.73l6-.85c1.02-.46,2.03-.92,3.05-1.38,1.23-.05,2.47-.1,3.7-.15.78-.44,1.57-.88,2.35-1.32,12.51-1.1,24-5.94,35.78-9.71,4.93-1.58,9.88-3.09,14.82-4.63-6.57,7.24-13.1,14.53-19.73,21.71-14.79,16-29.62,31.96-44.45,47.92-11.44,12.3-22.97,24.51-34.35,36.85-20.91,22.67-41.74,45.41-62.61,68.11-.58.63-1.28,1.15-1.93,1.71-3.36,2.84-6.72,5.68-10.09,8.52.18-1.99.68-4.57,1.96-5.04,2.63-.98,1.82-2.02,1.01-3.57-1.18-2.27-1.11-3.96,2.09-3.95-.56-6.37.3-12.63,7.43-11.93.05-.24.18-.49.13-.71-.07-.35-.17-.78-.41-1.01-3.35-3.22-2.5-5.93.64-8.81,1.17-1.07,1.77-2.92,2.26-4.53.57-1.89.73-3.9,1.08-5.85.36-2.01.75-4.03,1.12-6.04,5.1-12.43,10.17-24.88,15.3-37.3,5.9-14.28,11.86-28.54,17.79-42.81.56-1.29,1.12-2.58,1.85-4.26-1.9-.12-2.89-.24-3.87-.24-17.37.02-34.74.08-52.11.05-2.08,0-4.15-.51-6.23-.78,2.41-4.36,4.83-8.72,7.24-13.08,2.2-.4,4.41-.81,6.61-1.22Z"/>
  <path class="cls-14" d="M486.61,388.43c-22.31-.06-44.61-.12-66.92-.16-8.6-.02-17.2.15-25.8-.05-3.83-.09-6.91.33-8.01,4.7-.22.86-1.1,1.54-1.68,2.31-.72-1.65-1.37-3.17.69-4.57.52-.35.29-1.97.21-3-.16-2.22-1.18-4.74-.42-6.54.58-1.38,3.34-1.85,5.13-2.72.73-1.32.37-3.39.43-5.45.05-1.63.41-3.32.99-4.85.63-1.67,1.78-3.13,2.51-4.77,1.7-3.78,3.29-7.6,4.91-11.37.82.17,1.2.2,1.53.34,1.69.72,3.53,2.86,4.99-.07,1.2-2.42.36-4.29-2.21-5.41-.9-.39-1.59-1.24-2.61-2.07.75-.58,1.03-1,1.33-1.01,5.33-.28,6.97-3.27,6.29-8.21-.33-2.42,1.22-3.53,3.42-4.13,1.09-.3,2.87-1.07,2.9-1.71.16-2.9,2.62-6.35-1.92-8.47,3.53-2.41,6.89-2.97,10.55-1.87-.52,2.42-.24,5.66-1.72,7.1-4.04,3.93-4.33,3.63-1.98,7.93-.55,1.26-1.11,2.53-1.66,3.79-.26.44-.52.88-.78,1.33-.15.2-.29.4-.44.61-1.46,2.81-2.92,5.62-4.38,8.43-.09.26-.18.52-.27.78-3.95,6.41-7.94,12.8-11.75,19.29-.24.42.71,2.05,1.46,2.42,1.18.58,2.65.76,4,.78,29.6.27,59.2.5,88.8.73,2,.03,3.99.06,5.99.09.57.22,1.14.59,1.72.64,10.88.81,21.77,1.58,32.65,2.36.03,28.37.07,56.74.1,85.11-.71,1.88-1.42,3.77-2.13,5.65-8.54,13.2-25.72,16.13-37.02,6.05-2.49-2.22-3.99-5.55-5.94-8.38-.44-3.3-1.24-6.6-1.26-9.91-.13-20.73-.07-41.46-.13-62.19,0-1.17-.45-2.34-.7-3.51-.3,0-.6,0-.9.01Z"/>
  <path class="cls-25" d="M422.94,319.33c-3.66-1.1-7.02-.55-10.55,1.87,4.54,2.12,2.08,5.57,1.92,8.47-.03.64-1.81,1.41-2.9,1.71-2.2.6-3.75,1.71-3.42,4.13.68,4.95-.96,7.93-6.29,8.21-.3.02-.58.43-1.33,1.01,1.02.83,1.71,1.68,2.61,2.07,2.57,1.13,3.41,3,2.21,5.41-1.46,2.94-3.3.79-4.99.07-.33-.14-.71-.16-1.53-.34-1.62,3.77-3.21,7.59-4.91,11.37-.74,1.64-1.88,3.1-2.51,4.77-.58,1.53-.94,3.22-.99,4.85-.06,2.06.29,4.13-.43,5.45-1.79.87-4.55,1.34-5.13,2.72-.76,1.8.27,4.32.42,6.54.07,1.03.3,2.65-.21,3-2.06,1.4-1.41,2.92-.69,4.57,0,0-.01.01-.01.01-.84.2-1.68.4-2.51.6.11-1.79.23-3.57.37-5.77-1.68.7-2.97,1.24-4.97,2.08,1.84,1.48,3.21,2.59,4.59,3.69.03,1.33.07,2.66.1,4-2.98,5.27-5.97,10.53-8.92,15.82-.66,1.18-1.16,2.45-1.73,3.68-.49.87-.98,1.74-1.47,2.61-3.11-2.3-6.45-.73-9.62-.36-12.85,1.52-25.67,3.29-38.51,4.92-1.19.15-2.42.02-4.72.02,1.83-3.81,3.18-6.93,4.79-9.91,8.55-15.77,17.12-31.53,25.79-47.23,5.59-10.13,11.39-20.15,17.03-30.26,6.06-10.86,11.96-21.81,18.12-32.61,1.18-2.07,2.91-4.27,4.95-5.35,15.16-8.06,30.47-15.86,45.74-23.72.77-.4,1.62-.62,2.44-.92,1.29.19,2.57.41,3.86.57,2.72.34,5.44.64,8.17.96-.25.25-.5.5-.75.75-2.84.79-5.71,1.5-8.51,2.41-1.35.44-2.6,1.22-3.82,1.97-.11.06.39,1.51.52,1.49,1.36-.15,2.7-.48,4.05-.73.22-.04.47.08,1.72.32-1.14,1.75-1.92,3.36-3.13,4.51-.31.29-2.02-.91-3.88-1.8.66,3.06,1.23,5.7,1.81,8.35,1.01-.66,2.1-1.23,3.01-2,2.36-2.01,2.16-6.22,5.99-7,.02,1.01.04,2.02.06,3.03,0,0-.01.02-.01.02-1.03.99-2.07,1.98-3.1,2.97-.23.48-.47.97-.7,1.45-1.29,2.5-2.58,5.01-3.87,7.51-1.22-1.64-2.44-3.27-3.66-4.91-.38-.09-.76-.18-1.14-.27-.26,6.04-3.13,10.43-7.62,13.89-.66-.71-1.25-1.34-1.83-1.97-.29.1-.59.2-.88.29.33,3.16.66,6.32.99,9.48,0,.5,0,1,0,1.5Z"/>
  <path class="cls-14" d="M230.19,461.37c-2.12,10.57-14.7,18.52-26.5,16.75-11.01-1.65-18.68-8.72-20.13-18.53.03-.87.08-1.74.08-2.62.04-23.63.08-47.25.12-70.88,12.43-4.09,24.82-8.29,37.31-12.19,3.62-1.13,7.5-1.87,11.28-1.99,8.74-.29,17.49-.03,26.23-.1,13.97-.12,27.94-.33,41.91-.5.07.55.15,1.11.22,1.66-2.09,4.76-4.06,9.59-6.39,14.23-.39.77-2.37,1.03-3.62,1.03-18.1.07-36.2.06-54.31.09-1.74,0-3.48.16-5.22.24-.36.69-1.05,1.37-1.05,2.06-.02,23.59.02,47.17.06,70.76Z"/>
  <path class="cls-4" d="M300.49,371.31c-13.97.17-27.94.38-41.91.5-8.74.07-17.5-.19-26.23.1-3.79.12-7.66.86-11.28,1.99-12.49,3.9-24.88,8.11-37.31,12.19-.02-34.25-.03-68.49-.05-102.74,2.03.07,2.73-.91,2.97-2.93.28-2.33,1.16-4.58,1.78-6.87.32.03.65.07.97.1.14,2.93.27,5.85.41,8.78.42-.01.84-.03,1.27-.04,0-2.41-.01-4.81,0-7.22.02-2.65.17-5.11,3.93-4.96.66.03,1.58-1.09,2-1.89,1-1.86,1.84-3.82,2.63-5.79,1.24-3.1,3.3-4.86,6.82-4.74,3.24.11,6.5-.09,9.73.1,1.08.06,2.54.65,3.08,1.49,2.16,3.31,2.05,3.38,4.3-.13,2.18,3.52,4.35,7.05,6.53,10.57,0,24.83,0,49.65.08,74.48,0,1.17.85,2.33,1.3,3.49.17.19.35.37.52.56-.1.27-.2.54-.3.81-.29,4.01-.66,8.02-.83,12.04-.13,3.08-.79,5.45-4.57,5.49-.78,0-1.56.68-2.34,1.05.06.49.13.98.19,1.46,6.49-2.54,12.62,2.92,19.22-.16,1.18-.55,2.93,0,4.39.21,2.07.28,4.13,1.08,6.17,1,8.54-.34,17.11-.67,25.61-1.54,4.34-.44,9.01,4.97,12.92-.85,1.02.7,1.91,1.31,2.78,1.91,2.22-2.37,3.28-2.02,5.21,1.52Z"/>
  <path class="cls-21" d="M379.35,140.82c-6.09,6.55-12.47,13.53-19.03,20.34-.88.91-2.66,1.3-4.03,1.32-20,.18-39.49,3.5-58.51,9.53-25.91,8.2-48.64,21.92-68.35,40.54-6.34,5.99-12.07,12.64-18.15,18.91-.79.82-2.04,1.76-3.04,1.72-12.21-.54-22.94,3.25-32.48,10.72-.08.06-.23.02-.34.03,30.56-54.11,100.82-113.03,203.94-103.1Z"/>
  <path class="cls-6" d="M347.1,574.19c5.59-5.51,11.11-11.1,16.84-16.47,1.12-1.05,3.03-1.69,4.61-1.76,33.54-1.48,64.23-11.79,91.75-30.74,12.07-8.31,22.88-18.44,34.43-27.53,1.36-1.07,3.86-1.35,5.69-1.06,7.85,1.23,15.43.67,22.71-2.55,1.66-.73,3.12-1.91,4.67-2.88l.02-.03c-.47,1.4-.64,3.02-1.46,4.16-9.16,12.74-20.17,23.76-32.26,33.68-13.91,11.41-28.69,21.57-44.98,29.38-.89.42-1.84.7-2.76,1.05-1.67.3-3.41.38-4.99.92-7.95,2.68-15.89,5.41-23.77,8.3-1.37.5-2.45,1.82-3.67,2.76l-.13.15s-.16-.12-.16-.12c-1.5.02-3.02-.11-4.49.1-6.33.89-12.65,1.88-18.98,2.85-.74.11-1.47.26-2.2.4-4.35.85-8.67,2.24-13.05,2.45-8.1.4-16.24.07-24.36.15-2.32.02-3.59-.77-3.48-3.21Z"/>
  <path class="cls-14" d="M167.36,433.05c-3.2,9.88-10.66,15.7-20.55,16.04-11.07.38-19.12-4.68-22.87-14.42-.26-.67-.26-1.45-.38-2.18.06-15.68.12-31.37.18-47.06,9.9-3.66,19.8-7.34,29.71-10.99,4.5-1.65,9.03-3.23,13.55-4.84.04,20.88.07,41.77.11,62.65.08.26.17.53.25.79Z"/>
  <path class="cls-28" d="M374.17,199.32c.27,2.8-.38,5.02-3.03,6.67-1.37.85-2.06,2.72-3.22,3.98-1.81,1.97-3.93,3.68-5.61,5.74-2.2,2.7-4.18,5.6-6.1,8.51-.73,1.1-.73,3.24-1.59,3.58-5.94,2.38-7.68,8.2-11,12.73-.8,1.09-2.01,1.85-2.93,2.87-1.96,2.18-4.12,4.25-5.71,6.69-2.29,3.51-4.85,6.33-9.97,6.45,2.61,4.45-.32,6.42-2.89,9.21-2.98,3.24-6.42,6.07-8.44,10.5-2.02,4.43-5.73,8.54-9.67,11.51-3.66,2.76-6.23,5.93-8.26,9.8-2.25,4.28-3.72,4.86-8.67,2.64.78,2.03,1.2,3.59,1.95,4.98,1.39,2.57.24,3.46-2.16,3.59-1.87.1-3.77-.13-5.61.12-1.08.15-2.07.94-3.1,1.44-2.53.54-5.06,1.09-7.59,1.63,6.48-8.2,12.9-16.45,19.46-24.58,7.83-9.7,15.78-19.31,23.68-28.95,14.42-17.62,28.84-35.23,43.25-52.86,7.18-8.78,14.35-17.57,21.53-26.34,1.93-2.35,3.89-4.67,5.84-7,1.66-1.17,3.53-2.12,4.92-3.54,2.75-2.79,5.29-5.8,7.8-8.81,3.38-4.05,7.59-7.58,8.54-13.2,0,0,0-.04,0-.04.8-.21,1.6-.43,2.46-.66.29.47.69,1.13,1.1,1.79.28-.04.56-.08.84-.12v-6.34s-.04.05-.04.05c2.06-.25,3.75-.84,3.27-3.48,5.72-7.06,11.45-14.11,17.17-21.17,4.61.63-.26,4.31,2.34,6.1.91-.99,1.88-2.05,2.78-3.04,1.09.52,2.14,1.03,3.2,1.54-3.49,9.01-6.98,18.03-10.47,27.04,1.55-5.3,3.09-10.61,4.67-15.9.41-1.38.95-2.73,1.03-4.21-3.36,3.35-6.05,6.73-5.99,11.87.03,2.48-1.97,4.98-3.8,7.46-.26-1.46-.52-2.92-.85-4.74-6.26,6.59-12.33,12.94-18.33,19.37-.53.56-.53,1.6-.85,2.38-.46,1.13-.72,2.95-1.52,3.25-5.6,2.08-6.98,7.51-9.86,11.75-.62.91-1.45,1.75-2.37,2.34-3.97,2.56-6.93,5.91-9.07,10.16-1.56,3.09-3.3,6.26-7.13,7.22-.19-.33-.38-.66-.57-.99-.14.14-.28.28-.42.42.33.19.66.38.99.58Z"/>
  <path class="cls-21" d="M450.93,161.79c34.29,18.49,61.95,43.23,82.62,75.58-.16.35-.32.71-.49,1.06-1.29-.28-2.69-.33-3.84-.88-7.23-3.48-14.71-5.34-22.76-3.86-2.26.42-3.81-.13-5.42-2.05-15.53-18.55-33.87-33.84-54.5-46.43-4.91-3-4.93-3.03-2.53-8.34,2.19-4.85,4.44-9.67,6.92-15.07Z"/>
  <path class="cls-1" d="M636.67,400.45c.53,3.64,1.26,7.28,1.48,10.94.07,1.24-1.15,2.57-1.79,3.85-1.18-.77-2.36-1.55-3.58-2.35-1.88,2.53-5.27,2.88-8.4,2.33-5.16-.91-10.21.52-15.29.05-1.62-.15-3.39-.73-4.7-1.66-3.01-2.13-2.4-5.14-1.26-8.07-1.06-.76-2.05-1.48-3.54-2.56-.13,1.44-.32,2.57-.33,3.71-.03,5.74.85,11.65-.28,17.16-.98,4.75.87,8.12,2.41,11.93,1.21,3.01.9,3.41-2.44,3.2-.53-1.74-1.03-3.4-1.88-6.2-1.05,1.89-2.14,2.95-1.93,3.59,1.65,4.92-1.42,7.01-5,8.87-.43.23-.87.45-1.41.74.55,1.41,1.06,2.74,1.93,4.97-2.6-.44-4.5-.77-6.4-1.09.33-.19.65-.38.98-.57-.14-.14-.27-.27-.41-.41-.19.33-.38.65-.58.98-6.91.43-13.82.88-20.73,1.27-1.65.09-3.33.14-4.97-.02-2.38-.23-4.04-3.36-3.43-7.01-2.66,3.04-3.67,1.11-4.63-.98-.91-3.33-1.24-6.62-3.22-9.88-1.62-2.67-.51-7.02-.52-10.62-.03-12.37-.02-24.74,0-37.11,0-1.26.15-2.52.23-3.77l1.04.04c.07,1.28.19,2.56.19,3.84.02,12.49-.04,24.99.08,37.48.01,1.42.92,2.82,1.41,4.24.26,1.28.52,2.56.78,3.84.68,2.72.63,5.98,2.17,8.06,5.82,7.82,13.82,10.47,23.57,9.51,9.11-.9,18.96-10.67,18.82-20.3-.2-13.83-.26-27.66-.38-41.49.05-17.57.13-35.14.15-52.71.01-10.46-.07-20.92-.12-31.39-1.34-3.28-2.67-6.56-4.01-9.83l-.02-.08c-3.28-5.35-8.49-7.69-14.26-9.17,2.82.09,5.65.25,8.47.25,1.43,0,2.85-.27,4.29-.38,1.3-.1,2.61-.13,3.64-.18-.88,1.61-1.65,3.01-2.41,4.4.9.48,1.92,1.49,2.67,1.31.88-.2,1.52-1.43,2.47-2.44,3.51.63,3.99,1.4,3.28,6.5-.78-.66-1.39-1.17-2.12-1.8-.39,4.07.19,4.41,4.74,3.2.18,2.14.45,4.31.48,6.47,0,.55-.64,1.32-1.18,1.64-3.38,2-4.51,5.1-4.5,8.8,0,5.62-.06,11.24.08,16.85.02.88.92,1.73,1.42,2.6.5-.86,1.36-1.69,1.43-2.59.2-2.45.07-4.93.07-7.39.37-.03.75-.07,1.12-.1.22,2.17.43,4.33.72,7.19,4.44-2.43,8.52-4.7,12.64-6.88,1.43-.76,2.96-1.66,4.5-1.78,1.1-.09,2.3,1.01,3.34,2.39,4.66-.1,8.82-4.87,14.48-1.71-.46,1.27-1.04,2.83-1.7,4.64,3.45,1.44,5,3.63,3.04,7.52-.5,1,.82,2.77.79,4.17-.22,9.96-.58,19.92-.92,29.88-.01.34-.33.66-.5.99-.07-2.74-.16-5.47-.2-8.21-.11-7.72.14-15.47-.42-23.16-.47-6.55-5.53-10.62-12.08-10.69-2.49-.03-4.98.08-7.48.12-.79.41-1.58.83-2.37,1.24,0,0-.19.14-.19.14-3.28.33-4.65,2.15-4.16,5.39.03.23-.02.44-.15.63-.45,1.07-1.18,2.11-1.3,3.22-.21,1.97-.06,3.98-.06,5.98-.01,19.94-.04,39.89,0,59.83,0,1.69-.83,3.97,1.97,4.54,2.59,5.41,7.34,6.87,12.74,6.49,5.65-.4,10.39-2.51,12.31-8.5.43-1.3.86-2.61,1.29-3.91ZM631.43,322l-.06-1.07c-.95.09-1.91.19-2.86.28.03.26.06.53.08.79h2.83ZM634.47,409.65c0,.3,0,.61,0,.91.44,0,.89.03,1.32-.04.05,0,.01-.57.02-.87h-1.33ZM606.28,405.62c-.05-.09-.07-.24-.15-.27-.07-.03-.2.04-.3.07.08.14.16.29.25.43.07-.08.13-.15.2-.23ZM607.78,330.61c-.05-.09-.07-.24-.15-.27-.07-.03-.2.04-.3.07.08.14.16.29.25.43.07-.08.13-.15.2-.23ZM604.47,408.88c.09-.05.24-.07.27-.15.03-.07-.04-.2-.07-.3-.14.08-.29.16-.43.25.08.07.15.13.23.2ZM596.92,297.33c-.07.08-.13.15-.2.23.15.07.3.14.44.2.01-.1.07-.23.03-.29-.04-.07-.18-.09-.27-.14ZM598.62,300.35l-.3.02c.06.15.11.31.17.46.08-.06.21-.11.23-.19.02-.08-.06-.19-.1-.29Z"/>
  <path class="cls-21" d="M194.83,505.39c-.23-.29-.47-.58-.7-.86-.56-.67-1.12-1.35-1.69-2.02,0,0,.04.04.04.04-.46-.55-.92-1.1-1.38-1.65,0,0,0,0,0,0,.25-1.25.5-2.5.75-3.75l.03-.03c1.63-.27,3.27-.55,4.9-.82,6.06-.05,12.12-.17,18.18-.08,1.19.02,2.67.59,3.51,1.42,16.03,15.94,33.88,29.43,53.53,40.61,4.35,2.48,5.05,4.56,3.35,9.34-1.71,4.79-3.69,9.49-5.74,14.69-2.09-1.04-3.83-1.88-5.54-2.76-23.15-11.94-43.92-27.1-61.94-45.95-.77-.8-1.4-1.72-2.1-2.59-.32-3.17-2.16-4.91-5.18-5.56Z"/>
  <path class="cls-20" d="M170.11,307.33c2.27-.02,2.81,1.37,3.13,3.34.14.84,1.4,1.5,2.15,2.24.35-1.08,1.33-2.76.95-3.17-4.86-5.21-1.64-11.57-2.06-17.19-.53-7.08,1.49-14.4,2.86-21.54.4-2.07,1.9-4.6,3.64-5.58,2.64-1.48,2.61,1.47,3.11,3.12-.13.42-.26.84-.38,1.25-.47.51-.93,1.03-1.4,1.54,0,18.62.01,37.25,0,55.87-.03,41.37-.07,82.74-.1,124.12-2.31-.02-2.74-1.47-2.96-3.44-.62-5.54-1.52-11.04-2.15-16.58-.28-2.51-1.34-3.98-3.94-3.96-2.36.02-2.9-1.32-2.88-3.36.04-6.09.09-12.17-.05-18.26-.03-1.32-.86-2.62-1.32-3.92,0-3.5,0-7,.01-10.5.46-1.32,1.29-2.63,1.31-3.95.12-9.05.04-18.1.09-27.15,0-1.35-.07-2.93.57-4,2.5-4.25,1.82-8.64,1.03-13.09-.28-1.59-.78-3.18-.83-4.78-.32-10.34-.54-20.69-.8-31.03h0Z"/>
  <path class="cls-12" d="M300.49,371.31c-1.93-3.54-2.98-3.89-5.21-1.52-.86-.59-1.76-1.21-2.78-1.91-3.92,5.83-8.58.41-12.92.85-8.5.87-17.06,1.2-25.61,1.54-2.04.08-4.1-.72-6.17-1-1.47-.2-3.21-.76-4.39-.21-6.61,3.07-12.73-2.38-19.22.16-.06-.49-.13-.98-.19-1.46.78-.37,1.55-1.04,2.34-1.05,3.77-.04,4.44-2.41,4.57-5.49.17-4.02.54-8.02.83-12.04,1.24.05,2.49.13,3.73.13,23.07.03,46.13.04,69.2.08,4.77,0,4.77.06,4.42,4.61-2.79,6.32-5.58,12.64-8.37,18.96-.07-.55-.15-1.11-.22-1.66Z"/>
  <path class="cls-22" d="M270.56,311.97c2.53-.54,5.06-1.09,7.59-1.63,16.3-.93,32.59-1.95,48.9-2.77,9.47-.48,18.95-.64,28.43-.9.56-.02,1.13.32,2.41.7-2.19,4.2-4.31,8.06-6.22,12.03-1.17,2.42-2,5-2.98,7.51-29.25,0-58.5,0-88.73,0,3.32-4.03,5.94-7.1,8.4-10.29.52-.68.49-1.79.72-2.7.5-.65.99-1.3,1.49-1.95Z"/>
  <path class="cls-20" d="M121.99,427.35c-4.31,1.02-4.61.89-5.17-3.57-.4-3.16-.27-6.39-.79-9.52-.66-3.96-1.42-7.96-2.81-11.7-.51-1.36-2.95-2-4.51-2.96-.03-2.62-.09-5.23-.09-7.85-.03-18.7-.04-37.4-.06-56.1,0-2.39.14-4.88-2.94-5.7-.66-.72-1.32-1.44-1.98-2.16-.21-.18-.41-.37-.62-.55l-.62-.5c-.88-.89-1.63-2.28-2.68-2.56-1.96-.52-4.09-.39-6.14-.53.3-.67.61-1.34,1.14-2.52-2.75-.18-5.25-.35-7.74-.52l.05-1.26c2.77.18,5.54.41,8.31.54,2,.09,4.1.43,6-.03,3.65-.88,8.24,3.03,7.86,6.78-.14,1.39.58,2.87.91,4.31.45.02.91.03,1.36.05.54-2,1.1-4,1.61-6.01,1.29-5.1,4.06-9.91,2.93-15.5-.61-3.01-1.06-6.07-1.39-9.12-.28-2.62,1.32-3.72,3.72-4.23,1.63-.35,3.17-1.12,5.13-1.85.07,1.04.17,2.44.27,3.83-.26.71-.52,1.42-.78,2.14-.3,2.04-.84,4.08-.85,6.13-.07,12.36,0,24.72,0,37.08-.03,27.97-.08,55.93-.12,83.9Z"/>
  <path class="cls-15" d="M549.71,427.32c-.49-1.41-1.4-2.82-1.41-4.23-.11-12.49-.06-24.99-.08-37.48,0-1.28-.13-2.56-.19-3.84l-1.04-.04c-.08,1.26-.23,2.52-.23,3.77-.02,12.37-.03,24.74,0,37.11,0,3.6-1.1,7.95.52,10.62,1.97,3.26,2.3,6.56,3.22,9.88-3.41,1.44-4.56.61-4.39-2.87.08-1.63-.34-3.31-.64-4.95-.54-2.9-1.09-5.8-1.78-8.66-.28-1.18-.94-2.28-1.42-3.41-.47.07-.93.14-1.4.21v27.02c-.46.01-.93.02-1.39.04-.08-1.13-.22-2.27-.22-3.4-.02-6.36.19-12.74-.08-19.09-.21-4.92-.95-9.82-1.57-14.71-.08-.6-.83-1.12-1.27-1.68,0-9,0-17.99,0-26.99.95-2.43,2.46-4.8,2.74-7.3.82-7.29,1.15-14.64,1.67-21.96.5-1.41,1.42-2.82,1.43-4.23.11-14-.21-28,.18-41.99.2-7.12-.04-14.2-.1-21.3-.01-1.19.13-2.38.2-3.57l1.29-.02c0,2.34-.14,4.7.07,7.02.09,1.05.89,2.03,1.37,3.04.57-.83,1.01-1.79,1.72-2.46,1.44-1.34,2.97-2.62,4.57-3.76,1.69-1.2,3.66-2.04,5.23-3.37,2.3-1.95,3.75-1.53,4.83,1.12-.43.4-.86.8-1.29,1.2,0,0-.06.06-.06.06-.34.21-.68.43-1.01.64-.2-.04-.34.04-.41.22-.69.45-1.37.9-2.06,1.34,0,0-.18.06-.18.06,0,0-.03.19-.03.19-4.51,4.52-6.65,10-6.64,16.36.04,19.49.1,38.98.08,58.47-.03,20.98-.14,41.97-.21,62.95Z"/>
  <path class="cls-5" d="M616.57,325.4c2.49-.04,4.99-.15,7.48-.12,6.55.07,11.61,4.14,12.08,10.69.55,7.69.3,15.44.42,23.16.04,2.74.13,5.47.2,8.21-.03,11.03-.05,22.07-.08,33.11-.43,1.31-.86,2.61-1.29,3.91-.04-8.09-.07-16.19-.12-24.28-.01-1.73.24-3.72-2.43-3.7-7.68.06-15.35.15-23.03.22-.03-14.6-.05-29.2-.08-43.8.13-.19.18-.4.15-.63,1.39-1.8,2.77-3.59,4.16-5.39,0,0,.19-.14.19-.14.79-.41,1.58-.83,2.37-1.24Z"/>
  <path class="cls-7" d="M102.4,326.72c.21.17.41.33.62.5.2.18.41.37.62.55.66.72,1.32,1.44,1.98,2.16.49,1.33.98,2.66,1.47,3.99-.04,14.15-.08,28.31-.12,42.46-8.91-.01-17.82-.02-26.73-.03,0-13.22-.17-26.44.05-39.66.1-5.71,3.3-9.46,9-10.82,4.44-.82,8.87-1.35,13.12.85Z"/>
  <path class="cls-12" d="M451.88,426.56c-4.94,1.54-9.89,3.05-14.82,4.63-11.78,3.77-23.27,8.62-35.78,9.71-.78.44-1.57.88-2.35,1.32-1.23.05-2.47.1-3.7.15-1.02.46-2.03.92-3.05,1.38-2,.28-4,.57-6,.85-1.25.24-2.51.49-3.76.73-1.5.25-3,.51-4.5.76-1.25.25-2.5.5-3.75.75-1.46.02-2.93.04-4.39.07-2.04.49-4.08.98-6.12,1.47-.47,0-.94,0-1.42,0-1.35-.01-2.77-.31-4.02.04-1.28.36-2.39,1.35-3.58,2.06-.75.03-1.5.05-2.25.08-.75.22-1.49.44-2.24.66-2.99.07-5.97.15-8.96.22.17-3.96,1.65-5.46,5.48-6.12,6.67-1.15,13.29-2.57,19.96-3.68,3.06-.51,6.19-.56,9.29-.79,1.43-.11,2.86-.14,4.56-1.1-.7-.52-1.36-1.44-2.11-1.51-3.75-.36-4.2-2.91-4.21-5.86,0-3.15,0-6.29-.01-9.44,15-.04,30-.12,45-.11,12,0,24,.11,35.99.17-1.09,1.18-2.19,2.36-3.28,3.54Z"/>
  <path class="cls-8" d="M269.07,313.92c-.22.91-.19,2.02-.72,2.7-2.46,3.19-5.08,6.25-8.4,10.29,30.23,0,59.48,0,88.73,0,3.25,4.85,1.47,12.82-2.69,16.52-2.29,2.04-3.18,5.64-4.72,8.52-.65,1.22-1.51,2.36-2,3.65-.54,1.44-1,2.98-1.08,4.5-.21,4.17-.13,4.17-3.02,3.81-1.33,2.44-2.64,4.39-3.51,6.52-2.09,5.1-7.57,8.95-5.69,15.61.3,1.06-.84,2.53-1.32,3.81,0-1.72,0-3.43,0-5.15l-1.74.33c.58,1.61,1.16,3.21,1.73,4.82-7.19,3.93-8.74,12.12-13.46,17.92-.92,1.14-1.6,2.47-2.65,4.11,1.07.87,2.16,1.76,3.5,2.85-7.55.74-7.84,7.14-10,12.2-1.2,2.81-.94,6.45-4.59,8.07-.92.41-1.11,2.32-1.81,3.43-3.55,5.59-6.74,11.48-12.67,15.14-.67.41-.78,2.03-.81,3.09-.04,1.21.3,2.44.47,3.66-2.2.41-4.41.81-6.61,1.22,3.65-6.67,7.34-13.32,10.96-20,10.98-20.27,22.06-40.48,32.86-60.85,8.58-16.18,16.81-32.55,25.18-48.84.55-1.07.98-2.21,1.71-3.86h-88.25l-.63-.93c3.74-4.38,7.48-8.75,11.22-13.13Z"/>
  <path class="cls-17" d="M80.24,376.35c8.91.01,17.82.02,26.73.03,0,0,.26.06.26.06.02,9.1.03,18.19.05,27.29-.22.87-.44,1.73-.66,2.6-3.69,5.8-10.16,7.98-17.58,5.93-5.46-1.51-8.98-6.53-8.99-13.12-.01-7.59.12-15.19.18-22.79Z"/>
  <path class="cls-26" d="M122.97,300.23c.26-.71.52-1.42.78-2.14,4.54-9.84,12.28-14.64,23.06-14.69,10.81,1.3,18.03,6.9,21.06,17.54,0,0-.21.21-.21.21-.18,1.47-.51,2.93-.52,4.4-.08,12.85-.1,25.7-.13,38.55-.45-.69-1.1-1.32-1.29-2.08-.23-.94-.1-1.98-.1-2.97,0-9.21.05-18.41-.05-27.62-.03-2.26-1.37-4.78-.73-6.72,1.28-3.82.56-7.12-1.22-10.28-3.35-5.98-8.63-7.35-13.05-3.65-1.88.72-4.38,3.29-4.47-1.46,1.8-.63,3.59-1.25,5.39-1.88-.1-.37-.21-.74-.31-1.1-3.58,1.29-7.39-4.1-10.97.62,2.05.82,3.97,1.59,5.88,2.35h-8.97c-.09.51-.18,1.03-.27,1.54,1.43.49,2.87.98,4.3,1.48,1.4.49,2.79.99,4.18,1.48h-10.75c.6,1.51.98,2.46,1.44,3.63-5.76,1.78-2.75,6.16-3.69,9.88-.68-1.35-1.37-2.7-2.23-4.41-2.24,1.59-2.68,5.68-6.42,4.45-.18-2.03-.35-4.06-.53-6.1-.06-.34-.12-.69-.19-1.03Z"/>
  <path class="cls-26" d="M183.52,269.82c.13-.42.25-.83.38-1.25,3.16-7.08,7.82-12.56,15.64-14.63,1.17-.31,2.41-.38,3.61-.55-.01.48-.03.96.06,1.95-.04,0-.18-.51-.32-1.02-1.76.76-3.51,1.51-5.27,2.27.23.51.47,1.03.7,1.54,1.66-.76,3.32-1.52,4.88-2.79.9-.51,1.9-.51,2.9-.5,1.61.58,3.21,1.15,4.82,1.73l.35-1.74h-5.16c-.75-.49-1.49-.99-2.24-1.48,7.53-1.21,14.2.42,19.71,5.92-2.25,3.51-2.14,3.44-4.3.13-.54-.83-2-1.42-3.08-1.49-3.23-.19-6.49,0-9.73-.1-3.51-.12-5.57,1.64-6.82,4.74-.79,1.97-1.63,3.92-2.63,5.79-.43.79-1.35,1.91-2,1.89-3.75-.15-3.91,2.31-3.93,4.96-.02,2.41,0,4.81,0,7.22-.42.01-.84.03-1.27.04-.14-2.93-.27-5.85-.41-8.78-.32-.03-.65-.07-.97-.1-.62,2.29-1.5,4.54-1.78,6.87-.24,2.01-.94,3-2.97,2.93-.08-3.98-.16-7.97-.23-11.95.01-.53.03-1.05.04-1.58Z"/>
  <path class="cls-8" d="M488.12,270.05c3.89-9.95,10.47-16.41,21.72-17.04,10.12-.57,17.99,3.02,23.05,12.03.59,1.05,1,2.21,1.49,3.31.14.93.28,1.87.41,2.8-1.51-1.46-3.01-2.91-4.52-4.37-1.44-2.23-2.8-4.52-4.37-6.65-.46-.62-1.55-.76-2.35-1.13-.25.91-.89,1.93-.67,2.72,1.01,3.6,3.66,5.14,7.3,5.16-5.03,4.06-8.36,1.55-11.23-8.53.94-.44,1.9-.89,3.48-1.62-2.57-.62-4.5-.92-6.3-1.56-5.37-1.92-9.63,0-11.78,5.38-.36.91-.88,1.82-1.55,2.52-2.79,2.94-3.57,7.26-8.01,9.3-2.79,1.28-4.34,5.24-6.44,8-.2-2.79-.39-5.57-.59-8.36.12-.65.24-1.3.36-1.95ZM501.11,257.18c.05.18.1.36.15.55.44-.16.89-.33,1.33-.49-.12-.16-.27-.48-.34-.46-.39.09-.76.26-1.14.41Z"/>
  <path class="cls-29" d="M296.04,559.96c-.37,2.01-.76,4.02-1.12,6.04-.35,1.95-.51,3.97-1.08,5.85-.49,1.61-1.09,3.46-2.26,4.53-3.14,2.88-3.99,5.59-.64,8.81.24.23.34.66.41,1.01.05.22-.08.47-.13.71-7.13-.71-7.99,5.55-7.43,11.93-3.19-.01-3.26,1.68-2.09,3.95.8,1.54,1.62,2.59-1.01,3.57-1.28.48-1.79,3.05-1.96,5.04,3.36-2.84,6.72-5.68,10.09-8.52-4.76,5.4-9.45,10.86-14.33,16.15-.91.98-2.59,1.24-3.91,1.85-.07.03-.14.23-.11.3.09.2.24.36.16.24,8.12-19.83,16.31-39.85,24.51-59.86.23-.56.61-1.07.92-1.6ZM276.35,612.46c-.22-.06-.45-.12-.67-.18-.14.56-.28,1.11-.42,1.67.21.06.42.11.63.17.16-.55.31-1.11.47-1.66ZM287.99,583.61c-.3.44-.54.66-.61.93-.04.16.19.38.3.58.25-.15.66-.26.72-.47.06-.22-.19-.54-.41-1.04Z"/>
  <path class="cls-8" d="M438.71,121.32c-1.06-.51-2.12-1.02-3.2-1.54-.91.99-1.87,2.04-2.78,3.04-2.6-1.79,2.27-5.47-2.34-6.1.77-.94,1.54-1.87,2.3-2.81.54.19,1.08.39,1.62.58-.06-.77-.11-1.54-.17-2.32,4.51-5.44,9.03-10.88,12.84-15.48.19,7.15-3.97,13.75-6.8,20.83-.31-.07-.61-.14-.92-.21.21.3.42.6.64.9-.4,1.03-.8,2.07-1.19,3.1Z"/>
  <path class="cls-17" d="M444.76,289.36c-.02-1.01-.04-2.02-.06-3.03,0,0,0,0,0,0,.5-1,1-2,1.49-3,.5-1.5,1.01-3,1.51-4.5.59-.32,1.18-.64,1.78-.97-.6-.68-1.19-1.35-1.79-2.03,0-.75,0-1.5,0-2.25v-.76c.51,0,1.01,0,1.51,0,.53.19,1.46.63,1.53.52,1.82-2.86-.45-3.1-2.36-3.56,2.85-1.89,5.7-3.79,8.97-5.95-3.83,0-7.28,0-10.72,0-17.96,0-35.92-.02-53.88.05-2.06,0-4.11.71-6.18.76-.63.02-1.29-1.08-1.93-1.66,1.56.21,3.13.62,4.69.62,22.72-.01,45.44-.08,68.16-.13.46,0,.92.07,2.36.17-5.22,8.91-10.15,17.31-15.08,25.72Z"/>
  <path class="cls-27" d="M182.03,451.35c.03-41.37.07-82.74.1-124.12.01-18.62,0-37.25,0-55.87.3,0,.6,0,.9,0-.06,1.75-.17,3.49-.17,5.24-.02,29.85-.05,59.7-.02,89.55.03,30.97.13,61.94.19,92.92-.33-2.57-.66-5.15-1-7.72Z"/>
  <path class="cls-11" d="M183.02,459.08c-.07-30.97-.16-61.94-.19-92.92-.03-29.85,0-59.7.02-89.55,0-1.75.11-3.49.17-5.24,0,0,.23,0,.23,0l.23.03c.08,3.98.16,7.97.23,11.95.02,34.25.03,68.49.05,102.74-.04,23.62-.08,47.25-.12,70.88,0,.87-.05,1.74-.08,2.62-.17-.18-.35-.35-.54-.51Z"/>
  <path class="cls-21" d="M347.1,574.19c-.1,2.44,1.16,3.23,3.48,3.21,8.12-.07,16.26.25,24.36-.15,4.38-.22,8.7-1.6,13.05-2.45.73-.14,1.46-.29,2.2-.4,6.32-.96,12.64-1.95,18.98-2.85,1.47-.21,2.99-.07,4.49-.1-8.71,1.94-17.33,4.72-26.14,5.62-14.69,1.51-29.51,1.81-44.27,2.62-.12-.41-.23-.82-.35-1.23,1.4-1.42,2.81-2.85,4.21-4.27Z"/>
  <path class="cls-30" d="M488.12,270.05c-.12.65-.24,1.3-.36,1.95-.08,1.24-.23,2.48-.23,3.72-.03,24.03-.05,48.06-.07,72.08-1.55.24-3.1.69-4.66.69-23.61.04-47.21.03-70.82.03,1.46-2.81,2.92-5.62,4.37-8.43-.03.37,0,.77-.11,1.12-2.04,6.47-2.05,6.54,5.01,6.55,20.49.04,40.99-.04,61.48.07,3.08.02,4.08-.94,4.07-4.07-.07-22.99,0-45.98.13-68.97,0-1.58.77-3.16,1.19-4.74Z"/>
  <path class="cls-23" d="M309.08,354.01c.34-4.55.35-4.6-4.42-4.61-23.07-.04-46.13-.05-69.2-.08-1.24,0-2.49-.09-3.73-.13.1-.27.2-.54.3-.81,4.35-.05,8.69-.14,13.04-.15,20.94-.02,41.87-.01,62.81,0,1.22,0,2.44.1,4.38.19-1.21,2.13-2.19,3.87-3.17,5.6Z"/>
  <path class="cls-14" d="M422.94,317.83c-.33-3.16-.66-6.32-.99-9.48.29-.1.59-.2.88-.29.59.63,1.17,1.27,1.83,1.97,4.49-3.46,7.36-7.85,7.62-13.89.38.09.76.18,1.14.27,1.22,1.64,2.44,3.27,3.66,4.91.03.44.06.88.1,1.32-.86,1.56-1.72,3.12-2.58,4.68-3-.46-3.84,1.39-4.37,3.96-.34-.78-.68-1.57-1.06-2.45-3.08,2.83.25,4.74.61,6.99,0,.3-.14.48-.43.54-1.17.94-2.35,1.89-3.59,2.89-.59-.3-1.71-.86-2.82-1.41Z"/>
  <path class="cls-29" d="M231.51,347.81c-.45-1.16-1.3-2.33-1.3-3.49-.08-24.83-.07-49.65-.08-74.48.38,2.06,1.07,4.11,1.08,6.17.16,23.94.21,47.87.3,71.81Z"/>
  <path class="cls-29" d="M230.19,461.37c-.03-23.59-.08-47.17-.06-70.76,0-.69.69-1.37,1.05-2.06.07,22.1.19,44.19.18,66.29,0,2.18-.76,4.35-1.17,6.53Z"/>
  <path class="cls-20" d="M539.37,355.18c-.3-23.63-.08-47.27-.13-70.9.35,0,.7-.01,1.05-.02v71.07c-.31-.05-.61-.1-.92-.16Z"/>
  <path class="cls-19" d="M167.66,301.15s.21-.21.21-.21c.28,2.13.57,4.27.85,6.4,0,28,.01,55.99.02,83.99,0,3.5,0,7-.01,10.5,0,8.53.09,17.07-.05,25.6-.03,1.88-.86,3.75-1.33,5.62-.08-.27-.17-.53-.25-.79.24-2.08.69-4.15.69-6.23.06-36.88.07-73.76.07-110.64,0-4.75-.13-9.49-.21-14.24Z"/>
  <path class="cls-30" d="M122.97,300.23c.06.34.12.69.19,1.03-.11,2.62-.32,5.23-.31,7.85,0,40.84.04,81.68.07,122.52-.31-1.43-.61-2.86-.92-4.29.04-27.97.1-55.93.12-83.9.01-12.36-.06-24.72,0-37.08.01-2.04.55-4.09.85-6.13Z"/>
  <path class="cls-10" d="M122.92,431.63c-.03-40.84-.07-81.68-.07-122.52,0-2.62.21-5.23.31-7.85.18,2.03.35,4.06.53,6.1.02,26.03.04,52.05.06,78.08-.06,15.69-.12,31.37-.18,47.06-.21-.29-.43-.57-.64-.86Z"/>
  <path class="cls-27" d="M534.8,271.15c-.14-.93-.28-1.87-.41-2.8.62,1.2,1.71,2.37,1.77,3.59.21,4.61.09,9.23.1,13.85,0,30.45.02,60.91.02,91.36,0,2-.09,3.99-.13,5.99-.19-.02-.38-.04-.57-.06-.04-1.12-.12-2.24-.12-3.37.02-34.1.07-68.21.05-102.31,0-2.06-.46-4.11-.71-6.17v-.08Z"/>
  <path class="cls-1" d="M168.72,307.35c-.28-2.13-.57-4.27-.85-6.4-3.03-10.63-10.25-16.24-21.06-17.54,4.06.18,8.53-.66,12.06.79,4.49,1.84,8.3,5.53,9.36,10.83.81,4.07,1.27,8.2,1.88,12.31,0,0,0,0,0,0-.46,0-.92,0-1.39.01Z"/>
  <path class="cls-19" d="M535.56,383.08c.19.02.38.04.57.06.06.49.13.98.19,1.47,0,9,0,17.99,0,26.99,0,14.69.08,29.38-.1,44.06-.04,3.12-.99,6.26-1.72,9.33-.14.58-1.27.91-1.94,1.36.71-1.88,1.42-3.77,2.13-5.65.26-1.95.73-3.89.73-5.84.08-23.93.1-47.86.14-71.79Z"/>
  <path class="cls-30" d="M369.66,421.96c.49-.87.98-1.74,1.47-2.61.67,2.96,3.1,2.01,4.89,2.02,23.08.06,46.16,0,69.24.05,3.32,0,6.64.36,9.96.56-2.87.05-5.74.13-8.61.13-25.23.04-50.45.07-75.68.1-.42-.08-.84-.17-1.26-.25Z"/>
  <path class="cls-27" d="M106.63,406.33c.22-.87.44-1.73.66-2.6.15-9.11.3-18.23.45-27.34.02-13.08.06-26.16.03-39.23,0-1.08-.44-2.15-.67-3.23-.49-1.33-.98-2.66-1.47-3.99,3.08.82,2.93,3.32,2.94,5.7.03,18.7.04,37.4.06,56.1,0,2.62.06,5.23.09,7.85.05,1.43-.11,2.92.21,4.28.52,2.21-.6,2.52-2.3,2.45Z"/>
  <path class="cls-10" d="M370.92,422.21c25.23-.03,50.45-.06,75.68-.1,2.87,0,5.74-.09,8.61-.13-.02.35-.03.7-.05,1.05-12-.06-24-.17-35.99-.17-15,0-30,.07-45,.11-1.08-.25-2.17-.5-3.25-.75Z"/>
  <path class="cls-23" d="M405.59,146.69c-.95,5.62-5.16,9.16-8.54,13.2-2.52,3.01-5.06,6.01-7.8,8.81-1.4,1.42-3.27,2.38-4.92,3.54,7.09-8.52,14.18-17.03,21.26-25.55Z"/>
  <path class="cls-17" d="M422.94,317.83c1.11.56,2.23,1.12,2.82,1.41,1.24-1,2.41-1.94,3.59-2.89-3.37,6-6.74,12-10.11,18-2.35-4.3-2.06-4,1.98-7.93,1.48-1.44,1.2-4.68,1.72-7.1,0-.5,0-1,0-1.5Z"/>
  <path class="cls-29" d="M576.43,283.76c5.77,1.48,10.98,3.82,14.26,9.17-1.76.21-3.54.32-5.27.65-2.59.5-4.57-.05-5.61-2.68,1.84.2,3.68.41,6.16.68-1.64-3.74-4.73-4.44-7.7-5.31-1.16-.48-2.3-1.3-3.49-1.38-3.07-.2-6.16-.08-9.25-.09,3.63-.35,7.27-.7,10.9-1.05Z"/>
  <path class="cls-10" d="M487.51,388.42c.24,1.17.69,2.34.7,3.51.06,20.73,0,41.46.13,62.19.02,3.31.82,6.61,1.26,9.91-.63-1.21-1.27-2.42-1.9-3.63-.06-23.99-.12-47.99-.18-71.98Z"/>
  <path class="cls-21" d="M413.93,571.42c1.21-.94,2.29-2.25,3.67-2.76,7.88-2.88,15.82-5.62,23.77-8.3,1.59-.54,3.33-.63,4.99-.92-10.81,3.99-21.62,7.98-32.43,11.98Z"/>
  <path class="cls-19" d="M487.51,388.42c.06,23.99.12,47.99.18,71.98-.31-1.79-.89-3.58-.9-5.38-.11-22.2-.13-44.39-.18-66.59.3,0,.6,0,.9-.01Z"/>
  <path class="cls-5" d="M565.52,284.81c3.08,0,6.18-.12,9.25.09,1.19.08,2.33.9,3.49,1.38-1.94-.08-3.93-.41-5.82-.15-1.62.23-3.15,1.14-4.72,1.75-2.3.5-4.59,1-6.89,1.5-.04.37-.07.74-.11,1.11.83.59,1.65,1.19,2.48,1.78,0,.53.02,1.06.02,1.6-3.6.68-5.3-1.63-6.74-4.32l.03-.19s.18-.06.18-.06c.69-.45,1.37-.9,2.06-1.35.08-.18.22-.26.42-.22.34-.21.68-.43,1.01-.64,0,0,.06-.06.06-.06,1.5-.69,3.01-1.39,4.51-2.08.26-.05.51-.09.77-.14Z"/>
  <path class="cls-11" d="M268.78,474.61c2.08.27,4.15.78,6.23.78,17.37.03,34.74-.03,52.11-.05.98,0,1.97.12,3.87.24-.73,1.67-1.29,2.97-1.85,4.26-.02-.42-.03-.84-.05-1.26.29-.72.59-1.44,1.03-2.51-1.73,0-2.97,0-4.21,0-17.93.01-35.86.04-53.79,0-1.38,0-2.75-.48-4.13-.73l.79-.73Z"/>
  <path class="cls-27" d="M267.98,475.34c1.38.26,2.75.73,4.13.73,17.93.04,35.86.01,53.79,0,1.24,0,2.47,0,4.21,0-.44,1.08-.73,1.79-1.03,2.51-2.4-.58-4.8-1.64-7.2-1.66-16.68-.14-33.37-.05-50.05-.06-1.67,0-3.33-.14-5.04-.92.4-.2.79-.4,1.19-.6Z"/>
  <path class="cls-6" d="M196.78,496.27c-1.63.27-3.27.55-4.9.82,0,0-.15-.12-.15-.12l.12.15c-.25,1.25-.5,2.5-.75,3.75-2.55-3.26-5.11-6.52-7.66-9.78.14-.15.29-.29.43-.44,4.3,1.87,8.6,3.75,12.9,5.62Z"/>
  <path class="cls-17" d="M429.78,315.82c-.36-2.26-3.69-4.17-.61-6.99.38.88.72,1.66,1.06,2.45.53-2.57,1.37-4.41,4.37-3.96-1.61,2.83-3.21,5.67-4.82,8.5Z"/>
  <path class="cls-17" d="M437.18,302.64c-.03-.44-.06-.88-.1-1.32,1.29-2.5,2.58-5.01,3.87-7.51.23-.48.47-.97.7-1.45,1.03-.99,2.07-1.98,3.1-2.97-2.52,4.42-5.05,8.83-7.57,13.25Z"/>
  <path class="cls-27" d="M102.4,326.72c-4.25-2.2-8.67-1.67-13.12-.85.16-3.18,2.82-1.58,4.29-2.24,2.06.14,4.19,0,6.14.53,1.04.28,1.79,1.67,2.68,2.56Z"/>
  <path class="cls-23" d="M409.98,141.32v6.34c-.28.04-.56.08-.84.12-.4-.66-.81-1.32-1.1-1.79-.86.23-1.66.44-2.46.66,1.46-1.78,2.93-3.55,4.39-5.33Z"/>
  <path class="cls-20" d="M170.49,289.96c-1.16.06-1.53.18-1.6.07-1.01-1.38-1.98-2.79-2.96-4.2.5-.25,1.38-.77,1.43-.7,1.02,1.45,1.95,2.96,3.13,4.82Z"/>
  <path class="cls-6" d="M194.83,505.39c3.02.65,4.86,2.39,5.18,5.56-1.73-1.85-3.45-3.71-5.18-5.56Z"/>
  <path class="cls-28" d="M425.2,156.61c-.21-3.21.18-6.2,3.05-8.27-1.02,2.76-2.04,5.51-3.05,8.27Z"/>
  <path class="cls-29" d="M564.75,284.95c-1.5.69-3.01,1.39-4.51,2.08.43-.4.86-.8,1.29-1.2,1.07-.3,2.15-.59,3.22-.89Z"/>
  <path class="cls-23" d="M413.21,137.89c.48,2.63-1.21,3.23-3.27,3.48,1.09-1.16,2.18-2.32,3.27-3.48Z"/>
  <path class="cls-14" d="M381.68,395.84c.84-.2,1.68-.4,2.51-.6-.81,1.54-1.61,3.07-2.42,4.61-.03-1.33-.07-2.66-.1-4h.01Z"/>
  <path class="cls-28" d="M434.14,112.18c.06.77.11,1.54.17,2.32-.54-.2-1.08-.39-1.62-.58.48-.58.97-1.15,1.46-1.73Z"/>
  <path class="cls-4" d="M203.89,253.34c.75.49,1.49.99,2.24,1.48h0c-1,0-2,0-3,0,.01-.48.03-.96.04-1.44.24-.02.49-.03.73-.05Z"/>
  <path class="cls-17" d="M384.87,261.71c.41-1.04.81-2.07,1.22-3.1-.41,1.04-.81,2.07-1.22,3.1Z"/>
  <path class="cls-6" d="M192.44,502.5c.56.67,1.12,1.35,1.69,2.02-.56-.68-1.12-1.35-1.69-2.02Z"/>
  <path class="cls-28" d="M439.9,118.22c-.21-.3-.42-.6-.64-.9.31.07.61.14.92.21-.09.23-.19.46-.28.69Z"/>
  <path class="cls-6" d="M191.1,500.88c.46.55.92,1.1,1.38,1.65-.46-.55-.92-1.1-1.38-1.65Z"/>
  <path class="cls-30" d="M416.8,339.48c.26-.44.52-.89.78-1.33-.26.44-.52.88-.78,1.33Z"/>
  <path class="cls-6" d="M527.8,491.2c.18.21.36.43.03.04.15.48.07.21-.01-.06,0,0-.02.02-.02.02Z"/>
  <path class="cls-14" d="M447.7,272.82c0,.25,0,.51,0,.76-.42.49-.84.97-1.26,1.46.42.27.84.53,1.27.8.6.68,1.19,1.35,1.79,2.03-.59.32-1.18.64-1.78.97h0c0-.26,0-.51,0-.76-2.72-.32-5.45-.62-8.17-.96-1.29-.16-2.57-.38-3.86-.57,4.23-2.25,8.46-4.51,12.7-6.76,1.9.46,4.18.7,2.36,3.56-.07.11-1-.34-1.53-.52-.31-.3-.62-.61-.93-.91-.19.3-.38.61-.57.91Z"/>
  <path class="cls-12" d="M335.17,452.9c-1.01.22-2.03.45-3.04.67-2.32-.47-4.65-.94-7.34-1.48,1.57-3.58,4.36-2.81,6.76-2.98,2.73-.19,3.18,1.79,3.62,3.79Z"/>
  <path class="cls-13" d="M354.65,450.49c1.18-.71,2.29-1.7,3.58-2.06,1.24-.35,2.67-.05,4.02-.04-2.53.7-5.06,1.4-7.59,2.1Z"/>
  <path class="cls-13" d="M363.66,448.39c2.04-.49,4.08-.98,6.12-1.47-2.04.49-4.08.98-6.12,1.47Z"/>
  <path class="cls-13" d="M382.43,445.34c1.25-.24,2.51-.49,3.76-.73-1.25.24-2.51.49-3.76.73Z"/>
  <path class="cls-13" d="M374.17,446.85c1.25-.25,2.5-.5,3.75-.75-1.25.25-2.5.5-3.75.75Z"/>
  <path class="cls-13" d="M392.18,443.76c1.02-.46,2.03-.92,3.05-1.38-1.02.46-2.03.92-3.05,1.38Z"/>
  <path class="cls-13" d="M350.17,451.24c.75-.22,1.49-.44,2.24-.66-.75.22-1.49.44-2.24.66Z"/>
  <path class="cls-13" d="M398.93,442.23c.78-.44,1.57-.88,2.35-1.32-.78.44-1.57.88-2.35,1.32Z"/>
  <path class="cls-16" d="M530.28,266.78c1.51,1.46,3.01,2.91,4.52,4.37,0,0-.01.08-.01.08-.04,8.11-.09,16.21-.11,24.32-.04,26.69-.06,53.37-.09,80.05-10.89-.78-21.77-1.55-32.65-2.36-.59-.04-1.15-.42-1.72-.64,2.36-.97,4.49-1.76,7.36-1.06,3.26.79,6.85.18,10.3.18.05-.68.09-1.35.14-2.03-1.63-.29-3.26-.77-4.9-.82-9.5-.31-18.81-1.65-27.7-5.15-1.01-.4-2.33-1.8-2.31-2.71.06-3.09-.1-5.76-3.71-6.92,2.71-.21,5.43-.41,8.14-.62.05-.33.09-.66.14-.99-1.82-1.02-3.65-2.03-5.47-3.05,1.99-.54,3.99-1.08,5.98-1.62.03-1.37.08-2.74.08-4.11.03-21.12.05-42.23.07-63.35,2.1-2.76,3.66-6.73,6.44-8,4.45-2.04,5.23-6.35,8.01-9.3.66-.7,1.19-1.61,1.55-2.52,2.14-5.38,6.41-7.3,11.78-5.38,1.81.65,3.74.94,6.3,1.56-1.58.74-2.54,1.18-3.48,1.62,2.87,10.08,6.21,12.59,11.23,8.53l.1-.1Z"/>
  <path class="cls-12" d="M482.22,349.45c1.82,1.02,3.65,2.03,5.47,3.05-.05.33-.09.66-.14.99-2.71.21-5.43.41-8.14.62,3.6,1.16,3.77,3.83,3.71,6.92-.02.91,1.3,2.31,2.31,2.71,8.88,3.5,18.2,4.83,27.7,5.15,1.64.05,3.27.54,4.9.82-.05.68-.09,1.35-.14,2.03-3.45,0-7.05.61-10.3-.18-2.87-.7-5.01.08-7.36,1.06-2-.03-3.99-.06-5.99-.09-1.21-.72-2.34-1.83-3.64-2.09-3.37-.67-6.81-1.26-10.23-1.32-3.92-.07-7.85.5-11.78.74-2.59.16-5.2.45-7.78.28-3.55-.23-7.07-1.14-10.62-1.21-9.23-.18-18.47-.15-27.7,0-2.55.04-5.12.6-7.63,1.18-3.04.71-4.26-.26-4.33-3.53-.02-1.01-.27-2.38-.95-2.95-2.27-1.91-1.7-3.81-.11-5.48,1.9-2.01,4.12-3.71,6.2-5.54.25.2.51.41.76.61l-.25-3.68c22.01-.02,44.03-.04,66.04-.05Z"/>
  <path class="cls-16" d="M416.17,349.5c.08,1.23.17,2.46.25,3.68-.25-.2-.51-.41-.76-.61-2.08,1.83-4.3,3.53-6.2,5.54-1.59,1.68-2.16,3.58.11,5.48.68.57.93,1.94.95,2.95.07,3.28,1.28,4.24,4.33,3.53,2.5-.58,5.08-1.14,7.63-1.18,9.23-.14,18.47-.18,27.7,0,3.55.07,7.07.98,10.62,1.21,2.58.17,5.19-.12,7.78-.28,3.93-.24,7.86-.81,11.78-.74,3.42.06,6.86.65,10.23,1.32,1.3.26,2.43,1.37,3.64,2.09-29.6-.24-59.2-.46-88.8-.74-1.35-.01-2.82-.2-4-.78-.74-.37-1.7-2-1.46-2.42,3.81-6.49,7.8-12.88,11.75-19.29,1.49.07,2.97.14,4.46.21Z"/>
  <path class="cls-10" d="M534.59,375.6c.03-26.69.05-53.37.09-80.06.01-8.11.07-16.21.11-24.32.25,2.06.71,4.11.71,6.17.01,34.1-.03,68.21-.05,102.31,0,1.12.08,2.24.12,3.37-.03,23.93-.05,47.86-.14,71.79,0,1.95-.48,3.89-.73,5.84-.03-28.37-.07-56.74-.1-85.1Z"/>
  <path class="cls-23" d="M416.17,349.5c-1.49-.07-2.97-.14-4.46-.21.09-.26.18-.52.27-.78,23.61,0,47.21.02,70.82-.03,1.55,0,3.1-.45,4.66-.69.25.02.5.02.74.02-1.99.54-3.99,1.08-5.98,1.62-22.01.02-44.03.04-66.04.05Z"/>
  <path class="cls-14" d="M447.7,278.83c-.5,1.5-1.01,3-1.51,4.5-.5,1-1,2-1.5,3,0,0,0,0,0,0-3.83.77-3.63,4.99-5.99,7-.91.78-2,1.34-3.01,2h0c-.57-2.65-1.14-5.29-1.8-8.35,1.86.9,3.57,2.09,3.88,1.8,1.22-1.15,1.99-2.76,3.13-4.51-1.25-.24-1.5-.36-1.72-.32-1.35.25-2.69.58-4.05.73-.13.01-.62-1.43-.52-1.49,1.22-.75,2.47-1.53,3.82-1.97,2.8-.91,5.67-1.62,8.51-2.41.25,0,.5,0,.75,0h0Z"/>
  <path class="cls-14" d="M381.67,395.85c-1.38-1.11-2.75-2.22-4.59-3.69,2-.84,3.29-1.38,4.97-2.08-.14,2.19-.25,3.98-.37,5.77,0,0-.01.01-.01.01Z"/>
  <path class="cls-14" d="M441.65,292.35c-.23.49-.47.97-.7,1.45.23-.49.47-.97.7-1.45Z"/>
  <path class="cls-17" d="M447.7,278.83c-.25,0-.5,0-.75,0,.25-.25.5-.5.75-.75,0,.25,0,.5,0,.75Z"/>
  <path class="cls-13" d="M123.74,385.44c-.02-26.03-.04-52.05-.06-78.08,3.73,1.23,4.17-2.86,6.42-4.45.87,1.71,1.55,3.06,2.23,4.41.94-3.72-2.07-8.1,3.69-9.88-.46-1.17-.84-2.12-1.44-3.63,3.84,0,7.29,0,10.75,0,2.94,2.01,8.96.83,10.3-1.45-1.59-.49-3.32-1.03-5.06-1.57,4.42-3.7,9.7-2.33,13.05,3.65,1.77,3.16,2.49,6.46,1.22,10.28-.65,1.94.7,4.46.73,6.72.1,9.2.05,18.41.05,27.62,0,.99-.14,2.03.1,2.97.19.75.84,1.39,1.29,2.07,0,2.24,0,4.48,0,6.72,0,.76,0,1.51,0,2.27,0,5.5,0,11.01,0,16.51-4.52,1.61-9.05,3.19-13.55,4.84-9.91,3.64-19.81,7.32-29.71,10.99Z"/>
  <path class="cls-10" d="M167,369.61c0-5.5,0-11.01,0-16.51,0-.76,0-1.51,0-2.27,0-2.24,0-4.48,0-6.72.04-12.85.06-25.7.13-38.55,0-1.47.34-2.94.52-4.4.07,4.74.21,9.49.21,14.24,0,36.88-.01,73.76-.07,110.64,0,2.08-.45,4.15-.69,6.23-.04-20.88-.07-41.76-.11-62.65Z"/>
  <path class="cls-2" d="M374.17,199.32c-.33-.19-.66-.38-.99-.58.14-.14.28-.28.42-.42.19.33.38.66.57.99,0,0,0,0,0,0Z"/>
  <path class="cls-24" d="M563.22,293.86c0-.53-.02-1.06-.02-1.6,1.66-.99,3.23-2.6,4.99-2.85,3.27-.46,6.65-.14,9.98-.14l.14.12c.46.46.92.92,1.37,1.37l.13.13c1.04,2.63,3.02,3.18,5.61,2.68,1.73-.34,3.51-.44,5.27-.65,0,0,.02.08.01.08,1.34,3.28,2.67,6.56,4.01,9.83.04,10.46.13,20.92.12,31.39-.02,17.57-.1,35.14-.15,52.71-1.36.06-2.74.02-4.09.2-13.14,1.72-26.25,2.38-39.26-.97-.03-20.19-.32-40.38.04-60.56.12-6.84-2.67-14.29,2.8-20.48.98-1.11,1.83-2.34,2.86-3.4.94-.95,2.5-1.53,2.99-2.64,1.34-3,3.35-4.42,6.65-4.3.66.02,1.35-.97,2.03-1.5-.19-.37-.38-.73-.57-1.1-1.64.55-3.28,1.11-4.92,1.66Z"/>
  <path class="cls-14" d="M551.33,386.17c13.01,3.35,26.12,2.69,39.26.97,1.35-.18,2.72-.14,4.09-.2.12,13.83.19,27.66.38,41.49.14,9.63-9.71,19.41-18.82,20.3-9.76.96-17.76-1.7-23.57-9.51-1.54-2.08-1.49-5.34-2.17-8.06,2.57-2.16.7-4.79.71-7.2.08-12.6.09-25.2.12-37.8Z"/>
  <path class="cls-17" d="M609.79,376.6c7.68-.08,15.35-.16,23.03-.22,2.68-.02,2.42,1.97,2.43,3.7.05,8.09.08,16.19.12,24.28-1.91,6-6.66,8.11-12.31,8.5-5.41.38-10.16-1.08-12.74-6.49-2.53-9.88-.57-19.84-.53-29.77Z"/>
  <path class="cls-29" d="M551.33,386.17c-.03,12.6-.04,25.2-.12,37.8-.02,2.41,1.86,5.04-.71,7.2-.26-1.28-.52-2.57-.78-3.85.07-20.98.19-41.97.21-62.95.02-19.49-.04-38.98-.08-58.47-.01-6.36,2.13-11.84,6.64-16.36,1.45,2.69,3.14,5,6.74,4.32,1.64-.55,3.28-1.11,4.92-1.66.19.37.38.73.57,1.1-.68.52-1.37,1.52-2.03,1.5-3.3-.12-5.31,1.31-6.65,4.3-.49,1.1-2.06,1.68-2.99,2.64-1.04,1.05-1.88,2.29-2.86,3.4-5.47,6.19-2.68,13.64-2.8,20.48-.36,20.18-.07,40.37-.04,60.56Z"/>
  <path class="cls-9" d="M609.79,376.6c-.04,9.93-1.99,19.89.53,29.77-2.8-.57-1.97-2.85-1.97-4.54-.05-19.94-.02-39.89,0-59.83,0-1.99-.15-4.01.06-5.98.12-1.11.84-2.15,1.3-3.22.03,14.6.05,29.2.08,43.8Z"/>
  <path class="cls-29" d="M594.71,302.85c-1.34-3.28-2.67-6.56-4.01-9.83,1.34,3.28,2.67,6.56,4.01,9.83Z"/>
  <path class="cls-9" d="M614.01,326.78c-1.39,1.8-2.77,3.59-4.16,5.39-.49-3.24.88-5.06,4.16-5.39Z"/>
  <path class="cls-18" d="M631.43,322h-2.83c-.03-.26-.06-.53-.08-.79.95-.09,1.91-.19,2.86-.28l.06,1.07Z"/>
  <path class="cls-18" d="M634.47,409.65h1.33c0,.3.04.86-.02.87-.43.07-.88.04-1.32.04,0-.3,0-.61,0-.91Z"/>
  <path class="cls-9" d="M616.57,325.4c-.79.41-1.58.83-2.37,1.24.79-.41,1.58-.83,2.37-1.24Z"/>
  <path class="cls-18" d="M606.28,405.62c-.07.08-.13.15-.2.23-.08-.14-.16-.29-.25-.43.1-.03.22-.1.3-.07.07.03.1.18.15.27Z"/>
  <path class="cls-18" d="M584.24,449.85c.19-.33.38-.65.58-.98.14.14.27.27.41.41-.33.19-.65.38-.98.57,0,0,0,0,0,0Z"/>
  <path class="cls-18" d="M607.78,330.61c-.07.08-.13.15-.2.23-.08-.14-.16-.29-.25-.43.1-.03.22-.1.3-.07.07.03.1.18.15.27Z"/>
  <path class="cls-18" d="M604.47,408.88l-.23-.2c.14-.08.29-.16.43-.25.03.1.1.23.07.3-.03.07-.18.1-.27.15Z"/>
  <path class="cls-18" d="M596.92,297.33c.1.04.23.06.27.14.04.07-.02.19-.03.29-.15-.07-.3-.14-.44-.2.07-.08.13-.15.2-.23Z"/>
  <path class="cls-18" d="M598.62,300.35c.04.1.12.21.1.29-.02.08-.15.13-.23.19-.06-.15-.11-.31-.17-.46l.3-.02Z"/>
  <path class="cls-18" d="M168.72,307.35c.46,0,.92,0,1.39-.01.25,10.35.48,20.69.8,31.03.05,1.6.55,3.19.83,4.78.79,4.45,1.47,8.83-1.03,13.09-.63,1.08-.56,2.65-.57,4-.05,9.05.03,18.1-.09,27.15-.02,1.32-.85,2.63-1.31,3.95,0-28-.01-55.99-.02-83.99Z"/>
  <path class="cls-18" d="M183.48,271.4s-.23-.03-.23-.03c0,0-.23,0-.23,0-.3,0-.6,0-.9,0,.47-.51.93-1.03,1.4-1.54-.01.53-.03,1.05-.04,1.58Z"/>
  <path class="cls-27" d="M103.64,327.77c-.21-.19-.41-.37-.62-.55.21.19.41.37.62.55Z"/>
  <path class="cls-29" d="M558.75,287.95c-.69.45-1.37.9-2.06,1.35.69-.45,1.37-.9,2.06-1.35Z"/>
  <path class="cls-29" d="M560.18,287.09c-.34.21-.68.42-1.01.64.34-.21.68-.42,1.01-.64Z"/>
  <path class="cls-10" d="M107.09,333.92c.23,1.08.67,2.15.67,3.23.03,13.08-.01,26.16-.03,39.23-.17,0-.34.02-.5.05,0,0-.26-.06-.26-.06.04-14.15.08-28.31.12-42.46Z"/>
  <path class="cls-2" d="M324.66,389.85c-.58-1.61-1.16-3.21-1.73-4.82l1.74-.33c0,1.72,0,3.43,0,5.15,0,0,0,0,0,0Z"/>
  <path class="cls-11" d="M107.23,376.44c.17-.03.33-.05.5-.05-.15,9.12-.3,18.23-.45,27.34-.02-9.1-.03-18.19-.05-27.29Z"/>
  <path class="cls-4" d="M150.58,290.8c1.74.54,3.47,1.08,5.06,1.57-1.34,2.28-7.36,3.46-10.3,1.45-1.39-.49-2.78-1-4.18-1.48-1.43-.5-2.87-.98-4.3-1.48.09-.51.18-1.03.27-1.54h8.98c.1,4.76,2.59,2.19,4.47,1.47Z"/>
  <path class="cls-13" d="M146.1,289.33c-1.91-.76-3.83-1.53-5.88-2.35,3.58-4.72,7.38.67,10.97-.62.1.37.21.74.31,1.1-1.8.63-3.59,1.25-5.39,1.88,0,0-.01-.01-.01-.01Z"/>
  <path class="cls-4" d="M203.32,255.84c-1.66.76-3.32,1.52-4.98,2.28-.23-.51-.47-1.03-.7-1.54,1.76-.76,3.51-1.51,5.27-2.27.14.51.28,1.02.42,1.53Z"/>
  <path class="cls-4" d="M206.13,254.82h5.16l-.35,1.74c-1.61-.58-3.21-1.15-4.82-1.73,0,0,0,0,0,0Z"/>
  <path class="cls-10" d="M488.2,347.82c-.25,0-.5,0-.74-.02.02-24.03.04-48.06.07-72.08,0-1.24.15-2.48.23-3.72.2,2.79.39,5.57.59,8.36-.02,21.12-.04,42.23-.07,63.35,0,1.37-.05,2.74-.08,4.11Z"/>
  <path class="cls-16" d="M530.18,266.87c-3.64-.02-6.29-1.56-7.3-5.16-.22-.78.42-1.8.67-2.72.8.36,1.9.51,2.35,1.13,1.58,2.13,2.93,4.42,4.37,6.65,0,0-.1.1-.1.1Z"/>
  <path class="cls-16" d="M501.11,257.18c.38-.15.75-.32,1.14-.41.07-.02.23.3.34.46-.44.16-.89.33-1.33.49-.05-.18-.1-.36-.15-.55Z"/>
  <path class="cls-22" d="M276.35,612.46c-.16.55-.31,1.11-.47,1.66-.21-.06-.42-.11-.63-.17.14-.56.28-1.11.42-1.67.22.06.45.12.67.18Z"/>
  <path class="cls-22" d="M287.99,583.61c.21.5.47.82.41,1.04-.06.21-.46.32-.72.47-.11-.2-.34-.42-.3-.58.07-.27.31-.5.61-.93Z"/>
  <path class="cls-25" d="M444.7,286.33c.5-1,1-2,1.5-3-.5,1-1,2-1.5,3Z"/>
  <path class="cls-25" d="M447.69,275.83c-.42-.27-.84-.53-1.27-.8.42-.49.84-.97,1.26-1.46,0,.75,0,1.5,0,2.25Z"/>
  <path class="cls-25" d="M447.7,272.82c.19-.3.38-.61.57-.91.31.3.62.61.93.91-.5,0-1,0-1.5,0Z"/>
  <path class="cls-24" d="M567.72,287.87c1.57-.61,3.1-1.52,4.72-1.75,1.9-.26,3.88.07,5.82.15,2.97.87,6.05,1.57,7.7,5.31-2.47-.28-4.31-.48-6.16-.68,0,0-.13-.13-.13-.13-.46-.46-.92-.92-1.37-1.37,0,0-.14-.12-.13-.12-1.03-.46-2.04-1.23-3.1-1.32-2.43-.2-4.9-.07-7.35-.08Z"/>
  <path class="cls-29" d="M567.72,287.87c2.45,0,4.91-.13,7.35.08,1.06.09,2.07.86,3.1,1.32-3.33,0-6.71-.32-9.98.14-1.76.25-3.33,1.85-4.99,2.85-.83-.59-1.65-1.19-2.48-1.78.04-.37.07-.74.11-1.11,2.3-.5,4.59-1,6.89-1.5Z"/>
  <polygon class="cls-21" points="191.85 497.13 191.73 496.97 191.88 497.1 191.85 497.13"/>
  <path class="cls-26" d="M167,350.83c0,.76,0,1.51,0,2.27,0-.76,0-1.51,0-2.27Z"/>
  <path class="cls-29" d="M578.31,289.39c.46.46.92.92,1.37,1.37-.46-.46-.92-.92-1.37-1.37Z"/>
</svg>