<?xml version="1.0" encoding="UTF-8"?>
<svg id="Layer_1" data-name="Layer 1" xmlns="http://www.w3.org/2000/svg" viewBox="0 0 1211.11 1211.11">
  <defs>
    <style>
      .cls-1 {
        fill: #0db0cf;
      }

      .cls-1, .cls-2, .cls-3, .cls-4, .cls-5, .cls-6, .cls-7, .cls-8, .cls-9, .cls-10, .cls-11, .cls-12, .cls-13, .cls-14, .cls-15, .cls-16, .cls-17, .cls-18, .cls-19, .cls-20, .cls-21, .cls-22, .cls-23, .cls-24, .cls-25, .cls-26, .cls-27, .cls-28, .cls-29 {
        stroke-width: 0px;
      }

      .cls-2 {
        fill: #fccc06;
      }

      .cls-3 {
        fill: #08414f;
      }

      .cls-4 {
        fill: #fde60e;
      }

      .cls-5 {
        fill: #f8b405;
      }

      .cls-6 {
        fill: #1eadc1;
      }

      .cls-7 {
        fill: #24aecc;
      }

      .cls-8 {
        fill: #fbd608;
      }

      .cls-9 {
        fill: #0eabcc;
      }

      .cls-10 {
        fill: #17a1be;
      }

      .cls-11 {
        fill: #12b6d6;
      }

      .cls-12 {
        fill: #033d51;
      }

      .cls-13 {
        fill: #f5ea20;
      }

      .cls-14 {
        fill: #1bb5d0;
      }

      .cls-15 {
        fill: #f5a006;
      }

      .cls-16 {
        fill: #fbe40e;
      }

      .cls-17 {
        fill: #f6a203;
      }

      .cls-18 {
        fill: #18afc9;
      }

      .cls-19 {
        fill: #f4b50d;
      }

      .cls-20 {
        fill: #063e51;
      }

      .cls-21 {
        fill: #f7ca0f;
      }

      .cls-22 {
        fill: #064457;
      }

      .cls-23 {
        fill: #d6e8f4;
      }

      .cls-24 {
        fill: #f4a708;
      }

      .cls-25 {
        fill: #15a6c2;
      }

      .cls-26 {
        fill: #fddd07;
      }

      .cls-27 {
        fill: #f9ae03;
      }

      .cls-28 {
        fill: #fabf06;
      }

      .cls-29 {
        fill: #fcc705;
      }
    </style>
  </defs>
  <path class="cls-12" d="M723.53,908.22c-20.03,5.73-40.02,11.59-60.11,17.08-4.84,1.32-10.01,1.4-15.03,2.05-11.87-.03-23.75-.26-35.61.02-4.13.1-8.22,2.01-12.35,2.08-3.32.06-6.64-1.98-9.99-2.08-9.59-.29-19.2-.07-28.8-.05-12.04-2.45-24.08-4.9-36.13-7.35,13.7-17.05,27.53-33.99,41.08-51.16,26.29-33.3,52.43-66.71,78.62-100.09,11.22-14.31,22.36-28.68,33.62-42.96,8.66-10.98,17.46-21.85,26.2-32.77,3.68,1.42,6.17,1.47,7.34-3.51,1.97-8.44,9.34-12.21,15.82-16.92,2.83,3.22,5.35,6.09,7.87,8.96.43-.37.86-.74,1.29-1.11-1.07-2.77-1.35-6.84-3.36-8.06-5.15-3.12-3.14-5.64-.71-8.89,2.23-3,4.19-6.2,6.84-10.16,3.64.1,5.29-2.42,5.22-7.37-.03-2.22,1.96-5.59,3.9-6.41,2.06-.87,5.19.47,7.75,1.19,4.26,1.2,8.23,4.34,12.95,1.52.4,0,.8,0,1.19,0,1.49-.67,2.99-1.34,4.48-2,1.83,1.44,3.45,3.4,5.52,4.22,13.72,5.43,28.01,8.87,41.94,2.06,17.82-8.71,34.97-18.79,52.52-28.06,6.54-3.45,10.37-8.06,9.36-15.82-.28-2.19-.29-4.49,3.11-3.84,1.79,1.4,3.47,2.97,5.39,4.17,6.89,4.33,13.07.1,19.43-1.8.21,13.72,1.18,27.48.41,41.14-.74,13.04-3.3,25.97-5.07,38.95-1.54,2.95-3.48,5.76-4.54,8.87-2.23,6.59-3.88,13.38-5.99,20.02-2.66,8.39-5.36,16.78-8.46,25.02-.88,2.34-3.2,4.14-4.86,6.18-.88-.83-1.77-1.65-3.33-3.12.21,3.14.59,5.45.44,7.74-.08,1.31-.63,3.15-1.6,3.75-5.82,3.64-5.7,9.88-7.34,15.43-1.08,3.66-2.74,10.01-4.43,10.11-5.92.34-7.7,3.49-9.21,8.09-.52,1.57-2.1,2.78-3.12,4.2-3.41,4.74-7.01,9.36-10.07,14.31-1.68,2.71-2.32,6.05-3.65,9-.48,1.08-1.67,2.71-2.42,2.65-5.06-.4-7.96,1.09-7.27,6.78.07.55-.72,1.46-1.33,1.79-8.19,4.37-11.36,13.21-17.41,19.47-.89.92-2.31,2.51-2.96,2.29-4.14-1.44-4.51,1.91-5.81,4.14-.86,1.48-1.43,3.31-2.66,4.36-4.72,4.04-7.23,10.7-14.23,12.11-.5.1-.66,1.4-1.18,1.97-1.91,2.07-3.59,5.16-5.95,5.86-4.21,1.24-5.16,3.67-5.03,7.35-12.23,7.18-24.45,14.37-36.68,21.55,0,0-.04.02-.04.02-5.2,2.34-10.4,4.68-15.6,7.03Z"/>
  <path class="cls-11" d="M326.2,478.67c6.1-11.27,11.66-22.88,18.41-33.75,15.96-25.7,35.81-48.24,58.57-68.11,21.09-18.43,44.16-34.16,69.81-45.48,17.69-7.81,35.8-15.16,54.4-20.29,16.88-4.66,34.66-6.03,52.05-8.85,2.8,3.02,5.43,6.22,8.45,8.99,2.68,2.47,7.39,4.34,5.28,8.64-3.7,7.55-.64,16.08-5.77,24.02-3.69,5.71-6.02,12.14-12.32,15.4-4.33,2.24-6.41,5.49-7.4,9.91-1.15,5.11-4.27,8.26-9.44,9.32-7.17-2.33-9.84-.87-10.43,6.84-.33,4.3-1.47,6.14-5.83,7.85-5.1,2-12.4,3.02-12.47,11.3,0,.76-1.44,1.86-2.41,2.19-5.85,1.98-11.74,3.82-17.64,5.63-9.49,2.92-18.95,6.11-29.1,5.18-2.28-.21-5.11-.34-6.67-1.68-6.37-5.48-13.35-2.06-19.89-2.87-.32,1.21-.56,1.61-.5,1.95.58,3.42,2.62,7.54,1.38,10.01-.96,1.9-6.01,2.06-9.3,2.37-3.16.29-6.41-.15-9.6-.41-3.66-.3-7.3-.91-10.97-1.07-1.67-.07-3.42,1.04-5.07.89-5.21-.49-10.43-1.1-15.54-2.16-1.94-.4-4.82-1.87-5.16-3.35-1.04-4.5-4.01-4.6-7.52-4.87-3.66-.28-4.76,1.35-5.14,4.69-.13,1.21-1.82,2.41-3.02,3.31-2.1,1.57-4.38,2.91-6.49,4.28-1.35-.89-3.53-2.33-5.72-3.77-.72,2.18-1.42,4.37-2.17,6.54-.42,1.21-.66,3-1.5,3.39-.85.39-2.43-.49-3.54-1.09-1.26-.68-2.35-1.67-3.98-2.87-.79,5.03-1.1,9.41-2.28,13.54-.54,1.91-2.52,3.68-4.26,4.93-3.49,2.5-6.38,6.46-11.62,5.6-.16-.03-1.07,2.69-1.14,4.15-.48,10.46-4.99,19.14-10.75,26.8-1.32-2.52-2.52-4.8-3.72-7.08ZM438.07,414.53c0-.69-.01-1.38-.02-2.07-5.92-.24-11.84-.64-17.76-.61-1.22,0-2.43,1.59-3.64,2.45.74,1,1.48,2.86,2.23,2.86,6.51.04,13.39,2.14,19.19-2.63Z"/>
  <path class="cls-1" d="M326.2,478.67c1.2,2.28,2.4,4.56,3.72,7.08,5.76-7.66,10.27-16.34,10.75-26.8.07-1.46.97-4.17,1.14-4.15,5.23.86,8.13-3.1,11.62-5.6,1.75-1.25,3.72-3.02,4.26-4.93,1.17-4.13,1.49-8.51,2.28-13.54,1.63,1.2,2.72,2.19,3.98,2.87,1.11.6,2.69,1.48,3.54,1.09.84-.39,1.08-2.18,1.5-3.39.76-2.17,1.45-4.36,2.17-6.54,2.18,1.44,4.37,2.88,5.72,3.77,2.11-1.37,4.39-2.71,6.49-4.28,1.2-.9,2.89-2.1,3.02-3.31.37-3.34,1.47-4.98,5.14-4.69,3.51.27,6.48.37,7.52,4.87.34,1.47,3.22,2.94,5.16,3.35,5.11,1.06,10.33,1.67,15.54,2.16,1.65.16,3.39-.96,5.07-.89,3.66.16,7.3.77,10.97,1.07,3.2.26,6.44.71,9.6.41,3.29-.3,8.34-.47,9.3-2.37,1.25-2.47-.79-6.59-1.38-10.01-.06-.34.18-.74.5-1.95,6.53.82,13.52-2.61,19.89,2.87,1.56,1.34,4.38,1.47,6.67,1.68,10.15.94,19.62-2.25,29.1-5.18,5.9-1.82,11.79-3.65,17.64-5.63.98-.33,2.41-1.43,2.41-2.19.07-8.28,7.36-9.3,12.47-11.3,4.37-1.71,5.5-3.54,5.83-7.85.59-7.71,3.27-9.17,10.43-6.84-1.83,5.18-3.67,10.36-5.48,15.55-1.35,3.87-2.65,7.77-3.98,11.65,0,0,0,0,0,0-2.36,2.76-4.73,5.52-7.09,8.28-1.06.52-2.1,1.44-3.18,1.48-6.79.29-8.44,4.25-9.2,10.38-.38,3.09-3.72,7.84-6.33,8.29-11.18,1.93-12.43,10.47-14.41,18.87-2.59,1.21-5.69,1.87-7.66,3.74-3.88,3.68-6.43,9.22-10.82,11.78-5.22,3.05-9.74,6.13-12.93,11.3-1.72,2.78-3.84,5.36-6.07,7.77-1.81,1.95-4.52,5.32-6.01,4.92-6.49-1.72-7.74,2.94-9.81,6.78-2.96,5.5-6.43,9.2-13.76,8.5-2.61-.25-6.92,3.16-8.14,5.92-1.52,3.44-3.12,4.8-6.41,4.31-5.1-.77-8.55,1.57-11.73,5.19-1.27,1.44-3.38,2.93-5.17,3-14.24.63-28.49.95-42.74,1.26-1.24.03-3.44-.45-3.61-1.11-2.55-9.65-12.18-16.76-10.12-28.06.18-.98-.33-2.08-.28-1.83-2.54,1.02-6.64,2.94-6.78,2.68-3.03-5.52-8.44-4.75-13.81-4.98.6-1.06.88-1.49,1.09-1.95.57-1.24,1.16-2.48,1.58-3.78.03-.1-1.58-1.07-1.84-.87-.95.73-2.2,1.71-2.34,2.74-.66,4.53-1.32,9.12-1.29,13.68.03,3.53-.47,6-4.55,5.77-2.41-.14-4.79-.76-7.18-1.17-.27-1.99-.93-4.03-.72-5.97.34-3.13,1.25-6.2,1.92-9.3,1.57-3.59,3.15-7.17,4.72-10.76.72-1.23,1.44-2.45,2.15-3.68l-.03-.18ZM357.19,452.06c.4.63.66,1.06.93,1.49.39-.3,1.03-.56,1.09-.91.07-.41-.38-.9-.61-1.36-.42.23-.84.47-1.42.79ZM353.33,452.36c-.13.3-.26.6-.39.9.3.13.66.43.88.34.21-.08.28-.55.41-.85-.3-.13-.6-.26-.9-.39ZM377.98,433.79c-.3-.13-.67-.43-.88-.34-.21.08-.28.55-.41.85.3.13.67.43.88.34.22-.08.28-.55.41-.85Z"/>
  <path class="cls-16" d="M651.63,304.19c13.26-18.51,26.48-37.04,39.79-55.51,9.19-12.76,18.52-25.42,27.79-38.13,1.31-.6,2.61-1.19,3.43-1.57,1.29,1.9,2.35,3.48,3.42,5.06-.07.4-.14.79-.21,1.19-.69,1.51-1.39,3.02-2.08,4.54-4.75,11.88-9.51,23.77-14.26,35.65-7.15.49-4.05,8.5-8.55,11.7-2.91,2.06-2.93,7.89-4.82,11.75-4.86,9.89-8.73,20.21-15.17,29.4-6.89,9.83-12.74,20.41-18.69,30.87-4.23,7.42-7.87,15.17-11.78,22.77-2.38,3.52-4.81,7-7.12,10.56-6.11,9.45-12.31,18.86-18.21,28.44-5.29,8.59-10.23,17.39-15.35,26.09-5.34,9.07-10.72,18.11-16.08,27.16-2.36,3.94-4.73,7.87-7.09,11.81l-.02.02c-6.14,7.27-12.83,14.15-18.24,21.93-4.29,6.17-9.07,11.14-15.41,15.24-6.58,4.25-12.29,9.86-18.38,14.87-1.92.72-4.11,1.07-5.7,2.23-10.55,7.7-20.92,15.64-31.45,23.35-4.5,3.3-9.15,6.92-15.04,2.56.38-1.28.47-2.75,1.18-3.79,5.76-8.32,11.63-16.56,17.47-24.83,4.91-6.95,9.82-13.91,14.73-20.86,4.33-3.96,8.83-7.75,12.96-11.91,4.26-4.3,8.16-8.96,12.5-13.77-3.01-2.8-1.01-5.11,1.7-7.53,1.4-1.25,3.28-3.08,3.24-4.6-.1-3.69,2.69-4.07,4.66-5.8,4.84-4.25,9.21-9.03,13.75-13.62,1.52-1.54,2.97-3.15,4.51-4.67,2.94-2.88,7.56-5.25,8.54-8.68,1.76-6.1,1.33-12.82,1.81-19.29l.03-.04c6.91-.05,7.38-.68,7.02-9.51.52-1.21.85-2.56,1.59-3.62,5.35-7.65,10.81-15.22,16.19-22.85,7.14-10.12,14.18-20.31,21.36-30.4,8.61-12.1,17.32-24.13,25.99-36.2ZM544.41,469.92l1.4.06v-3.23c-.35-.02-.7-.04-1.05-.06-.12,1.08-.24,2.16-.36,3.24Z"/>
  <path class="cls-17" d="M427.94,868.22c-3.32,1.88-6.73,3.63-9.94,5.68-11.68,7.43-23.89,9.09-35.86,1.64-4.28-2.66-7.56-7.61-10.14-12.17-8.72-15.37-16.91-31.04-25.34-46.58-.26-.47-.9-.73-1.37-1.09-.96-2.32-1.77-4.71-2.91-6.94-4.42-8.6-8.95-17.15-13.45-25.71,5.42,5.19,10.3,9.16,19.39,8.85,13.53-.47,24.6-4.8,31.35-17.21.39-.79.78-1.58,1.17-2.37.4-1.18.79-2.36,1.19-3.54,3.33-3.85,6.87-7.14,4.34-13.46-1.88-4.7-1.65-10.26-2.48-16.32,7.57.75,14.58,1.53,19.88,7.92,3.03,3.65,6.76,6.71,10.18,10.03.79,1.18,1.58,2.36,2.37,3.54,0,.39,0,.78.01,1.17,1.57,2.37,3.14,4.74,4.72,7.11,1.58,2.37,3.15,4.73,4.73,7.1.79,1.19,1.57,2.37,2.36,3.56.79,1.57,1.58,3.15,2.38,4.72.07.78-.1,1.68.24,2.31,4.84,9.09,9.7,18.17,14.66,27.2,3.99,7.27,8.11,14.46,12.18,21.69-.24,1.48-.92,3.05-.63,4.42,1.79,8.61-1.94,14.2-9.32,18.03-6.59,3.42-13.13,6.94-19.69,10.42ZM342.5,795.7c-.3-.13-.67-.43-.89-.34-.21.08-.28.55-.41.85.3.13.67.43.88.34.22-.09.28-.55.41-.85Z"/>
  <path class="cls-15" d="M705.04,692.98c-8.74,10.92-17.54,21.79-26.2,32.77-11.26,14.28-22.39,28.65-33.62,42.96-26.19,33.38-52.33,66.8-78.62,100.09-13.55,17.16-27.38,34.11-41.08,51.16-9.71,12.03-19.39,24.08-29.13,36.09-3.78,4.66-7.68,9.22-11.52,13.83-.39-.04-.78-.07-1.18-.09.08-.78.02-1.61.27-2.34,4.87-14.46,15.33-25.48,23.41-37.96,1.32-2.03,2.51-4.17,3.53-6.36,1.75-3.78,3.14-7.74,5.04-11.44,1.05-2.05,3.02-3.61,4.21-5.61,10.77-18.13,21.25-36.43,32.25-54.42,9.55-15.62,19.53-30.99,29.57-46.31,12.07-18.42,24.49-36.62,36.54-55.05,2.47-3.78,4.01-8.16,5.98-12.27,1.15-.96,2.57-1.73,3.41-2.91,6.08-8.56,12.04-17.2,18.04-25.82,7.59-10.92,15.97-20.95,25.71-30.25,14.52-13.86,31.85-19.1,50.72-21.25,3.95-.45,6.68-1.37,8.56-4.73,4.12.31,2.4,2.45,1.19,4.16-3.46,4.9-7.05,9.71-10.58,14.55-.88,1.14-1.76,2.29-2.64,3.43-3.13,3.9-6.25,7.8-9.38,11.7-.82,1.2-1.65,2.41-2.47,3.61-.67.82-1.34,1.63-2.02,2.45Z"/>
  <path class="cls-25" d="M298.02,573.57c.07-.76.14-1.52.2-2.28,1.28.21,2.55.41,4.97.8-.6-3.44-1.1-6.28-1.6-9.12.4-1.57.79-3.15,1.19-4.72,1.59-.6,3.32-.99,4.75-1.85,3.91-2.36,6.78-1,6.99,3.64.07,1.52-.68,3.09-.62,4.61.05,1.35.3,3.37,1.18,3.91,5.89,3.6,11.85,8.32,19.28,4.97,7.07-3.19,13.72-6.95,22.04-5.74,1.27.18,2.73-4.44,4.73-5.21,7.81-2.98,15.72-6.13,23.88-7.62,6.77-1.24,13.99.27,20.92-.39,9-.85,17.91-2.64,26.85-4.05.56-.09,1.06-.55,1.62-.69,6.03-1.5,12.2-4.54,18.06-4.03,6.33.55,6.65-1.77,6.43-6.3-.21-4.2.44-7.66,3.84-11.09,5.54-5.57,11.25-11.25,11.02-20.51-.11-4.29,2.22-8.83,7.61-9.97,4.57.89,7.89,2.9,7.75,8.28-.02.9.43,2.04,1.07,2.68,3.06,3.08.98,4.69-1.2,7.14-2.32,2.6-4.45,6.03-5.01,9.37-.61,3.63-1.87,4.5-5.18,4.56-1.85.03-5.24,1.15-5.28,1.9-.38,8.19-.24,16.4-.24,24.2,4.71-.59,7.88-.98,11.05-1.38,6.52,1.21,13.03,2.42,19.55,3.63,2.15,2.75,4.45,4.31,8.3,2.78,1.62-.64,3.9.4,5.88.67,0,.4,0,.8-.01,1.2,0,.78,0,1.56,0,2.34-2.12.12-4.24.23-6.37.35.17.82.35,1.63.52,2.45,2.74-.93,5.47-1.86,8.21-2.79,3.15,0,6.31,0,9.46,0-3.12,2.14-6.48,4.02-9.29,6.52-2.3,2.04-3.75,5.02-5.97,7.19-1.07,1.06-2.99,1.44-4.59,1.74-3.06.56-6.93-.2-9.14,1.41-7.68,5.61-16.14,6.24-25.03,5.59-1.43-.11-2.85-.32-4.16-.48.51,2.23,1.92,4.84,1.19,5.75-3.55,4.45.21,8.38.29,12.51.02,1.18-1.84,11.13-2.45,11.73-.75-.78-1.65-1.47-2.23-2.36-4.04-6.25-8.02-12.55-12.02-18.83-.22-.72-.25-1.6-.69-2.12-9.18-10.91-20.15-18.18-34.93-19.74-8.66-.91-16.01.99-23.2,5.17-1.64.51-3.42.77-4.91,1.58-14.21,7.68-28.16,15.88-42.63,23.02-8.14,4.02-11.05,9.58-9.55,18.09-.58-.06-1.24.03-1.73-.21-13.18-6.37-20.84-4.81-30.55,6.29-.66.29-1.31.57-1.97.86v-.28s-.12.26-.12.26c-3.5.89-7.01,1.79-10.51,2.68.08-13.07.16-26.14.25-39.22.71-1.97,1.42-3.94,2.14-5.9,3.93-3.72,4.01-9.06.15-10.55-.06-.83-.13-1.65-.19-2.48ZM439.26,569.73c-.15-.76-.31-1.51-.46-2.27-3.38.93-6.76,1.86-10.14,2.79.22.81.45,1.62.67,2.44,3.31-.99,6.62-1.97,9.93-2.96Z"/>
  <path class="cls-20" d="M328.93,783.05c4.49,8.57,9.02,17.11,13.45,25.71,1.14,2.22,1.95,4.62,2.91,6.94-9.77,5.36-19.55,10.72-29.32,16.08-16.83,9.24-30.18,5.14-39.24-11.77-7.14-13.32-14.47-26.54-21.87-39.72-4.89-8.72-6.56-17.69-1.81-26.82,1.72-3.3,4.48-6.6,7.61-8.51,11.53-7.06,23.41-13.54,35.16-20.24,1.47,2.17,2.95,4.33,4.42,6.5,8.7,15.72,17.39,31.44,26.09,47.15.87,1.56,1.73,3.12,2.6,4.67Z"/>
  <path class="cls-20" d="M881.23,409.55c8.85-5,18.22-9.27,26.43-15.15,14.56-10.43,35.68-3.78,42.71,11.63,6.1,13.36,13.92,25.93,20.96,38.86,7.7,14.15,3.81,27.98-10.27,35.93-10.42,5.88-20.99,11.5-31.49,17.24-5.02-7.7-10.49-15.15-14.95-23.16-7.92-14.23-15.22-28.8-22.78-43.22-.43-1.05-.79-2.13-1.29-3.15-3.09-6.33-6.21-12.65-9.32-18.98Z"/>
  <path class="cls-4" d="M881.23,409.55c3.11,6.32,6.23,12.64,9.32,18.98.5,1.02.86,2.1,1.29,3.15-.81.4-1.62.8-2.43,1.21-4.15-7.73-8.3-15.45-12.93-24.07-2.07,2.87-3.47,4.8-5.01,6.93-7.76-2.54-15.52-5.25-23.4-7.52-1.61-.46-3.67.9-5.56,1.07-3.21.29-7.09,1.53-9.55.22-7.16-3.82-12.22,1.52-18.09,3.04-3.37.87-6.46,3.07-9.84,3.61-3.58.58-6.48.87-7.13,5.28-.23,1.58-1.62,3-2.48,4.49.57.03,1.15.06,1.72.09v9.23c-3.93-6.32-7.86-12.63-11.79-18.95-.58-1.61-1-3.31-1.78-4.81-4.91-9.43-9.9-18.82-14.86-28.23,2.13-2.79,6.2-5.76,5.95-8.31-.4-4.11,1.56-4.77,4-6.37,4.1-2.69,8.17-5.65,6.54-11.66,7.69-4.71,15.7-8.99,23.01-14.23,14.98-10.75,38.3-1.74,43.84,15.35,2.44,7.52,7.58,14.16,11.51,21.19,5.45,9.77,10.9,19.53,16.39,29.28.25.45.85.7,1.29,1.04Z"/>
  <path class="cls-14" d="M651.63,304.19c-8.67,12.06-17.38,24.09-25.99,36.2-7.18,10.09-14.22,20.28-21.36,30.4-5.38,7.63-10.84,15.21-16.19,22.85-.74,1.06-1.07,2.4-1.59,3.61-2.34,3.17-4.68,6.34-7.02,9.51,0,0-.03.04-.03.04-.56.14-1.39.09-1.64.44-16.97,24.17-33.89,48.37-50.87,72.53-.25.36-1.09.32-1.66.46-1.45.8-2.91,1.61-4.37,2.42-.94-2.97-1.87-5.88-2.79-8.78.72.24,1.45.49,2.17.73,1.57-1.71,3.11-3.44,4.7-5.12,1.99-2.1,3.76-4.56,6.11-6.14,3.93-2.63,4.54-5.82,1.13-9.19-1.45-8.74,1.88-14.99,9.57-19.29,1.13-.63,2.26-3.07,1.91-4.23-1.54-5.1,1-8.08,4.59-10.89,5.06-3.97,5.21-9.64.49-14.08,1.32-3.88,2.63-7.77,3.98-11.65,1.81-5.19,3.65-10.37,5.48-15.55,5.17-1.06,8.29-4.22,9.44-9.32.99-4.42,3.08-7.67,7.4-9.91,6.29-3.26,8.62-9.68,12.32-15.4,5.13-7.94,2.07-16.46,5.77-24.02,2.11-4.31-2.61-6.18-5.28-8.64-3.02-2.78-5.65-5.98-8.45-8.99,21.91-4.13,43.84-2.03,65.76-.21,2.19.18,4.28,1.45,6.42,2.21Z"/>
  <path class="cls-14" d="M687.34,312.05c7.43,2.36,15.05,4.25,22.23,7.2,10.45,4.3,20.59,9.36,30.86,14.1.67.83,1.18,1.98,2.05,2.44,8.49,4.54,9.48,9.29,4.08,17.24-1.32,1.94-1.13,4.91-1.63,7.4,2.51.03,5.01.05,7.52.08,1.42.02,3.3-.49,4.16.22,1.28,1.06,1.84,2.99,2.26,3.76-6.98.94-13.09,1.76-20.32,2.74.2.8.37,2.43,1.01,3.87.97,2.2,2.26,4.25,3.42,6.36,0,0-.11,0-.11,0-2.65-.37-5.31-.74-7.96-1.11-.13.62-.25,1.24-.38,1.86,1.16.85,2.32,1.7,3.48,2.55-.34.65-.51,1.63-1.05,1.9-10.06,5.17-20.26,10.07-30.22,15.41-6.34,3.4-12.36,7.41-18.52,11.15-6.29.16-8.38,4.24-11.28,9.38-7.1,12.57-9.05,25.29-5.66,39.08-1.42.4-2.84.79-4.27,1.19.11-2.52.19-5.01-3.5-4.7-2.04-9.03-1.4-17.92,1.35-26.72.79-2.53,1.77-5.06,2.15-7.66.86-5.9,5.95-12.41,10.05-13.02,3.61-.54,7.14-1.65,11.29-2.65-2.93-2.34-4.84-3.87-7.51-5.99,9.27-2.32,9.84-9.19,10.82-15.53.18-1.17-1.77-3.5-3.15-3.9-2.52-.73-5.37-.22-8.02-.63-1.4-.22-2.66-1.29-3.99-1.98,4.56-3.24,2.56-7.59,1.37-11.3-1.16-3.65-3.97-1.17-6.11-.53-.81-2.44-1.63-4.89-2.44-7.33,3.27-8.59,6.54-17.17,9.82-25.76.42.4.83.8,1.25,1.2,4.56-5.49,6.89-11.81,7.01-18.94-.02-.47-.05-.94-.07-1.41Z"/>
  <path class="cls-8" d="M889.41,432.88c.81-.4,1.62-.8,2.43-1.21,7.56,14.43,14.86,29,22.78,43.22,4.46,8.01,9.93,15.46,14.95,23.16.07,1.09.13,2.19.2,3.28-3.1-2.16-6.21-4.33-9.31-6.5.49-.16.97-.32,1.46-.48-1.4-3.81-2.79-7.63-3.87-10.58-3.17,1.51-5.26,2.51-8.05,3.52-.15-.02.41-.05.96-.09-.33-1.34-.67-2.67-1-4.01-.46.1-.92.2-1.38.29.24,1.27.47,2.55,1.41,3.8.57,1.3.43,2.61.32,3.65-3.5,0-6.71-.53-9.67.09-14.05,2.96-28.04,6.25-42.06,9.39-1.11.25-2.49.75-3.38.35-5.01-2.28-9.07-.94-12,2.61-3.85-1.56-7.21-2.93-10.57-4.29-6.3-10.65-12.61-21.29-18.91-31.94,0-1.57-.02-3.13-.03-4.7,3.68.31,6.45-.31,7.33-4.8.28-1.4,2.7-2.87,4.42-3.4,5.73-1.76,11.58-3.13,17.4-4.61,2.06-.53,4.14-1.26,6.24-1.35,10.97-.51,21.95-.81,32.92-1.25,6.52-.26,8.97-3.52,7.79-10.08-.24-1.34-.26-2.73-.38-4.09Z"/>
  <path class="cls-26" d="M300.24,731.22c-1.47-2.17-2.95-4.33-4.42-6.5-.86-1.87-1.71-3.73-2.57-5.6.76-2.71,1.51-5.41,2.43-8.7-1.71.33-2.89.55-3.81.73-1.33-3.59-2.59-6.96-3.9-10.48-1.58.75-2.77,1.31-3.96,1.87-1.66-3.13-3.32-6.26-4.98-9.38,1.35-3.36,2.62-6.76,4.07-10.08,1.68-3.83,1.25-6.36-4.41-6.18,1.79-5.77,3.4-10.97,5.72-18.45,3.22-.75,8.66-1.9,14.03-3.3,4.28-1.12,9.75-1.34,12.4-4.14,3.82-4.03,7.07-4.77,11.84-3.26,1.05.33,2.48-.52,3.73-.82,2.71,4.34,5.7,8.54,8.06,13.06,6.13,11.74,11.99,23.63,17.95,35.46-.35,3.7,1.57,8.45-3.37,10.3-8.5,3.18-17.13,6.04-25.81,8.71-5.8,1.78-13.52,1.19-14.21,9.51-.52,6.28-3.8,7.37-8.82,7.26Z"/>
  <path class="cls-3" d="M427.94,868.22c6.56-3.48,13.1-6.99,19.69-10.42,7.37-3.83,11.11-9.42,9.32-18.03-.29-1.37.4-2.94.63-4.42,6.79,7.07,14.83,9.3,23.64,4.67,13.22-6.94,26.14-14.47,39.19-21.75,2.77-1.57,5.54-3.14,8.3-4.71-.04,1.09.22,2.3-.17,3.23-2.96,7.03-6.11,13.97-9.09,20.99-4.58,10.8-9.08,21.64-13.61,32.46-.66.92-1.51,1.76-1.97,2.77-4.97,10.97-9.88,21.96-14.81,32.95-20.77-9.81-40.61-21.18-58.8-35.28-.88-.68-1.56-1.64-2.33-2.47Z"/>
  <path class="cls-28" d="M934.27,509.02c7.12,13.26,14.24,26.52,21.36,39.77-.57,1.5-1.15,3-1.72,4.51-1.7-.72-4.27-.98-4.96-2.26-2.75-5.11-6.83-5.72-11.44-3.81-6.6,2.73-13.04,5.87-19.45,9.05-3.06,1.52-5.84,3.61-8.84,5.26-1.91,1.05-3.95,2.31-6.03,2.51-6.33.61-12.7.75-18.95,1.06-.29,6.95-1.72,7.99-7.16,6.16-2.22-.75-4.41-1.59-6.61-2.39-4.74-8.28-9.47-16.55-14.21-24.83-1.57-3.16-3.14-6.32-4.71-9.48,7.61.63,15.67,3.14,21.13-5.14.18-.27.69-.4,1.06-.46,8.43-1.3,16.88-2.48,25.29-3.91,2.98-.51,6.29-.98,8.71-2.59,6.95-4.62,16.93-4.63,24.59.22-1.42-3.7-2.83-7.41-4.55-11.92,2.45.69,4.16,1.17,6.21,1.74.1-1.26.18-2.38.27-3.51Z"/>
  <path class="cls-23" d="M739.17,901.17c12.23-7.18,24.45-14.37,36.68-21.55,1.66-1.03,3.38-1.97,4.98-3.09,18-12.62,35.42-26.09,49.63-42.91,12.86-15.22,25.67-30.74,36.31-47.52,10.13-15.99,18.68-33.3,25.6-50.94,6.81-17.38,10.7-35.9,15.87-53.92,1.76-12.98,4.33-25.92,5.07-38.95.78-13.66-.2-27.43-.41-41.15.63-.22,1.27-.43,1.9-.65,3.35,2.73,2.99,6.79,2.85,10.26-.37,9.3-1.78,18.55-2.13,27.84-.4,10.52.63,21.14-.35,31.59-.64,6.84-.38,13.4-.07,20.18.39,8.45-1.17,17.06-2.6,25.49-.37,2.16-4.21,3.55-5.07,5.82-3.15,8.36-5.85,16.9-8.43,25.45-1.24,4.09-.39,8.78-6.22,10.74-1.84.62-2.44,5.32-3.33,8.24-1.02,3.32-1.02,7.13-2.7,10.02-4.71,8.07-11.83,15.2-14.61,23.8-2.48,7.66-7.7,11.85-12.17,17.35-3.53,4.34-6.13,9.43-9.34,14.06-.54.78-2.04.93-3.12,1.29-.92.3-2.22.18-2.75.78-4.38,4.91-8.63,9.95-12.89,14.96-.37.44-.57,1.46-.88,1.47-7.79.31-9.09,8.92-15.5,11.8-7.71,3.47-15.59,7.81-20.97,15.24-1.22,1.68-4.61,1.62-6.59,2.97-2.27,1.55-5.34,3.52-5.81,5.77-.97,4.63-3.4,4.43-6.32,3.03-4.2-2.01-6.57-.26-9.63,2.61-3.18,2.98-6.41,6.56-12.1,5.48-3.46-.66-6.87,1.24-8.47,5.31-1.82-.24-4.12-.55-6.41-.85Z"/>
  <path class="cls-5" d="M914.8,600.49c-.63.22-1.27.43-1.9.65-6.36,1.9-12.54,6.13-19.43,1.8-1.91-1.2-3.6-2.77-5.38-4.16-4.16-6.53-8.42-13-12.43-19.63-1.97-3.27-3.46-6.83-5.17-10.26,2.2.8,4.39,1.64,6.61,2.39,5.43,1.83,6.87.79,7.16-6.16,6.25-.32,12.62-.45,18.95-1.06,2.08-.2,4.12-1.46,6.03-2.51,3.01-1.65,5.78-3.74,8.84-5.26,6.41-3.17,12.85-6.31,19.45-9.05,4.61-1.91,8.69-1.3,11.44,3.81.68,1.27,3.25,1.53,4.96,2.26.57-1.5,1.15-3,1.72-4.51,4.62,6.18,2.94,12.9.94,19.2-3.08,9.69-11.53,14.08-19.84,18.66-7.56,4.16-14.64,9.19-21.94,13.83Z"/>
  <path class="cls-29" d="M934.27,509.02c-.09,1.13-.17,2.25-.27,3.51-2.05-.57-3.75-1.05-6.21-1.74,1.72,4.51,3.14,8.21,4.55,11.92-7.66-4.86-17.64-4.84-24.59-.22-2.42,1.61-5.72,2.08-8.71,2.59-8.41,1.43-16.86,2.61-25.29,3.91-.38.06-.88.18-1.06.46-5.45,8.28-13.52,5.77-21.13,5.14-.79-1.77-1.47-3.6-2.39-5.29-5.48-10.08-11.02-20.12-16.55-30.18,3.36,1.36,6.73,2.73,10.57,4.29,2.93-3.55,6.99-4.9,12-2.61.89.41,2.26-.1,3.38-.35,14.02-3.14,28-6.43,42.06-9.39,2.96-.62,6.16-.09,9.67-.09.11-1.04.25-2.36.39-3.67,2.09-1,4.18-1.99,7.35-3.5,1.08,2.96,2.48,6.77,3.87,10.58-.49.16-.97.32-1.46.48,3.1,2.17,6.21,4.33,9.31,6.5,1.5,2.56,3,5.12,4.51,7.69Z"/>
  <path class="cls-21" d="M679.15,331.19c-3.27,8.59-6.54,17.17-9.82,25.76-1.09,2.86-2.18,5.72-3.27,8.58-.48,1.12-.96,2.23-1.44,3.35-.7.8-1.68,1.49-2.06,2.42-5.41,13.4-10.72,26.84-16.08,40.26-7.38,18.46-14.78,36.91-22.17,55.36-5.02,10.05-10.28,20.02-12.21,30.81,5.32,1.3,9.48,2.31,13.64,3.32h-7.51c-1.58,2.05-1.54,10.74-6.24,1.55-.12-.23-2.68.8-4.1,1.25-4.03-1.89-2.83-4.84-.92-7.14,3.45-4.16,2.58-7.75.26-12.12-1.27-2.4-.74-5.83-.78-8.79-.06-4.08.05-8.17.22-12.25.07-1.68-.1-3.92.86-4.89,2.3-2.32,4.59-7.76,8.7-1.57.13.2,1.94-.7,3.1-1.14-3.41-3.75-4.23-15.92-1.53-19.45.33-.43.87-.93,1.36-.99,7.7-.91,8.39-7.99,10.23-13,2.84-7.75,6.1-14.65,11.82-20.9,3.02-3.3,7.02-8.51,2.93-14.63-1.22-1.83-.41-5.02-.53-7.59.49,0,.99,0,1.48,0,.53,1.83,1.07,3.66,1.78,6.08,1.56-4.12,2.37-7.59,4.11-10.5,1.92-3.22,2.75-5.88.21-9.11-.73-.93-.5-2.62-.71-3.96,3.91-7.6,7.55-15.35,11.78-22.77,5.95-10.45,11.8-21.04,18.69-30.87,6.44-9.19,10.32-19.51,15.17-29.4,1.89-3.86,1.91-9.69,4.82-11.75,4.5-3.19,1.4-11.2,8.55-11.7-1.84,5.26-3.49,10.6-5.55,15.77-5.44,13.66-11.06,27.25-16.6,40.86.02.47.05.94.07,1.41-2.75,5.91-5.51,11.82-8.26,17.73Z"/>
  <path class="cls-13" d="M326.43,646.93c-1.25.31-2.68,1.16-3.73.82-4.77-1.51-8.02-.76-11.84,3.26-2.65,2.79-8.12,3.02-12.4,4.14-5.37,1.41-10.81,2.55-14.03,3.3-2.32,7.48-3.93,12.68-5.72,18.45,5.66-.18,6.09,2.34,4.41,6.18-1.45,3.32-2.72,6.72-4.07,10.08-5.04-6.99-9.89-14.18-11.31-22.84-1.98-12.11,3.15-24.39,15.97-31.36,4.1-2.23,8-4.82,11.99-7.25,3.5-.89,7.01-1.79,10.51-2.68,0,0,.13.01.13.01.66-.29,1.31-.57,1.96-.86,7.45,1.9,12.05,7.57,16.94,12.86.4,1.96.81,3.92,1.21,5.88ZM278.65,682.15c-.31-.13-.69-.44-.91-.35-.22.09-.29.57-.42.88.31.13.69.44.91.35.22-.09.29-.57.42-.88Z"/>
  <path class="cls-7" d="M742.98,377.46c-1.16-2.11-2.45-4.17-3.42-6.36-.64-1.43-.81-3.07-1.01-3.87,7.24-.97,13.35-1.8,20.32-2.74-.43-.77-.99-2.7-2.26-3.76-.86-.71-2.74-.2-4.16-.22-2.51-.03-5.01-.05-7.52-.08.5-2.49.32-5.46,1.63-7.4,5.4-7.95,4.41-12.7-4.08-17.24-.87-.46-1.37-1.61-2.05-2.44,4.49,2.25,9.14,4.22,13.43,6.79,9.16,5.48,18.14,11.26,27.19,16.92-3.36,2.48-6.77,4.87-10.05,7.44-4.5,3.52-7.49,7.77-5.86,13.91-2.08-.36-4.15-.82-6.24-1.07-3.73-.43-7.48-.73-11.22-1.08-1.57.39-3.14.79-4.71,1.18Z"/>
  <path class="cls-19" d="M483.69,969.78c.39.02.79.05,1.18.09-5.5,7.09-11,14.18-16.49,21.27-.32-1.03-.63-2.07-.94-3.1-.98.85-1.23,1.69-.92,2.11.38.51,1.23.67,1.87.99-6.06,7.75-12.13,15.49-18.55,23.71-1.59-7.26-1.7-7.31,3.23-19.38,4.15-10.2,8.58-20.28,12.89-30.41,0,0,.22.2.22.2.76,3.52,1.53,7.04,2.29,10.56-.49.15-.99.31-1.48.46-.66-1.15-1.32-2.31-2.16-3.78-6.72,17.76-7.2,15.86-4.68,19.97,1.38-2.1,2.46-4.72,4.36-6.42,6.24-5.6,12.78-10.86,19.2-16.26Z"/>
  <path class="cls-19" d="M489.07,905.96c4.93-10.99,9.84-21.98,14.81-32.95.46-1.01,1.3-1.85,1.97-2.77-.39,2.82-.2,5.89-1.29,8.41-3.91,9.08-8.3,17.95-12.41,26.95-1.3,2.84-3.86,5.59-.56,8.99.63.65-.41,2.92-.76,4.94-1.2-1.67-1.86-2.59-2.5-3.48-4.78,11.08-9.28,21.78-13.99,32.38-2.53,5.69-5.44,11.22-8.18,16.82,0,0-.22-.2-.22-.2,3.96-10.32,7.86-20.67,11.88-30.96,3.68-9.4,7.49-18.75,11.24-28.13Z"/>
  <path class="cls-13" d="M765.15,378.42c-1.63-6.15,1.36-10.39,5.86-13.91,3.28-2.57,6.7-4.97,10.05-7.44,1.38-.05,2.76-.1,4.13-.15,1.63,6.01-2.44,8.97-6.54,11.66-2.43,1.6-4.4,2.26-4,6.37.25,2.55-3.82,5.53-5.95,8.31-.77-.02-1.54-.04-2.31-.06-.42-1.59-.84-3.19-1.26-4.78Z"/>
  <path class="cls-3" d="M561.65,927.31c9.6-.02,19.21-.24,28.8.05,3.35.1,6.68,2.14,9.99,2.08,4.13-.07,8.22-1.98,12.35-2.08,11.86-.28,23.74-.05,35.61-.02-7.52.86-15.04,2.48-22.55,2.43-20.69-.14-41.37-.98-62.06-1.59-.72-.02-1.42-.57-2.13-.88Z"/>
  <path class="cls-7" d="M319.36,493.29c-.67,3.1-1.58,6.17-1.92,9.3-.21,1.94.45,3.98.72,5.97,0,.41,0,.82,0,1.23-1.05.36-2.87.52-3.02,1.11-2.65,10.24-8.84,19.61-7.65,30.79-.78.8-1.57,1.59-2.35,2.39-.73,0-1.47,0-2.2,0,1.58-6.79,2.65-13.75,4.85-20.33,3.45-10.29,7.67-20.31,11.57-30.45Z"/>
  <path class="cls-13" d="M726.05,214.04c-1.07-1.58-2.13-3.16-3.42-5.06-.82.37-2.12.97-3.43,1.57,2.83-4.59,5.67-9.19,8.74-14.18,3.97,5.54,3.12,10.79-1.89,17.67Z"/>
  <path class="cls-13" d="M284.02,702.54c1.19-.56,2.38-1.12,3.96-1.87,1.31,3.52,2.56,6.9,3.9,10.48.92-.18,2.1-.4,3.81-.73-.92,3.28-1.68,5.99-2.43,8.7-3.08-5.53-6.16-11.06-9.24-16.58Z"/>
  <path class="cls-7" d="M302.79,558.24c-.4,1.57-.79,3.15-1.19,4.72-.39.79-.78,1.59-1.18,2.38-.38.79-.75,1.58-1.13,2.37-.36.78-.71,1.55-1.07,2.33,1.53-8.23,3.07-16.46,4.6-24.7.38,1.15.76,2.3,1.14,3.45-.39,3.15-.78,6.3-1.17,9.45Z"/>
  <path class="cls-23" d="M723.53,908.22c5.2-2.34,10.4-4.68,15.6-7.03-3.44,6.26-9.57,6.52-15.6,7.03Z"/>
  <path class="cls-7" d="M298.07,586.59c-.71,1.97-1.42,3.94-2.14,5.9.7-6.31,1.4-12.62,2.09-18.93.06.82.13,1.65.19,2.47-.05,3.52-.1,7.04-.15,10.55Z"/>
  <path class="cls-9" d="M300.42,565.34c.39-.79.78-1.59,1.18-2.38.5,2.84,1,5.69,1.6,9.12-2.41-.39-3.69-.6-4.97-.8,0-.42,0-.83,0-1.25.36-.78.71-1.55,1.07-2.33.37-.79.75-1.58,1.13-2.37Z"/>
  <path class="cls-1" d="M303.96,548.79c-.38-1.15-.76-2.3-1.14-3.45.04-.42.08-.85.11-1.27.74,0,1.47,0,2.2,0-.39,1.57-.79,3.15-1.18,4.72Z"/>
  <path class="cls-13" d="M723.76,219.77c.69-1.51,1.39-3.02,2.08-4.54-.69,1.51-1.39,3.02-2.08,4.54Z"/>
  <path class="cls-11" d="M326.23,478.85c-.72,1.23-1.44,2.45-2.15,3.68.72-1.23,1.44-2.45,2.15-3.68Z"/>
  <path class="cls-17" d="M870.49,568.89c1.71,3.43,3.2,6.99,5.17,10.26,4,6.63,8.27,13.1,12.43,19.63-3.41-.65-3.4,1.65-3.12,3.84,1.01,7.76-2.82,12.36-9.36,15.82-17.55,9.27-34.7,19.35-52.52,28.06-13.94,6.81-28.22,3.38-41.94-2.06-2.07-.82-3.69-2.78-5.51-4.22-1.55-1.09-3.31-1.97-4.62-3.3-12.16-12.28-19.2-27.66-25.96-43.2.79-3.28-2.65-6.94.92-10,1.58-1.35,2.83-3.21,4.6-4.19,5.98-3.32,12.13-6.34,18.21-9.48,4.56-.13,9.87,1.21,13.52-.68,9.27-4.79,16.11-12.59,21.06-21.93.69-1.3,1.97-3.01,3.19-3.21,6.41-1.01,8.11-5.27,9.25-10.92.67-3.32,3.32-6.69,7.73-5.45,3.9,1.1,6.94.77,10.35-1.77,3.82-2.85,9.67-.8,8.98,2.67-.87,4.34,2.05,5.34,4.42,7.24,1.85,1.48,3.4,3.32,5.15,4.92,1.22,1.11,2.57,2.09,3.86,3.12,4.74,8.28,9.47,16.55,14.21,24.83Z"/>
  <path class="cls-22" d="M745.05,593.73c6.76,15.54,13.8,30.92,25.96,43.2,1.31,1.33,3.07,2.21,4.62,3.3-1.5.67-2.99,1.34-4.49,2.01l-.02-.02c-.19-.48-.39-.96-.58-1.44-.19.48-.39.96-.58,1.44h0c-4.72,2.83-8.69-.31-12.95-1.51-2.56-.72-5.69-2.06-7.75-1.19-1.93.82-3.93,4.19-3.9,6.41.06,4.95-1.58,7.46-5.22,7.37-2.65,3.97-4.61,7.17-6.84,10.16-2.43,3.25-4.44,5.77.71,8.89,2.01,1.22,2.29,5.29,3.36,8.06-.43.37-.86.74-1.29,1.11-2.52-2.87-5.05-5.75-7.87-8.96-6.47,4.71-13.85,8.48-15.82,16.92-1.16,4.99-3.66,4.93-7.34,3.51.67-.82,1.35-1.64,2.02-2.45.82-1.2,1.65-2.41,2.48-3.61,3.13-3.9,6.25-7.8,9.38-11.7.88-1.14,1.76-2.29,2.64-3.43,3.54-4.84,7.12-9.66,10.58-14.55,1.21-1.7,2.93-3.85-1.2-4.16-15.48-1.85-30.96-3.68-46.44-5.55-13.8-1.66-27.6-3.27-41.37-5.1-4.5-.6-6.66-4.48-4.26-7.93,5.2-7.48,10.87-14.62,16.34-21.91,1.35-.51,2.7-1.03,3.85-1.47.28,3.52.54,6.88.8,10.11,4.01-1.09,7.23-1.73,10.27-2.85,3.8-1.4,7.71-2.79,11.13-4.9,8-4.95,15.32-11.13,23.66-15.33,10.71-5.39,22.15-9.32,33.28-13.88,2.28,3.15,4.57,6.31,6.85,9.46Z"/>
  <path class="cls-3" d="M908.23,681.24c-5.17,18.02-9.06,36.55-15.87,53.92-6.92,17.64-15.47,34.94-25.6,50.94-10.63,16.78-23.44,32.29-36.31,47.52-14.22,16.82-31.63,30.29-49.63,42.91-1.6,1.12-3.32,2.06-4.98,3.09-.13-3.68.82-6.11,5.03-7.35,2.36-.7,4.04-3.78,5.95-5.86.52-.56.68-1.86,1.18-1.97,7-1.41,9.5-8.07,14.23-12.11,1.23-1.05,1.8-2.88,2.66-4.36,1.3-2.23,1.67-5.58,5.81-4.14.65.23,2.07-1.37,2.96-2.29,6.05-6.26,9.21-15.1,17.41-19.47.61-.33,1.4-1.24,1.33-1.79-.68-5.69,2.21-7.17,7.27-6.78.75.06,1.93-1.58,2.42-2.65,1.33-2.96,1.97-6.29,3.65-9,3.06-4.95,6.67-9.57,10.07-14.31,1.02-1.42,2.6-2.63,3.12-4.2,1.52-4.6,3.29-7.75,9.21-8.09,1.69-.1,3.35-6.45,4.43-10.11,1.64-5.56,1.51-11.79,7.34-15.43.96-.6,1.51-2.44,1.6-3.75.14-2.29-.23-4.6-.44-7.74,1.56,1.47,2.45,2.29,3.33,3.12,1.66-2.05,3.98-3.84,4.86-6.18,3.1-8.23,5.79-16.63,8.46-25.02,2.11-6.64,3.76-13.43,5.99-20.02,1.05-3.11,3-5.92,4.54-8.87Z"/>
  <path class="cls-22" d="M771.14,642.23c-.4,0-.8,0-1.19,0h0c.39,0,.78,0,1.17-.01l.02.02Z"/>
  <path class="cls-1" d="M438.07,414.53c-5.8,4.78-12.68,2.67-19.19,2.63-.75,0-1.49-1.86-2.23-2.86,1.21-.86,2.42-2.45,3.64-2.45,5.92-.03,11.84.36,17.76.61,0,.69.01,1.38.02,2.07Z"/>
  <path class="cls-9" d="M303.96,548.79c.39-1.57.79-3.15,1.18-4.72.78-.8,1.57-1.59,2.35-2.39,7.87-.46,2.59-8.2,6.36-11.56,1.55,2.16,2.94,4.09,4.32,6.02.4-.03.8-.07,1.2-.1-.4-8.75-.81-17.5-1.21-26.25,0-.41,0-.82,0-1.23,2.39.41,4.77,1.03,7.18,1.17,4.08.23,4.58-2.24,4.55-5.77-.03-4.56.63-9.15,1.29-13.68.15-1.03,1.4-2,2.34-2.74.26-.2,1.87.77,1.84.87-.41,1.29-1.01,2.53-1.58,3.78-.21.46-.49.89-1.09,1.95,5.37.23,10.79-.54,13.81,4.98.14.25,4.24-1.66,6.78-2.68-.04-.25.46.85.28,1.83-2.06,11.3,7.57,18.41,10.12,28.06.17.66,2.37,1.14,3.61,1.11,14.25-.31,28.5-.63,42.74-1.26,1.79-.08,3.9-1.56,5.17-3,3.19-3.62,6.63-5.95,11.73-5.19,3.3.49,4.9-.87,6.41-4.31,1.22-2.76,5.53-6.17,8.14-5.92,7.33.71,10.8-3,13.76-8.5,2.07-3.84,3.33-8.5,9.81-6.78,1.48.39,4.2-2.97,6.01-4.92,2.23-2.4,4.35-4.98,6.07-7.77,3.19-5.16,7.71-8.25,12.93-11.3,4.39-2.56,6.94-8.1,10.82-11.78,1.97-1.86,5.07-2.53,7.66-3.74.34,1.5,1.45,3.45.88,4.41-3.1,5.3-6.49,10.45-10.02,15.48-5.92,8.42-12.03,16.71-18.06,25.05-5.39,1.15-7.72,5.69-7.61,9.97.23,9.26-5.48,14.93-11.02,20.51-3.4,3.43-4.05,6.89-3.84,11.09.22,4.53-.1,6.85-6.43,6.3-5.86-.51-12.03,2.53-18.06,4.03-.56.14-1.06.6-1.62.69-8.94,1.42-17.85,3.2-26.85,4.05-6.93.66-14.16-.86-20.92.39-8.16,1.5-16.07,4.64-23.88,7.62-2,.76-3.46,5.39-4.73,5.21-8.31-1.21-14.97,2.55-22.04,5.74-7.43,3.35-13.39-1.37-19.28-4.97-.88-.54-1.13-2.55-1.18-3.91-.06-1.53.69-3.09.62-4.61-.22-4.64-3.08-6.01-6.99-3.64-1.43.87-3.16,1.25-4.75,1.85.39-3.15.78-6.3,1.17-9.45Z"/>
  <path class="cls-18" d="M481.37,497.93c6.03-8.34,12.14-16.63,18.06-25.05,3.54-5.03,6.92-10.18,10.02-15.48.57-.97-.55-2.92-.88-4.41,1.98-8.4,3.23-16.94,14.41-18.87,2.61-.45,5.95-5.2,6.33-8.29.75-6.13,2.4-10.09,9.2-10.38,1.08-.05,2.12-.97,3.18-1.48,5.42-.15,6.67-3.86,7.09-8.28,0,0,0,0,0,0,4.71,4.44,4.57,10.11-.49,14.08-3.58,2.81-6.13,5.79-4.59,10.89.35,1.16-.78,3.59-1.91,4.23-7.69,4.3-11.03,10.55-9.46,19.38-.03-.04-.16-.18-.3-.32-.56.47-1.12.94-1.69,1.41l.69.69c.47-.56.94-1.13,1.3-1.78,3.3,3.27,2.69,6.47-1.24,9.1-2.35,1.57-4.12,4.04-6.11,6.14-1.6,1.68-3.14,3.41-4.7,5.12-.72-.24-1.45-.49-2.17-.73.92,2.91,1.85,5.81,2.79,8.78,1.47-.81,2.92-1.61,4.37-2.42-.09.38-.18.76-.27,1.14l-.96,1.47c-2.76,4.61-5.52,9.22-8.27,13.83-4.91,6.95-9.82,13.91-14.73,20.86-5.84,8.27-11.72,16.5-17.47,24.83-.72,1.04-.81,2.52-1.19,3.79-1.71,1.72-3.43,3.43-5.14,5.14,1.63.91,3.23,1.86,4.89,2.71.67.34,1.46.46,2.19.68-3.17.4-6.33.79-11.05,1.38,0-7.8-.14-16.02.24-24.2.04-.75,3.43-1.86,5.28-1.9,3.31-.06,4.57-.94,5.18-4.56.57-3.34,2.69-6.77,5.01-9.37,2.19-2.45,4.26-4.06,1.2-7.14-.63-.64-1.09-1.78-1.07-2.68.14-5.38-3.18-7.39-7.75-8.28Z"/>
  <path class="cls-14" d="M548.78,405.68c-.43,4.42-1.68,8.13-7.09,8.28,2.36-2.76,4.73-5.52,7.09-8.28Z"/>
  <path class="cls-11" d="M357.19,452.06c.57-.32.99-.55,1.42-.79.22.46.67.95.61,1.36-.06.35-.7.61-1.09.91-.27-.43-.54-.86-.93-1.49Z"/>
  <path class="cls-11" d="M353.34,452.36c.3.13.6.26.9.39-.13.3-.19.77-.41.85-.22.08-.58-.21-.88-.34.13-.3.26-.6.39-.9Z"/>
  <path class="cls-11" d="M377.98,433.79c-.13.3-.2.77-.41.85-.22.08-.58-.21-.88-.34.13-.3.2-.77.41-.85.22-.08.58.21.88.34Z"/>
  <path class="cls-2" d="M484.33,554.7c-.74-.22-1.52-.34-2.19-.68-1.66-.85-3.26-1.8-4.89-2.71,1.71-1.71,3.43-3.43,5.14-5.14,5.9,4.36,10.54.74,15.04-2.56,10.53-7.72,20.9-15.66,31.45-23.35,1.59-1.16,3.79-1.51,5.7-2.23,9-5.64,18.27-10.9,26.88-17.09,4-2.87,6.05-8.62,10.16-11.14,9.18-5.64,10.54-15.57,14.99-23.81,0,0,.02-.02.02-.02,5.15-2.26,6.69-6.7,7.09-11.81,5.36-9.05,10.74-18.1,16.08-27.16,5.12-8.69,10.06-17.5,15.35-26.09,5.91-9.58,12.1-18.99,18.21-28.44,2.31-3.56,4.74-7.04,7.12-10.56.21,1.34-.02,3.03.71,3.96,2.54,3.23,1.71,5.89-.21,9.11-1.74,2.91-2.55,6.38-4.11,10.5-.71-2.42-1.24-4.25-1.78-6.08-.49,0-.99,0-1.48,0,.12,2.57-.7,5.76.53,7.59,4.1,6.12.09,11.32-2.93,14.63-5.72,6.25-8.97,13.15-11.82,20.9-1.84,5.01-2.54,12.09-10.23,13-.49.06-1.03.56-1.36.99-2.7,3.53-1.88,15.69,1.53,19.45-1.16.44-2.96,1.35-3.1,1.14-4.11-6.18-6.4-.75-8.7,1.57-.96.97-.79,3.21-.86,4.89-.17,4.08-.27,8.16-.22,12.25.04,2.97-.49,6.39.78,8.79,2.32,4.38,3.19,7.96-.26,12.12-1.91,2.3-3.11,5.25.92,7.14-.2,1.4-.41,2.81-.51,3.51-4.49-.48-8.3-.8-12.07-1.32-6.39-.88-6.65-.65-5.44,5.82,1.7,9.06.34,10.98-8.63,12.32-.39.06-.69.73-1.09,1.19,6.52,2.04,8.26,6.61,5.8,14.12-.69,2.13-1.11,4.45-1.1,6.68.02,4.94.53,9.87.56,14.81.02,4.13-2.5,5.14-5.93,3.7-5.21-2.2-10.17-2.49-14.96.95-10.96-1.3-21.93-2.59-32.89-3.91-9.26-1.11-18.51-2.25-27.76-3.38-6.52-1.21-13.03-2.42-19.55-3.63ZM624.25,419.37c.55.44,1.1.89,1.64,1.33.94-1.12,1.87-2.25,2.81-3.37-.46-.4-.91-.81-1.37-1.21l-3.09,3.25ZM605.6,452.39c-.5-.47-.86-.8-1.22-1.14-.32.38-.9.76-.9,1.14,0,.38.57.76.89,1.14.36-.33.73-.67,1.23-1.13Z"/>
  <path class="cls-13" d="M525,481.38c.09-.38.18-.76.27-1.14.57-.14,1.4-.1,1.66-.46,16.97-24.17,33.9-48.37,50.87-72.53.25-.36,1.08-.3,1.64-.44-.48,6.46-.05,13.19-1.81,19.29-.99,3.43-5.6,5.8-8.54,8.68-1.54,1.51-2.99,3.13-4.51,4.67-4.54,4.58-8.92,9.37-13.75,13.62-1.97,1.73-4.76,2.11-4.66,5.8.04,1.52-1.84,3.35-3.24,4.6-2.71,2.42-4.71,4.73-1.7,7.53-4.34,4.81-8.24,9.47-12.5,13.77-4.13,4.16-8.62,7.96-12.96,11.91,2.76-4.61,5.52-9.22,8.27-13.83.32-.49.64-.98.96-1.47Z"/>
  <path class="cls-8" d="M586.6,465.98c-4.45,8.24-5.81,18.17-14.99,23.81-4.11,2.53-6.16,8.27-10.16,11.14-8.61,6.18-17.88,11.45-26.88,17.09,6.09-5.01,11.8-10.62,18.38-14.87,6.34-4.1,11.12-9.06,15.41-15.24,5.41-7.78,12.1-14.66,18.24-21.93Z"/>
  <path class="cls-13" d="M579.47,406.77c2.34-3.17,4.68-6.34,7.02-9.51.36,8.82-.11,9.46-7.02,9.51Z"/>
  <path class="cls-8" d="M593.71,454.15c-.41,5.11-1.94,9.55-7.09,11.81,2.36-3.94,4.73-7.87,7.09-11.81Z"/>
  <path class="cls-13" d="M544.41,469.92c.12-1.08.24-2.16.36-3.24.35.02.7.04,1.05.06v3.23l-1.4-.06Z"/>
  <path class="cls-5" d="M520.41,818.27c-13.05,7.28-25.97,14.8-39.19,21.75-8.81,4.63-16.84,2.4-23.64-4.67-4.06-7.23-8.19-14.42-12.18-21.69-4.96-9.03-9.82-18.11-14.66-27.2-.34-.63-.17-1.53-.24-2.31,1.29.45,2.87.57,3.81,1.41,4.84,4.34,8.11,3.04,11.01-2.31.72-1.33,3.01-2.46,4.64-2.54,11.73-.59,23.49-1.32,35.22-1.15,9.14.13,19.07-2.03,26.57,6.05.57.62,2.09.36,3.92.61,0-2.98,0-5.48,0-7.99,1.48,1.78,3.2,3.41,4.39,5.36,4.15,6.83,5.94,14.29,6.85,22.29.6,5.29.4,7.95-5.95,6.73-.22,2.21-.39,3.94-.57,5.67Z"/>
  <path class="cls-28" d="M515.68,778.22v7.99c-1.83-.25-3.35,0-3.92-.61-7.5-8.08-17.43-5.92-26.57-6.05-11.73-.17-23.49.56-35.22,1.15-1.63.08-3.92,1.21-4.64,2.54-2.9,5.36-6.17,6.66-11.01,2.31-.94-.84-2.52-.96-3.81-1.41-.79-1.57-1.58-3.15-2.38-4.72-.79-1.19-1.57-2.37-2.36-3.56-1.58-2.37-3.15-4.73-4.73-7.1-1.57-2.37-3.14-4.74-4.72-7.11,0-.39,0-.78-.01-1.17,0-1.18,0-2.37,0-3.55,1.72.19,3.44.39,5.3.6.55-3.8,1.08-7.4,1.53-10.52,3.89,1.01,7.08,3.01,9.15,2.18,12.11-4.82,25.11-4.89,37.55-7.75,3.45-.79,7.83-1.02,9.93-3.25,2.18-2.31,2.83-2.32,5.51-1.3,2.73,1.04,6.13,3.77,9.08-.06,1.52,2.48,3.22,4.88,4.53,7.47,5.66,11.27,11.2,22.6,16.78,33.9Z"/>
  <path class="cls-28" d="M328.93,783.05c-.87-1.56-1.73-3.12-2.6-4.67,1.67-2.42,3.3-4.86,5.04-7.24,1.46-2,3.52-3.7,4.48-5.9,3.51-8.04,5.28-13.07,14.63-11.8,6.72.91,10.94-2.51,14.7-7.43,1.01-1.33,3.39-2.93,4.6-2.58,5.76,1.7,5.18-1.99,5.16-5.41,1.64,3.05,3.53,5.99,4.86,9.16,2.9,6.93,4.73,14.07,2.24,21.6-.4,1.18-.79,2.36-1.19,3.54-.39.79-.78,1.58-1.17,2.37-6.75,12.41-17.81,16.74-31.35,17.21-9.08.32-13.97-3.66-19.39-8.85Z"/>
  <path class="cls-27" d="M382.03,768.78c2.5-7.53.67-14.66-2.24-21.6-1.33-3.18-3.22-6.12-4.86-9.16-3.03-6.34-6.02-12.69-9.1-19.01-3.64-7.48-7.35-14.92-11.03-22.37.77-2.5.88-5.59,2.46-7.36,2.87-3.19,6.63-5.58,9.46-7.86,3.41,2.23,6.99,4.57,10.58,6.92.38.02.75.03,1.13.04.79,2.35,1.24,4.89,2.44,7.01,5.39,9.55,11,18.98,16.53,28.45,5.52,9.86,11.03,19.71,16.55,29.57,0,1.18,0,2.36.01,3.53,0,0-.02.02-.02.02-3.42-3.32-7.15-6.38-10.18-10.03-5.3-6.38-12.31-7.17-19.88-7.92.83,6.06.6,11.62,2.48,16.32,2.53,6.32-1.02,9.6-4.34,13.46Z"/>
  <path class="cls-27" d="M416.33,761.66c1.57,2.37,3.14,4.74,4.72,7.11-1.57-2.37-3.14-4.74-4.72-7.11Z"/>
  <path class="cls-27" d="M416.33,756.94c0,1.18,0,2.37,0,3.55-.79-1.18-1.58-2.36-2.37-3.54,0,0,.02-.02.02-.02.78,0,1.57,0,2.35.01h0Z"/>
  <path class="cls-5" d="M425.78,775.87c.79,1.18,1.57,2.37,2.36,3.56-.79-1.18-1.57-2.37-2.36-3.56Z"/>
  <path class="cls-27" d="M379.66,774.69c.39-.79.78-1.58,1.17-2.37-.39.79-.78,1.58-1.17,2.37Z"/>
  <path class="cls-28" d="M342.5,795.7c-.13.3-.2.77-.41.85-.22.08-.58-.21-.88-.34.13-.3.2-.77.41-.85.22-.08.58.21.89.34Z"/>
  <path class="cls-28" d="M655.21,612.59c-5.48,7.28-11.15,14.43-16.34,21.91-2.4,3.45-.24,7.33,4.26,7.93,13.77,1.84,27.58,3.44,41.37,5.1,15.48,1.87,30.96,3.7,46.44,5.55-1.88,3.36-4.62,4.29-8.56,4.73-18.88,2.14-36.21,7.38-50.72,21.25-9.74,9.3-18.12,19.33-25.71,30.25-6,8.62-11.96,17.26-18.04,25.82-.84,1.18-2.26,1.95-3.41,2.91-8.23,1.85-12.77,7.88-16.64,16.44-.69-2.71-.8-4.6-1.25-4.68-6.67-1.23-9.43-8.44-15.09-10.27-4.69-1.52-8.16-2.24-7.34-8.06.1-.68-.62-1.48-1.65-3.74-1.03,4.21-3,7.45-2.13,9.49,4.08,9.59.8,15.98-10.46,17.45-1.51.2-3.84,1.2-4.15,2.3-1.23,4.34-1.81,8.86-2.66,13.5-1.83-1.05-4.64-2.66-7.44-4.27.15-.96.08-2.03.47-2.88,4.99-10.79,10.12-21.52,15.07-32.33,3.22-7.04,6.21-14.19,9.46-21.63-1.82-.41-2.55-.64-3.31-.73-9.69-1.14-19.36-2.34-29.06-3.36-12.45-1.31-24.91-2.47-37.37-3.69-3.9-.57-7.8-1.13-11.69-1.7.21-.8.43-1.59.64-2.39,0,0,.01.1.01.1,1.41-2.42,2.83-4.84,4.24-7.26l-.06-.22c2.01.35,4.03.7,7.22,1.25,5.03-3.58,11.41-7.97,17.64-12.56,14.44-10.64,29.19-20.93,43.09-32.24,9.66-7.86,18.68-16.67,26.98-25.97,9.96-11.16,18.82-23.31,28.21-34.99,5.29-6.58,10.94-12.89,15.97-19.67,10.36-13.96,19.17-29.38,36.49-36.34.49-.2.82-.76,1.25-1.12,3.36-2.74,6.38-6.18,10.17-8.01,4.29-2.07,6.37-4.87,6.75-9.34,2.61-.02,5.22-.04,7.84-.06,5.89.75,11.79,1.5,18.21,2.32-1.16,2.35-1.67,3.87-2.56,5.12-12.7,17.89-25.54,35.69-38.17,53.62-9.45,13.41-18.65,26.98-27.97,40.48Z"/>
  <path class="cls-5" d="M555.67,766.19c2.8,1.61,5.61,3.22,7.44,4.27.85-4.63,1.43-9.16,2.66-13.5.31-1.1,2.64-2.1,4.15-2.3,11.26-1.48,14.53-7.87,10.46-17.45-.87-2.04,1.1-5.28,2.13-9.49,1.03,2.26,1.75,3.06,1.65,3.74-.82,5.82,2.65,6.54,7.34,8.06,5.66,1.84,8.42,9.04,15.09,10.27.45.08.56,1.98,1.25,4.68,3.87-8.57,8.41-14.6,16.64-16.44-1.97,4.1-3.51,8.49-5.98,12.27-12.06,18.43-24.47,36.62-36.54,55.05-10.04,15.32-20.02,30.69-29.57,46.31-11,17.99-21.47,36.29-32.25,54.42-1.19,2-3.16,3.56-4.21,5.61-1.89,3.7-3.28,7.66-5.04,11.44-1.02,2.2-2.21,4.33-3.53,6.36-8.08,12.48-18.54,23.5-23.41,37.96-.24.73-.18,1.56-.27,2.34-6.42,5.39-12.96,10.66-19.2,16.26-1.9,1.7-2.97,4.33-4.36,6.42-2.52-4.12-2.04-2.21,4.68-19.97.84,1.47,1.5,2.62,2.16,3.78.49-.15.99-.31,1.48-.46-.76-3.52-1.53-7.04-2.29-10.56,2.74-5.6,5.64-11.13,8.18-16.82,4.72-10.6,9.22-21.29,13.99-32.38.64.89,1.3,1.8,2.5,3.48.35-2.02,1.39-4.29.76-4.94-3.31-3.39-.74-6.15.56-8.99,4.11-8.99,8.5-17.87,12.41-26.95,1.09-2.52.89-5.59,1.29-8.41,4.53-10.82,9.03-21.66,13.61-32.46,2.98-7.02,6.13-13.96,9.09-20.99.39-.94.13-2.15.17-3.23,2.99-2.72,5.72-5.84,9.04-8.07,4.28-2.89,7.14-5.77,5.58-11.53-.67-2.49.21-5.38.33-8.09.15-3.23,1.62-7.64.07-9.44-2.99-3.48-2.32-5.59-.11-8.61.65-.89.31-2.5.43-3.78,1.21,3.64,2.43,7.28,3.51,10.52,1.14-1.79,2.42-3.83,3.71-5.87.4-.06.76.03,1.08.28.35-.08.7-.15,1.06-.23l.05-.04c.34-.38.68-.76,1.02-1.14.39-.45.79-.9,1.18-1.35Z"/>
  <path class="cls-12" d="M721.55,671.78c-.88,1.14-1.76,2.29-2.64,3.43.88-1.14,1.76-2.29,2.64-3.43Z"/>
  <path class="cls-12" d="M709.53,686.92c-.83,1.21-1.65,2.41-2.48,3.61.83-1.21,1.65-2.41,2.48-3.61Z"/>
  <path class="cls-10" d="M470.72,617.3c.61-.6,2.47-10.55,2.45-11.73-.08-4.12-3.83-8.06-.29-12.51.73-.91-.68-3.53-1.19-5.75,1.3.15,2.73.37,4.16.48,8.89.65,17.35.02,25.03-5.59,2.2-1.61,6.08-.85,9.14-1.41,1.6-.29,3.52-.68,4.59-1.74,2.21-2.17,3.67-5.15,5.97-7.19,2.81-2.5,6.17-4.37,9.29-6.52,2.37.79,4.73,1.57,7.1,2.36,3.94,1.58,7.76,3.92,11.84,4.58,7.53,1.22,10.93,6.19,8.19,13.32-2.71,7.05-7.8,10.45-15.34,10.56-1.61.02-3.48.58-4.75,1.53-4.84,3.6-9.49,7.47-14.45,11.42.51.73,1.66,2.36,2.8,3.98-3.95,2.63-7.91,5.26-11.86,7.89-10.9,5.92-21.8,11.83-32.7,17.75-.66-1.69-1.23-3.43-2.01-5.06-2.62-5.48-5.31-10.92-7.97-16.38Z"/>
  <path class="cls-24" d="M470.72,617.3c2.66,5.46,5.36,10.9,7.97,16.38.78,1.63,1.35,3.37,2.01,5.06-8.61,4.77-17.2,9.59-25.85,14.3-2.8,1.52-4.78,3.25-3.25,6.76-1.9-3.49-3.8-6.99-5.71-10.48-2.73-5.39-5.2-10.93-8.26-16.12-2.8-4.73-6.24-9.07-9.4-13.59-.02-.74-.03-1.49-.05-2.23-.38-.8-.77-1.59-1.15-2.39-.4-.79-.8-1.58-1.19-2.37l-2.33-2.49c-1.61-4.69-3.21-9.38-4.82-14.07.31-3.79.62-7.59.87-10.56,6.5-5.58,13.66,6.48,20.06-2.74,2.01,1.98,3.71,4.02,5.77,5.59,3.58,2.74,7.38,5.18,11.09,7.75,4,6.28,7.98,12.58,12.02,18.83.58.89,1.48,1.58,2.23,2.36Z"/>
  <path class="cls-13" d="M340.56,622.11c-1.5-8.5,1.41-14.07,9.55-18.09,14.47-7.14,28.42-15.35,42.63-23.02,1.49-.8,3.26-1.06,4.9-1.57,2.32,1.6,4.65,3.19,6.98,4.78-6.97,1.26-1.33,8.32-5.49,10.48-2.32.56-5.92,1.66-5.93,2.81-.08,6.5-4.3,5.8-8.46,5.7-2.68-.07-5.37-.01-7.82-.01-2.24,9.52-9.68,13.98-18.8,12.2-.9-.17-2.55.39-2.9,1.09-1.88,3.79-3.32,7.81-5.23,11.59-.71,1.4-2.29,2.36-3.48,3.52-.38-.01-.75-.03-1.13-.05-1.61-3.14-3.22-6.29-4.82-9.43Z"/>
  <path class="cls-19" d="M404.63,584.21c-2.33-1.59-4.66-3.19-6.98-4.78,7.19-4.18,14.54-6.08,23.2-5.17,14.78,1.56,25.75,8.83,34.93,19.74.44.53.47,1.41.69,2.12-3.71-2.57-7.51-5.01-11.09-7.75-2.06-1.57-3.75-3.61-5.77-5.59-6.4,9.22-13.56-2.84-20.06,2.74-.24,2.97-.55,6.77-.87,10.56-.87-.88-1.68-1.82-2.61-2.63-3.69-3.23-4.65-9.87-11.45-9.23Z"/>
  <path class="cls-21" d="M340.56,622.11c1.61,3.14,3.22,6.29,4.82,9.43-1.29.67-2.57,1.34-3.8,1.98-2.39-3.11,1.83-9.77-5.69-9.04-.14-.08-.29-.16-.43-.24.15.08.29.16.44.24,0,11.53-2.07,14.73-10.67,16.56-4.89-5.29-9.49-10.95-16.94-12.86,9.71-11.1,17.38-12.66,30.55-6.29.5.24,1.15.15,1.73.21Z"/>
  <path class="cls-6" d="M536.96,567.7c-2.37-.79-4.73-1.57-7.1-2.36-3.15,0-6.31,0-9.46,0-.79,0-1.58,0-2.37-.01,0-.78,0-1.56,0-2.34,1.13-.13,2.26-.26,3.4-.39-.01-.27-.03-.54-.04-.81h-3.34c-1.98-.28-4.26-1.31-5.88-.67-3.85,1.53-6.15-.04-8.3-2.78,9.25,1.13,18.51,2.27,27.76,3.38,10.96,1.32,21.92,2.61,32.89,3.91,3.99,1.15,7.98,2.3,12.95,3.74-4.98,7.54-9.74,14.74-14.5,21.93-4.27-5.37,1.93-8.01,3.54-12.64-2.62-3.4-5.08-9.66-8.3-10.08-5.71-.74-11.63-5.38-17.78-1.14-.83.57-2.3.21-3.47.27Z"/>
  <path class="cls-9" d="M439.26,569.73c-3.31.99-6.62,1.97-9.93,2.96-.22-.81-.45-1.62-.67-2.44,3.38-.93,6.76-1.86,10.14-2.79.15.76.31,1.51.46,2.27Z"/>
  <path class="cls-9" d="M298.07,586.59c.05-3.52.1-7.04.15-10.55,3.86,1.5,3.79,6.84-.15,10.55Z"/>
  <path class="cls-10" d="M518.04,565.33c.79,0,1.58,0,2.37.01-2.74.93-5.47,1.86-8.21,2.79-.17-.82-.35-1.63-.52-2.45,2.12-.12,4.24-.23,6.37-.35Z"/>
  <path class="cls-10" d="M518.05,561.78h3.34c.01.27.03.54.04.81-1.13.13-2.26.26-3.4.39,0-.4,0-.8.01-1.2Z"/>
  <polygon class="cls-21" points="306.32 629.04 306.19 629.03 306.31 628.77 306.32 629.04"/>
  <path class="cls-2" d="M354.8,696.63c3.68,7.46,7.39,14.9,11.03,22.37,3.07,6.32,6.07,12.67,9.1,19.01.01,3.42.6,7.11-5.16,5.41-1.21-.36-3.58,1.25-4.6,2.58-3.76,4.92-7.97,8.34-14.7,7.43-9.34-1.27-11.12,3.77-14.63,11.8-.96,2.2-3.02,3.9-4.48,5.9-1.73,2.37-3.36,4.82-5.04,7.24-8.7-15.72-17.39-31.44-26.09-47.15,5.02.11,8.3-.98,8.82-7.26.69-8.33,8.4-7.73,14.21-9.51,8.68-2.67,17.31-5.53,25.81-8.71,4.94-1.85,3.01-6.6,3.37-10.3.79.39,1.57.79,2.36,1.18Z"/>
  <path class="cls-26" d="M889.41,432.88c.12,1.36.14,2.75.38,4.09,1.18,6.56-1.27,9.82-7.79,10.08-10.97.44-21.95.74-32.92,1.25-2.1.1-4.17.83-6.24,1.35-5.82,1.48-11.67,2.85-17.4,4.61-1.72.53-4.14,2-4.42,3.4-.88,4.49-3.65,5.11-7.33,4.8,0,0,0-.01,0-.01-1.17-1.19-2.34-2.38-3.5-3.57-4.34-7.88-8.69-15.76-13.03-23.64v-9.23c-.57-.03-1.15-.06-1.72-.09.86-1.49,2.24-2.91,2.48-4.49.65-4.4,3.55-4.7,7.13-5.28,3.38-.55,6.47-2.74,9.84-3.61,5.88-1.52,10.93-6.86,18.09-3.04,2.45,1.31,6.34.08,9.55-.22,1.89-.17,3.95-1.53,5.56-1.07,7.88,2.27,15.64,4.98,23.4,7.52,1.54-2.13,2.93-4.06,5.01-6.93,4.63,8.62,8.78,16.35,12.93,24.07Z"/>
  <path class="cls-28" d="M797.15,435.24c4.34,7.88,8.69,15.76,13.03,23.64,1.17,1.19,2.34,2.38,3.5,3.57,0,0,0,.01,0,.01,0,1.57.02,3.13.03,4.7-4-.72-7.98-1.58-12.01-2.13-5.59-.76-11.16,3.76-11.67,9.23-1.57-1.58-3.14-3.16-4.71-4.75-.54-1.86-.8-3.85-1.66-5.54-4.5-8.84-9.16-17.59-13.76-26.38,0-.77,0-1.55,0-2.32,1.49-2.49,3.28-4.85,4.39-7.5,1.6-3.84,6.02-7.24,2.27-12.24-.43-.57.62-2.25.98-3.41,1.04.51,2.09.99,3.11,1.54,1.58.85,3.13,1.75,4.7,2.63,3.93,6.32,7.86,12.63,11.79,18.95Z"/>
  <path class="cls-29" d="M785.36,416.3c-1.56-.88-3.12-1.78-4.7-2.63-1.02-.55-2.07-1.03-3.11-1.54-.36,1.16-1.41,2.84-.98,3.41,3.75,4.99-.67,8.4-2.27,12.24-1.1,2.65-2.9,5.01-4.39,7.5-.39-.01-.78-.02-1.16-.03-1.57-2.37-3.14-4.74-4.71-7.12-3.38-7.14-6.59-14.37-10.21-21.39-1.71-3.33-4.19-6.26-6.32-9.37-1.58-2.36-3.15-4.72-4.73-7.08.24-2.36-5.64-4.73.01-7.08,1.49.56,3.95.76,4.31,1.74,1.35,3.62,2.79,2.72,5.66,1.57,4.3-1.73,9.07-2.28,13.64-3.33.77.02,1.54.04,2.31.06,4.96,9.4,9.95,18.79,14.86,28.23.78,1.5,1.19,3.2,1.78,4.81Z"/>
  <path class="cls-6" d="M625.74,501.05c-4.16-1.01-8.32-2.03-13.64-3.32,1.93-10.79,7.2-20.76,12.21-30.81,1.27,1.83,2.53,3.65,4.45,6.41,1.56-3.43,2.81-6.17,4.48-9.83.53,3.6.92,6.22,1.3,8.83.59-.04,1.17-.09,1.76-.13,0-2.03-.37-4.15.08-6.08.9-3.87,1.13-9.61,3.65-11.03,4.77-2.71,10.96-2.92,16.27-4.11,1.19,2.37,2.24,4.46,3.3,6.56,1.3-1.12,2.61-2.23,3.91-3.35,3.69-.32,3.61,2.18,3.5,4.7-1.02.74-2.05,1.48-3.07,2.21.93.84,1.95,1.59,2.76,2.53,1,1.16,2.11,2.37,2.64,3.76,1.02,2.64,1.77,5.4,2.43,8.16.86,3.6,1.53,7.24,2.43,11.55.59-.82,2.05-1.95,2.17-3.21.33-3.49.1-7.03.09-10.55.77.72,1.54,1.44,2.31,2.17,0,0,.02.02.02.02,1.53,3.19,3.06,6.38,4.58,9.57h.01c.8,2.13,1.61,4.25,2.41,6.37,2.47,4.5,4.94,9,7.41,13.5,1.52,6.18-4.84,2.01-6.05,4.61-7.81-1.25-15.6-2.65-23.44-3.71-12.65-1.72-25.32-3.22-37.99-4.81ZM664.07,466.81c-.5.03-1,.05-1.5.08.08,1.8.17,3.59.25,5.39.42-.03.84-.05,1.25-.08v-5.39Z"/>
  <path class="cls-7" d="M663.51,454.19c-1.3,1.12-2.61,2.23-3.91,3.35-1.05-2.1-2.11-4.19-3.3-6.56-5.31,1.19-11.5,1.4-16.27,4.11-2.52,1.43-2.75,7.16-3.65,11.03-.45,1.93-.08,4.05-.08,6.08-.59.04-1.17.09-1.76.13-.39-2.62-.77-5.24-1.3-8.83-1.67,3.66-2.92,6.4-4.48,9.83-1.91-2.76-3.18-4.59-4.45-6.41,7.39-18.45,14.79-36.9,22.17-55.36,5.36-13.42,10.68-26.86,16.08-40.26.38-.93,1.36-1.62,2.06-2.42.83,2.3,1.52,4.67,2.56,6.88.47,1,1.63,1.68,2.47,2.51.68-.79,1.48-1.51,2.02-2.39.91-1.45,1.66-2.99,2.47-4.5.78.79,1.57,1.57,2.35,2.36,0,.79,0,1.58.01,2.37,1.32.69,2.59,1.76,3.99,1.98,2.65.41,5.5-.1,8.02.63,1.37.4,3.33,2.73,3.15,3.9-.98,6.34-1.55,13.21-10.82,15.53,2.66,2.13,4.58,3.66,7.51,5.99-4.15,1-7.68,2.11-11.29,2.65-4.1.61-9.19,7.12-10.05,13.02-.38,2.6-1.36,5.13-2.15,7.66-2.75,8.79-3.39,17.69-1.35,26.72Z"/>
  <path class="cls-19" d="M678.78,475.51c-.77-.72-1.54-1.44-2.31-2.17-1.73-5.21-3.46-10.43-5.19-15.64-3.39-13.79-1.44-26.51,5.66-39.08,2.9-5.14,5-9.22,11.29-9.38.86,1.57,1.72,3.14,2.58,4.7,3.1,5.93,6.19,11.85,9.29,17.78,3.96,7.49,7.91,14.98,11.87,22.47.4.78.8,1.56,1.2,2.34.39.8.78,1.59,1.17,2.39,1.21,3.13,2.42,6.27,3.62,9.4-4.01-1.63-8.02-3.26-12.44-5.05-1.01,5.36-4.93,4.24-8.86,2.52-2.51-1.1-4.74-3.18-7.32-3.66-1.96-.36-5.35.46-6.19,1.88-2.05,3.48-2.98,7.61-4.37,11.49Z"/>
  <path class="cls-13" d="M690.81,413.94c-.86-1.57-1.72-3.14-2.58-4.7,6.16-3.74,12.17-7.75,18.51-11.15,9.97-5.34,20.16-10.25,30.22-15.41.53-.27.71-1.25,1.05-1.9,1.62-1.1,3.24-2.2,4.86-3.31,0,0,.11,0,.11,0,1.57-.39,3.14-.79,4.71-1.18-1.63,2.31-3.26,4.63-4.89,6.94-5.65,2.35.23,4.72-.01,7.08-3.02-.5-6.36-2.08-8.98-1.28-5.89,1.79-11.5,4.59-17.06,7.32-3.01,1.48-5.65,3.71-8.52,5.48-1.75,1.08-3.64,1.93-5.47,2.89,1.92.92,3.85,1.81,5.74,2.78.19.1.14.68.36,1.89-3.7-.42-7.16-.81-10.89-1.23.89,5.87-2.79,6.28-7.16,5.8Z"/>
  <path class="cls-7" d="M671.28,457.7c1.73,5.21,3.46,10.43,5.19,15.64,0,3.52.24,7.06-.09,10.55-.12,1.26-1.58,2.39-2.17,3.21-.9-4.32-1.57-7.96-2.43-11.55-.66-2.76-1.42-5.52-2.43-8.16-.54-1.39-1.65-2.6-2.64-3.76-.81-.94-1.83-1.69-2.76-2.53,1.02-.74,2.05-1.48,3.07-2.21,1.42-.4,2.84-.79,4.27-1.19Z"/>
  <path class="cls-11" d="M676.52,376.11c0-.79,0-1.58-.01-2.37-.39-1.36-.78-2.72-1.17-4.08-.39.57-.79,1.15-1.18,1.72-.82,1.5-1.57,3.05-2.47,4.5-.55.87-1.34,1.6-2.02,2.39-.84-.83-2-1.51-2.47-2.51-1.04-2.21-1.72-4.58-2.56-6.88.48-1.12.96-2.23,1.44-3.35,1.61.98,3.21,1.96,5.27,3.22.18-1.85.31-3.16.44-4.48,2.15-.64,4.95-3.12,6.11.53,1.18,3.71,3.19,8.06-1.37,11.3Z"/>
  <path class="cls-6" d="M679.15,331.19c2.75-5.91,5.51-11.82,8.26-17.73-.12,7.13-2.45,13.45-7.01,18.94-.42-.4-.83-.8-1.25-1.2Z"/>
  <path class="cls-7" d="M671.78,364.28c-.13,1.31-.26,2.62-.44,4.48-2.06-1.26-3.66-2.24-5.27-3.22,1.09-2.86,2.18-5.72,3.27-8.58.81,2.44,1.63,4.89,2.44,7.33Z"/>
  <path class="cls-7" d="M742.87,377.47c-1.62,1.1-3.24,2.2-4.86,3.31-1.16-.85-2.32-1.7-3.48-2.55.13-.62.25-1.24.38-1.86,2.65.37,5.31.74,7.96,1.11Z"/>
  <path class="cls-27" d="M790.05,474.27c.51-5.48,6.07-9.99,11.67-9.23,4.02.55,8.01,1.41,12.01,2.13,6.3,10.65,12.61,21.29,18.91,31.94,5.52,10.06,11.06,20.1,16.55,30.18.92,1.7,1.6,3.52,2.39,5.29,1.57,3.16,3.14,6.32,4.71,9.48-1.29-1.04-2.64-2.01-3.86-3.12-1.76-1.6-3.31-3.44-5.15-4.92-2.37-1.9-5.28-2.9-4.42-7.24.69-3.46-5.15-5.51-8.98-2.67-3.42,2.54-6.45,2.87-10.35,1.77-4.41-1.24-7.06,2.13-7.73,5.45-1.14,5.66-2.84,9.91-9.25,10.92-1.22.19-2.49,1.9-3.19,3.21-4.95,9.34-11.79,17.13-21.06,21.93-3.65,1.89-8.96.55-13.52.68,2.14-2.03,5.75-3.82,6.12-6.13.97-6.06,5.45-6.78,9.71-8.4,11.65-4.42,19.6-12.39,23.18-24.48,2.78-11.26.61-21.72-4.82-31.77-4.45-8.26-8.62-16.66-12.92-25.01Z"/>
  <path class="cls-29" d="M909.29,487.32c-.24-1.27-.47-2.55-.71-3.82.46-.1.92-.2,1.38-.29.33,1.34.67,2.67,1,4.01-.56.04-1.11.07-1.67.11Z"/>
  <path class="cls-28" d="M354.8,696.63c-.79-.39-1.57-.79-2.36-1.18-5.97-11.83-11.82-23.72-17.95-35.46-2.36-4.52-5.36-8.72-8.06-13.06-.4-1.96-.81-3.92-1.21-5.89,8.6-1.83,10.66-5.04,10.67-16.56h0c7.53-.73,3.3,5.92,5.69,9.04,1.23-.64,2.52-1.31,3.8-1.98.38.02.75.04,1.13.05,3.55,6.31,7.1,12.61,10.65,18.92.78.8,1.57,1.6,2.35,2.4,0,.38,0,.77.02,1.15.69,2.16,1.06,4.5,2.12,6.45,5.11,9.33,10.41,18.56,15.64,27.83-3.58-2.34-7.17-4.69-10.58-6.92-2.83,2.27-6.59,4.67-9.46,7.86-1.59,1.76-1.69,4.86-2.46,7.36Z"/>
  <path class="cls-24" d="M544.06,764.03c-.11,1.28.22,2.9-.43,3.78-2.21,3.02-2.88,5.13.11,8.61,1.55,1.8.08,6.21-.07,9.44-.12,2.71-1,5.61-.33,8.09,1.55,5.77-1.3,8.65-5.58,11.53-3.32,2.24-6.05,5.35-9.04,8.07-2.77,1.57-5.54,3.14-8.3,4.71.17-1.73.35-3.46.57-5.67,6.35,1.22,6.55-1.45,5.95-6.73-.91-7.99-2.7-15.45-6.85-22.29-1.19-1.95-2.91-3.58-4.39-5.36-5.58-11.31-11.12-22.63-16.78-33.9-1.3-2.59-3.01-4.99-4.53-7.47-.7-1.71-1.39-3.43-2.09-5.14,9.34-5.46,18.67-10.92,28.01-16.39,1.17.98,2.79,1.72,3.45,2.97,7.36,13.97,14.57,28.02,21.82,42.05l-1.49,3.68Z"/>
  <path class="cls-8" d="M625.74,501.05c12.66,1.59,25.34,3.09,37.99,4.81,7.84,1.06,15.63,2.46,23.44,3.71,3.56.51,7.12,1.02,10.69,1.53-.38,4.47-2.46,7.27-6.75,9.34-3.8,1.83-6.82,5.27-10.17,8.01-.44.36-.77.92-1.25,1.12-17.32,6.96-26.13,22.39-36.49,36.34-5.03,6.77-10.68,13.08-15.97,19.67-9.39,11.68-18.25,23.83-28.21,34.99-8.29,9.29-17.32,18.11-26.98,25.97-13.9,11.31-28.65,21.59-43.09,32.24-6.23,4.59-12.6,8.98-17.64,12.56-3.19-.55-5.2-.9-7.22-1.25,7.35-12.15,14.81-24.24,22.03-36.47,9.79-16.59,19.4-33.3,29.08-49.95,0,0,0-.03,0-.03.29-.51.58-1.03.88-1.54l-.04.09c.75-1.22,1.5-2.45,2.25-3.67.42-.78.85-1.56,1.27-2.34,0,0-.13,0-.13,0,.4-.37.81-.73,1.21-1.1.78-1.26,1.56-2.52,2.34-3.78,4.76-7.2,9.52-14.4,14.5-21.93-4.97-1.44-8.96-2.59-12.95-3.74,4.79-3.43,9.75-3.14,14.96-.95,3.43,1.45,5.96.44,5.93-3.7-.03-4.94-.54-9.87-.56-14.81,0-2.23.4-4.55,1.1-6.68,2.46-7.51.72-12.08-5.8-14.12.4-.45.7-1.13,1.09-1.19,8.97-1.34,10.33-3.26,8.63-12.32-1.21-6.47-.96-6.7,5.44-5.82,3.78.52,7.58.84,12.07,1.32.1-.7.3-2.1.51-3.51,1.42-.44,3.98-1.47,4.1-1.25,4.7,9.19,4.65.49,6.24-1.55h7.51Z"/>
  <path class="cls-26" d="M278.66,682.15c-.13.31-.2.79-.43.88-.22.09-.6-.22-.91-.35.13-.31.2-.79.42-.88.22-.09.6.22.91.35Z"/>
  <path class="cls-21" d="M742.8,383.22c1.63-2.31,3.26-4.63,4.89-6.94,3.74.35,7.49.65,11.22,1.08,2.09.24,4.16.7,6.24,1.07.42,1.59.84,3.19,1.26,4.78-4.57,1.05-9.35,1.6-13.64,3.33-2.87,1.16-4.31,2.06-5.66-1.57-.37-.98-2.82-1.18-4.31-1.74Z"/>
  <path class="cls-5" d="M468.39,991.14c-.65-.31-1.5-.48-1.87-.99-.31-.42-.06-1.26.92-2.11.31,1.03.63,2.07.94,3.1h0Z"/>
  <path class="cls-1" d="M318.16,509.78c.4,8.75.81,17.5,1.21,26.25-.4.03-.8.07-1.2.1-1.38-1.93-2.77-3.86-4.32-6.02-3.77,3.36,1.51,11.1-6.36,11.56-1.19-11.18,5-20.55,7.65-30.79.15-.59,1.98-.75,3.02-1.11Z"/>
  <path class="cls-25" d="M300.42,565.34c-.38.79-.75,1.58-1.13,2.37.38-.79.75-1.58,1.13-2.37Z"/>
  <path class="cls-19" d="M807.79,531.05c-3.57,12.09-11.52,20.07-23.18,24.48-4.26,1.62-8.75,2.34-9.71,8.4-.37,2.31-3.98,4.1-6.12,6.13-6.08,3.14-12.23,6.16-18.21,9.48-1.76.98-3.02,2.83-4.6,4.19-3.56,3.06-.12,6.71-.92,10-2.29-3.16-4.57-6.31-6.85-9.46,10.27-6.17,20.53-12.33,31.52-18.93-4.9-9.61-9.98-19.58-15.06-29.55,1.4-.09,2.8-.18,4.35-.28,1.16,3.36,2.32,6.71,3.5,10.04.03.09.32.09.73.19.61-1.21,1.24-2.46,1.88-3.72.71,0,1.42-.01,2.13-.02.22,2.15.41,4.31.66,6.46.13,1.15-.03,2.66.63,3.34.79.82,2.6,1.55,3.44,1.17.85-.39,1.39-2.17,1.47-3.37.2-3.12.07-6.27.07-9.41.79,0,1.58.02,2.36.02,0,2.19-.19,4.4.07,6.56.17,1.4.59,3.32,1.58,3.96,3.36,2.17,15.64-3.28,17.99-6.45,3.55-4.81,8.14-8.86,12.29-13.23Z"/>
  <path class="cls-3" d="M754.65,535.79c5.08,9.97,10.16,19.94,15.06,29.55-10.98,6.6-21.25,12.76-31.52,18.93-11.13,4.56-22.57,8.5-33.28,13.88-8.34,4.2-15.67,10.38-23.66,15.33-3.42,2.11-7.33,3.5-11.13,4.9-3.04,1.12-6.26,1.76-10.27,2.85-.26-3.24-.52-6.59-.8-10.11-1.15.44-2.5.95-3.85,1.47,9.31-13.5,18.52-27.07,27.97-40.48,12.64-17.94,25.47-35.73,38.17-53.62.89-1.25,1.4-2.77,2.56-5.12-6.42-.82-12.32-1.57-18.21-2.32-2.04-.46-4.17-.71-6.07-1.52-.51-.22-.31-2.12-.43-3.25,3.61-1.85,7.21-3.73,10.84-5.55,6.57-3.3,13.16-6.56,19.74-9.84,4.84,8.61,9.67,17.21,14.51,25.82,3.46,6.36,6.91,12.72,10.37,19.08Z"/>
  <path class="cls-12" d="M771.12,642.21c-.39,0-.78,0-1.17,0,.19-.48.39-.96.58-1.44.19.48.39.96.58,1.44Z"/>
  <path class="cls-14" d="M532.45,454.36c-.47.56-.94,1.13-1.41,1.69l-.69-.69c.56-.47,1.12-.94,1.69-1.41.14.14.28.28.42.41Z"/>
  <path class="cls-14" d="M525,481.38c-.32.49-.64.98-.96,1.47.32-.49.64-.98.96-1.47Z"/>
  <path class="cls-21" d="M624.25,419.37l3.09-3.25c.46.4.91.81,1.37,1.21-.94,1.12-1.87,2.25-2.81,3.37-.55-.44-1.1-.89-1.64-1.33Z"/>
  <path class="cls-21" d="M605.6,452.39c-.5.46-.87.8-1.23,1.13-.32-.38-.89-.76-.89-1.14,0-.38.58-.76.9-1.14.36.34.72.67,1.22,1.14Z"/>
  <path class="cls-29" d="M492.28,731.71c.7,1.71,1.39,3.43,2.09,5.14-2.95,3.83-6.35,1.1-9.08.06-2.68-1.02-3.34-1.01-5.51,1.3-2.1,2.23-6.48,2.45-9.93,3.25-12.44,2.86-25.44,2.92-37.55,7.75-2.07.82-5.26-1.17-9.15-2.18-.45,3.12-.98,6.72-1.53,10.52-1.85-.21-3.58-.4-5.3-.6,0,0,0,0,0,0-.79-1.18-1.58-2.36-2.36-3.54-5.52-9.86-11.03-19.71-16.55-29.57,1.69-.35,4.02-.12,4.95-1.16,3.26-3.59,6.7-3.26,11.14-2.79,4.18.43,9.58.74,12.17-4.81.47-1.01,2.52-1.66,3.91-1.81,14.17-1.52,28.36-2.85,42.54-4.35,3.93-.42,5.12,1.21,4.25,5.09,1.41-.37,2.7-.71,3.99-1.04v.14c.79,1.13,1.57,2.26,2.36,3.39v.18c.5.71.99,1.43,1.48,2.14l-.15-.03c.31.47.62.94.93,1.42l.03.11c.86,1.92,1.73,3.85,2.59,5.77,1.56,1.88,3.12,3.76,4.68,5.64Z"/>
  <path class="cls-8" d="M377.3,688.33c-5.23-9.27-10.53-18.5-15.64-27.83-1.07-1.95-1.43-4.29-2.12-6.45,6.05,2.05,8.65-.07,8.52-6.49-.04-2.2.85-4.58,4.55-3.52,2.5.71,5.52.6,8.07-.07,3.12-.82,5.87-3.32,8.98-3.84,9.57-1.59,19.26-2.48,28.87-3.9,2.05-.3,5.11-1.18,5.71-2.62,1.85-4.45,2.74-9.3,4-14,3.16,4.51,6.6,8.86,9.4,13.59,3.07,5.19,5.53,10.73,8.26,16.12-1.17,1.98-2.69,3.86-3.26,5.99-.16.6,2.5,1.95,4.43,3.36,0,3.19,0,7.12,0,11.04.01,8.04.12,8.14,8.54,7.54.28,2.59.57,5.2.84,7.63-2.94-1.45-5.11-3.4-7.36-3.48-9.55-.35-19.2-.91-28.67.04-12.49,1.24-25.84,2.02-31.11,18.2-1.61-1.81-3.45-2.9-3.55-4.14-.39-4.73-3.37-6.32-7.33-7.13-.38,0-.76-.02-1.13-.04Z"/>
  <path class="cls-2" d="M378.44,688.37c3.96.8,6.94,2.4,7.33,7.13.1,1.24,1.93,2.34,3.55,4.14,5.28-16.18,18.63-16.96,31.11-18.2,9.47-.94,19.12-.39,28.67-.04,2.25.08,4.42,2.03,7.36,3.48-.27-2.43-.56-5.05-.84-7.63-8.43.6-8.53.5-8.54-7.54,0-3.92,0-7.85,0-11.04-1.93-1.41-4.59-2.76-4.43-3.36.57-2.14,2.1-4.02,3.26-5.99,1.9,3.49,3.8,6.99,5.71,10.48,2.98,5,6.18,9.89,8.91,15.02,6.73,12.65,13.24,25.41,19.85,38.13-1.29.34-2.58.68-3.99,1.04.86-3.88-.33-5.5-4.25-5.09-14.17,1.5-28.37,2.83-42.54,4.35-1.39.15-3.44.8-3.91,1.81-2.59,5.55-7.99,5.24-12.17,4.81-4.44-.46-7.88-.8-11.14,2.79-.94,1.03-3.26.81-4.95,1.16-5.53-9.47-11.13-18.9-16.53-28.45-1.2-2.12-1.65-4.66-2.44-7.01Z"/>
  <path class="cls-28" d="M413.96,753.39c.79,1.18,1.58,2.36,2.36,3.54-.78,0-1.57,0-2.35-.01,0-1.18,0-2.36-.01-3.53Z"/>
  <path class="cls-3" d="M480.36,712.94c-6.6-12.72-13.12-25.48-19.85-38.13-2.73-5.13-5.92-10.02-8.91-15.02-1.53-3.51.45-5.24,3.25-6.76,8.64-4.71,17.23-9.53,25.85-14.3,10.9-5.92,21.8-11.83,32.7-17.75,2.53-.18,5.41.38,7.52-.66,6.82-3.37,13.36-7.31,20.61-11.37-.52,3.92-1.05,7.86-1.74,13.07,5.89-7.01,10.66-12.68,15.42-18.36-9.68,16.66-19.29,33.36-29.08,49.95-7.22,12.23-14.68,24.32-22.03,36.47,0,0,.06.22.06.22-1.41,2.42-2.83,4.84-4.25,7.26,0,0-.01-.1-.01-.09-.21.8-.43,1.59-.65,2.39,3.9.57,7.8,1.13,11.69,1.7-2.86,1.65-5.73,3.3-9.17,5.29,5.75.13,10.34,1.44,11.82,7.07,2.21.47,4.45.94,6.69,1.41-9.34,5.46-18.67,10.92-28.01,16.39-1.56-1.88-3.12-3.76-4.68-5.64-.86-1.92-1.73-3.85-2.59-5.77,0,0-.03-.11-.03-.11-.31-.47-.62-.94-.93-1.42,0,0,.15.03.15.03-.49-.71-.98-1.43-1.47-2.14,0,0-.01-.18-.01-.18-.78-1.13-1.57-2.26-2.35-3.39v-.14Z"/>
  <path class="cls-22" d="M520.29,715.33c-2.24-.47-4.48-.94-6.69-1.41-1.49-5.62-6.08-6.93-11.82-7.07,3.44-1.98,6.31-3.63,9.17-5.29,12.46,1.22,24.92,2.38,37.37,3.69,9.7,1.02,19.38,2.22,29.06,3.36.75.09,1.49.32,3.31.73-3.25,7.45-6.24,14.6-9.46,21.63-4.95,10.81-10.08,21.54-15.07,32.33-.39.85-.33,1.91-.47,2.88-.39.45-.79.9-1.18,1.35-.34.38-.68.76-1.02,1.14,0,0-.05.04-.05.04-.38-.06-.73.01-1.06.23-.32-.24-.68-.33-1.08-.28-1.91-2.78-3.82-5.55-5.73-8.33-7.25-14.03-14.46-28.08-21.82-42.05-.66-1.25-2.28-1.99-3.45-2.97ZM514.04,707.58c.06.65.12,1.3.18,1.95,2.46-.24,4.92-.48,7.38-.72-.05-.52-.1-1.04-.15-1.55-2.47.11-4.94.22-7.41.33Z"/>
  <path class="cls-19" d="M699.2,506.27c.12,1.13-.08,3.04.43,3.25,1.89.81,4.03,1.06,6.07,1.52-2.61.02-5.23.04-7.84.06-3.56-.51-7.13-1.02-10.69-1.53,1.21-2.6,7.57,1.57,6.05-4.61,1.99.44,3.98.87,5.98,1.3Z"/>
  <path class="cls-8" d="M499.91,697.57c1.42-2.42,2.83-4.84,4.25-7.26-1.42,2.42-2.83,4.84-4.25,7.26Z"/>
  <path class="cls-8" d="M499.25,699.86c.22-.8.43-1.59.65-2.39-.22.8-.43,1.59-.65,2.39Z"/>
  <path class="cls-19" d="M545.55,760.35c1.91,2.78,3.82,5.55,5.73,8.33-1.29,2.04-2.58,4.08-3.71,5.87-1.08-3.24-2.3-6.88-3.51-10.52.5-1.23.99-2.45,1.49-3.68Z"/>
  <path class="cls-28" d="M552.37,768.95c.32-.22.67-.29,1.06-.23-.35.08-.7.15-1.06.23Z"/>
  <path class="cls-28" d="M553.48,768.69c.34-.38.68-.76,1.02-1.14-.34.38-.68.76-1.02,1.14Z"/>
  <path class="cls-25" d="M562.98,591.29c-.78,1.26-1.56,2.52-2.34,3.78-.4.36-.81.73-1.21,1.1,0,0,.13,0,.13,0-2.4.81-4.8,1.62-7.2,2.43-.34.15-.68.3-1.02.45-2.64,1.43-5.28,2.85-7.92,4.28-.57.38-1.14.76-1.7,1.13l.05-.04c-.41.31-.82.62-1.23.94-5.1,2.58-10.19,5.16-15.29,7.75-1.14-1.63-2.29-3.26-2.8-3.99,4.96-3.95,9.6-7.82,14.45-11.42,1.27-.95,3.14-1.5,4.75-1.53,7.54-.11,12.63-3.51,15.34-10.56,2.74-7.13-.66-12.1-8.19-13.32-4.09-.66-7.9-3-11.84-4.58,1.17-.07,2.64.3,3.47-.27,6.15-4.24,12.07.4,17.78,1.14,3.22.42,5.68,6.68,8.3,10.08-1.61,4.63-7.81,7.27-3.54,12.64Z"/>
  <path class="cls-22" d="M543.42,603.32c2.64-1.43,5.28-2.85,7.92-4.28.36-.11.7-.26,1.02-.45,2.4-.81,4.8-1.62,7.2-2.43-.42.78-.85,1.56-1.27,2.34-.75,1.22-1.5,2.45-2.25,3.67,0,0,.04-.09.04-.09-.29.51-.58,1.03-.88,1.54,0,0,0,.03,0,.03-4.77,5.67-9.54,11.35-15.42,18.35.69-5.21,1.22-9.15,1.74-13.07-7.25,4.06-13.78,8.01-20.61,11.37-2.1,1.04-4.99.49-7.52.66,3.95-2.63,7.91-5.26,11.86-7.89,5.1-2.58,10.19-5.16,15.29-7.74.41-.31.82-.63,1.23-.94,0,0-.05.04-.05.04.57-.38,1.14-.76,1.7-1.13Z"/>
  <path class="cls-26" d="M428.24,619.61c-1.26,4.7-2.15,9.55-4,14-.6,1.44-3.66,2.31-5.71,2.62-9.61,1.41-19.3,2.3-28.87,3.9-3.12.52-5.86,3.02-8.98,3.84-2.55.67-5.57.79-8.07.07-3.7-1.05-4.59,1.33-4.55,3.52.13,6.42-2.47,8.54-8.52,6.49,0-.38-.02-.77-.02-1.15-.78-.8-1.57-1.6-2.35-2.39-3.55-6.31-7.1-12.61-10.65-18.92,1.18-1.16,2.77-2.12,3.48-3.52,1.91-3.78,3.35-7.79,5.23-11.59.35-.7,2-1.27,2.9-1.09,9.12,1.77,16.56-2.68,18.8-12.2,2.46,0,5.14-.06,7.82.01,4.16.11,8.37.81,8.46-5.7.02-1.15,3.61-2.25,5.93-2.81,4.16-2.16-1.48-9.22,5.49-10.48,6.81-.64,7.76,6,11.45,9.23.93.81,1.74,1.75,2.61,2.63,1.61,4.69,3.21,9.38,4.82,14.07.78.83,1.56,1.66,2.33,2.48.4.79.8,1.58,1.19,2.37.38.8.77,1.59,1.15,2.39.02.74.03,1.49.05,2.23Z"/>
  <path class="cls-8" d="M425.84,612.62c-.78-.83-1.56-1.65-2.33-2.48.78.83,1.56,1.66,2.33,2.48Z"/>
  <path class="cls-8" d="M428.19,617.37c-.39-.8-.77-1.59-1.15-2.39.39.79.77,1.59,1.15,2.39Z"/>
  <path class="cls-28" d="M335.89,624.48c-.15-.08-.29-.16-.44-.24.14.08.29.16.43.24h0Z"/>
  <path class="cls-8" d="M813.69,462.46c-1.17-1.19-2.34-2.38-3.5-3.57,1.17,1.19,2.34,2.38,3.5,3.57Z"/>
  <path class="cls-2" d="M754.65,535.79c-3.46-6.36-6.91-12.72-10.37-19.08,3.29-1.07,6.58-2.13,9.25-3-2.63-4.94-4.79-8.71-6.55-12.67-.23-.51,1.54-2.68,2.48-2.74,1.34-.1,2.77,1.03,3.71,1.44,2.15-2.37,3.9-6.04,5.89-6.18,6.14-.42,11.37-6.27,18.11-2.95.72.35,2.47-.9,3.49-1.72,6.51-5.23,8.94-11.51,4.66-19.37,1.57,1.58,3.14,3.16,4.71,4.75,4.3,8.34,8.47,16.75,12.92,25.01,5.42,10.06,7.59,20.52,4.82,31.77-4.15,4.37-8.73,8.42-12.29,13.23-2.34,3.17-14.62,8.62-17.99,6.45-.99-.64-1.42-2.56-1.58-3.96-.26-2.16-.07-4.37-.07-6.56-.79,0-1.58-.02-2.36-.02,0,3.14.13,6.28-.07,9.41-.08,1.21-.62,2.99-1.47,3.37-.84.38-2.65-.35-3.44-1.17-.66-.68-.5-2.19-.63-3.34-.25-2.15-.44-4.31-.66-6.46-.71,0-1.42.01-2.13.02-.63,1.26-1.27,2.51-1.88,3.72-.41-.1-.7-.1-.73-.19-1.18-3.33-2.33-6.68-3.5-10.04-1.55.1-2.95.19-4.35.28Z"/>
  <path class="cls-16" d="M714.33,458.92c-.39-.8-.78-1.59-1.17-2.39-.4-.78-.8-1.56-1.2-2.34-3.96-7.49-7.91-14.98-11.87-22.47,6.2.68,6.76-4.65,8.03-8.31,2.06-5.95,7.45-7.88,11.92-8.6,7.85-1.27,11.91-6.63,16.51-11.64,1-1.09.39-3.59.67-5.42.24-1.59.69-3.14,1.05-4.71.48.04.96.09,1.44.13-.25,7.23,5.06,3.11,7.81,4.19,2.13,3.11,4.61,6.04,6.32,9.37,3.61,7.02,6.83,14.24,10.21,21.39.15,3.31-.3,7.02,4.71,7.12.39.01.78.02,1.16.03,0,.77,0,1.55,0,2.32-3.92,3.91-8.59,7.34-11.54,11.88-2.74,4.21-5.69,5.55-10.41,6.02-6.69.67-13.29,2.41-19.87,3.92-.79.18-1.41,1.71-1.85,2.73-2.01,4.61-3.96,4.78-7.24.82-1.3-1.57-3.11-2.72-4.68-4.05Z"/>
  <path class="cls-8" d="M714.33,458.92c1.58,1.34,3.38,2.49,4.68,4.05,3.28,3.96,5.24,3.79,7.24-.82.44-1.02,1.06-2.55,1.85-2.73,6.58-1.51,13.18-3.25,19.87-3.92,4.72-.47,7.67-1.82,10.41-6.02,2.95-4.54,7.62-7.97,11.54-11.88,4.6,8.79,9.25,17.54,13.76,26.38.86,1.69,1.12,3.69,1.66,5.54,4.28,7.86,1.85,14.14-4.66,19.37-1.02.82-2.77,2.07-3.49,1.72-6.74-3.32-11.97,2.53-18.11,2.95-1.99.13-3.74,3.8-5.89,6.18-.94-.41-2.37-1.54-3.71-1.44-.94.07-2.7,2.24-2.48,2.74,1.77,3.95,3.93,7.73,6.55,12.67-2.67.87-5.96,1.93-9.25,3-4.84-8.61-9.67-17.21-14.51-25.82-3.94-7.52-7.89-15.04-11.83-22.56-1.21-3.13-2.42-6.27-3.62-9.4Z"/>
  <path class="cls-4" d="M747.52,397.38c-2.76-1.08-8.06,3.04-7.81-4.19-.48-.04-.96-.09-1.44-.13-.36,1.57-.81,3.12-1.05,4.71-.28,1.83.33,4.33-.67,5.42-4.6,5.01-8.66,10.37-16.51,11.64-4.47.72-9.86,2.65-11.92,8.6-1.27,3.66-1.83,9-8.03,8.31-3.1-5.93-6.19-11.85-9.29-17.78,4.37.48,8.05.08,7.16-5.8,3.73.42,7.18.81,10.89,1.23-.21-1.21-.16-1.79-.36-1.89-1.89-.97-3.82-1.87-5.74-2.78,1.83-.95,3.72-1.81,5.47-2.89,2.88-1.77,5.51-4.01,8.52-5.48,5.56-2.73,11.17-5.53,17.06-7.32,2.62-.8,5.96.78,8.98,1.28,1.58,2.36,3.15,4.72,4.73,7.08Z"/>
  <path class="cls-8" d="M768.76,435.25c-5.01-.09-4.56-3.8-4.71-7.12,1.57,2.37,3.14,4.74,4.71,7.12Z"/>
  <path class="cls-24" d="M717.95,468.33c3.94,7.52,7.89,15.04,11.83,22.56-6.58,3.28-13.17,6.54-19.74,9.84-3.63,1.82-7.23,3.7-10.84,5.55-1.99-.43-3.98-.87-5.98-1.3-2.47-4.5-4.94-9-7.41-13.5-.8-2.12-1.61-4.24-2.41-6.36,0,0-.01,0,0,0,2.3-1.99,4.6-3.98,8.13-7.03-5.31-1.06-9.01-1.8-12.71-2.54,0,0-.02-.02-.02-.02,1.38-3.87,2.32-8.01,4.37-11.49.84-1.42,4.23-2.25,6.19-1.88,2.57.48,4.81,2.56,7.32,3.66,3.93,1.72,7.84,2.84,8.86-2.52,4.42,1.79,8.43,3.42,12.44,5.05Z"/>
  <path class="cls-19" d="M678.81,475.53c3.7.74,7.4,1.48,12.71,2.54-3.53,3.05-5.83,5.04-8.13,7.03-1.53-3.19-3.06-6.38-4.58-9.57Z"/>
  <path class="cls-7" d="M664.07,466.81v5.39c-.42.03-.84.05-1.25.08-.08-1.8-.17-3.59-.25-5.39.5-.03,1-.05,1.5-.08Z"/>
  <path class="cls-19" d="M683.4,485.1c.8,2.12,1.61,4.24,2.41,6.36-.8-2.12-1.61-4.24-2.41-6.36Z"/>
  <path class="cls-14" d="M674.15,371.39c.39-.57.79-1.15,1.18-1.72.39,1.36.78,2.72,1.17,4.08-.78-.79-1.57-1.57-2.35-2.36Z"/>
  <path class="cls-8" d="M711.96,454.2c.4.78.8,1.56,1.2,2.34-.4-.78-.8-1.56-1.2-2.34Z"/>
  <path class="cls-8" d="M357.17,650.5c.78.8,1.57,1.6,2.35,2.39-.78-.8-1.57-1.6-2.35-2.39Z"/>
  <path class="cls-3" d="M556.04,602.18c.75-1.22,1.5-2.45,2.25-3.67-.75,1.22-1.5,2.45-2.25,3.67Z"/>
  <path class="cls-3" d="M555.2,603.63c.29-.51.58-1.03.88-1.54-.29.51-.58,1.03-.88,1.54Z"/>
  <path class="cls-22" d="M559.43,596.17c.4-.37.81-.73,1.21-1.1-.4.37-.81.73-1.21,1.1Z"/>
  <path class="cls-2" d="M485.01,720.3c.86,1.92,1.73,3.85,2.59,5.77-.86-1.92-1.73-3.85-2.59-5.77Z"/>
  <path class="cls-2" d="M480.37,713.08c.78,1.13,1.57,2.26,2.35,3.39-.78-1.13-1.57-2.26-2.35-3.39Z"/>
  <path class="cls-2" d="M482.73,716.66c.49.72.98,1.43,1.47,2.14-.49-.72-.98-1.43-1.47-2.14Z"/>
  <path class="cls-2" d="M484.05,718.77c.31.47.62.94.93,1.42-.31-.47-.62-.94-.93-1.42Z"/>
  <path class="cls-3" d="M514.04,707.58c2.47-.11,4.94-.22,7.41-.33.05.52.1,1.04.15,1.55-2.46.24-4.92.48-7.38.72-.06-.65-.12-1.3-.18-1.95Z"/>
  <path class="cls-10" d="M543.42,603.32c-.57.38-1.14.76-1.7,1.13.57-.38,1.14-.76,1.7-1.13Z"/>
  <path class="cls-10" d="M541.77,604.42c-.41.31-.82.63-1.23.94.41-.31.82-.63,1.23-.94Z"/>
  <path class="cls-10" d="M552.36,598.6c-.32.19-.66.34-1.02.45.34-.15.68-.3,1.02-.45Z"/>
</svg>