<?xml version="1.0" encoding="utf-8"?>
<!-- Generator: Adobe Illustrator 28.3.0, SVG Export Plug-In . SVG Version: 6.00 Build 0)  -->
<svg version="1.1" id="Layer_1" xmlns="http://www.w3.org/2000/svg" xmlns:xlink="http://www.w3.org/1999/xlink" x="0px" y="0px"
	 viewBox="0 0 768 768" style="enable-background:new 0 0 768 768;" xml:space="preserve">
<style type="text/css">
	.st0{fill:#002339;}
	.st1{fill:#FDC933;}
	.st2{fill:#FAB00A;}
	.st3{fill:#FBB109;}
	.st4{fill:#FCAF07;}
	.st5{fill:#FDC932;}
	.st6{fill:#7DD0FA;}
	.st7{fill:#7CD0FA;}
	.st8{fill:#F5CF48;}
	.st9{fill:#0C293A;}
	.st10{fill:#032640;}
	.st11{fill:#FDCA38;}
	.st12{fill:#05273E;}
	.st13{fill:#F8C735;}
	.st14{fill:#FAC936;}
	.st15{fill:#EBBE3C;}
	.st16{fill:#F8B10E;}
	.st17{fill:#F1C243;}
	.st18{fill:#DDB240;}
	.st19{fill:#2B2602;}
	.st20{fill:#ADA881;}
	.st21{fill:#574703;}
	.st22{fill:#E5D364;}
	.st23{fill:#443101;}
	.st24{fill:#D7C281;}
	.st25{fill:#FDCA31;}
	.st26{fill:#FDCA33;}
	.st27{fill:#FDCA32;}
	.st28{fill:#363B32;}
	.st29{fill:#00233A;}
</style>
<circle class="st0" cx="386.8" cy="386.8" r="340"/>
<path class="st1" d="M446.7,181.4c-3.5,9.2-7,18.3-10.5,27.5c-3,7.9-5.9,15.8-9,23.6c-6.5,17-13.1,33.9-19.6,50.9
	c-0.4,1-0.8,2.1-1.2,3.1c-0.1,0.4-0.2,0.9-0.2,1.3c0.6,0.6,1.3,1.7,1.9,1.7c2.1,0,4.1-0.8,6.2-0.8c18-0.1,35.9,0,53.9,0
	c3.5,0,6.9,0,10.7,0c-3.3,2.2-6.1,4.1-9,6c-4.2,2.2-8.5,4.5-12.7,6.8c-0.8,0.3-1.7,0.5-2.4,0.9c-15.3,7.9-30.6,15.7-45.7,23.7
	c-2,1.1-3.8,3.3-5,5.4c-6.2,10.8-12.1,21.8-18.1,32.6c-5.6,10.1-11.4,20.1-17,30.3c-8.7,15.7-17.2,31.5-25.8,47.2
	c-1.6,3-3,6.1-4.8,9.9c2.3,0,3.5,0.1,4.7,0c12.8-1.6,25.7-3.4,38.5-4.9c3.2-0.4,6.5-2,9.6,0.4c0.4,0.1,0.8,0.2,1.3,0.2l3.2,0.8
	c0,3.1,0,6.3,0,9.4c0,3,0.5,5.5,4.2,5.9c0.7,0.1,1.4,1,2.1,1.5c-1.7,1-3.1,1-4.6,1.1c-3.1,0.2-6.2,0.3-9.3,0.8
	c-6.7,1.1-13.3,2.5-20,3.7c-3.8,0.7-5.3,2.2-5.5,6.1c-2,0.5-4,1-6,1.4c-0.4-2-0.9-4-3.6-3.8c-2.4,0.2-5.2-0.6-6.8,3
	c2.7,0.5,5,1,7.3,1.5c-0.3,0.2-0.6,0.5-1,0.5c-15.5,2.3-31,4.6-46.5,6.8c-0.6,0.1-1.4-0.4-2.1-0.6c-0.2-1.2-0.5-2.4-0.5-3.7
	c0-1.1,0.1-2.7,0.8-3.1c5.9-3.7,9.1-9.5,12.7-15.1c0.7-1.1,0.9-3,1.8-3.4c3.6-1.6,3.4-5.3,4.6-8.1c2.2-5,2.5-11.5,10-12.2
	c-1.3-1.1-2.4-2-3.5-2.9c1-1.6,1.7-3,2.6-4.1c4.7-5.8,6.3-14,13.5-17.9l0,0c0.5-1.3,1.6-2.8,1.3-3.8c-1.9-6.7,3.6-10.5,5.7-15.6
	c0.9-2.1,2.2-4.1,3.5-6.5c2.9,0.4,2.8,0.4,3-3.8c0.1-1.5,0.5-3.1,1.1-4.5c0.5-1.3,1.3-2.4,2-3.6c1.5-2.9,2.4-6.5,4.7-8.5
	c4.1-3.7,5.9-11.7,2.7-16.5c1-2.5,1.8-5.1,3-7.5c1.9-4,4-7.8,6.2-12c-1.3-0.4-1.9-0.7-2.4-0.7c-9.5,0.3-19,0.4-28.4,0.9
	c-16.3,0.8-32.6,1.8-48.9,2.8c1-0.5,2-1.3,3.1-1.4c1.8-0.2,3.7,0,5.6-0.1c2.4-0.1,3.5-1,2.2-3.6c-0.8-1.4-1.2-3-2-5
	c5,2.2,6.4,1.6,8.7-2.6c2-3.9,4.6-7,8.3-9.8c3.9-3,7.7-7.1,9.7-11.5c2-4.4,5.5-7.3,8.4-10.5c2.6-2.8,5.5-4.8,2.9-9.2
	c5.1-0.1,7.7-2.9,10-6.4c1.6-2.4,3.8-4.5,5.7-6.7c0.9-1,2.1-1.8,2.9-2.9c3.3-4.5,5-10.4,11-12.7c0.9-0.4,0.9-2.5,1.6-3.6
	c1.9-2.9,3.9-5.8,6.1-8.5c1.7-2.1,3.8-3.8,5.6-5.7c1.2-1.3,1.9-3.1,3.2-4c2.6-1.6,3.3-3.9,3-6.7l0,0c3.8-1,5.6-4.1,7.1-7.2
	c2.1-4.2,5.1-7.6,9.1-10.2c0.9-0.6,1.8-1.4,2.4-2.3c2.9-4.2,4.3-9.7,9.9-11.8c0.8-0.3,1.1-2.1,1.5-3.2c0.3-0.8,0.3-1.8,0.9-2.4
	c6-6.4,12.1-12.8,18.3-19.4c0.3,1.8,0.6,3.3,0.9,4.7c1.8-2.5,3.8-5,3.8-7.5c-0.1-5.1,2.6-8.5,6-11.9c-0.1,1.5-0.6,2.8-1,4.2
	c-1.6,5.3-3.1,10.6-4.7,15.9l0,0C446.9,175.2,446.5,178.2,446.7,181.4L446.7,181.4z"/>
<path class="st2" d="M304.1,485.1c0.7,0.2,1.4,0.7,2.1,0.6c15.5-2.2,31-4.5,46.5-6.8c0.3,0,0.6-0.4,1-0.5c1-0.2,2-0.5,3-0.7
	c2-0.5,4-1,6-1.4c3-0.1,6-0.1,9-0.2c0.8-0.2,1.5-0.4,2.2-0.7c0.8,0,1.5,0,2.2-0.1l7.6-2.1c0.5,0,0.9,0,1.4,0c2-0.5,4.1-1,6.1-1.5
	c1.5,0,2.9,0,4.4-0.1c1.2-0.2,2.5-0.5,3.8-0.8c1.5-0.2,3-0.5,4.5-0.8c1.2-0.2,2.5-0.5,3.8-0.7l6-0.9c1-0.5,2-0.9,3-1.4
	c1.2,0,2.5-0.1,3.7-0.1c0.8-0.4,1.6-0.9,2.4-1.3c12.5-1.1,24-5.9,35.8-9.7c4.9-1.6,9.9-3.1,14.8-4.6c-6.6,7.2-13.1,14.5-19.7,21.7
	c-14.8,16-29.6,32-44.5,47.9c-11.4,12.3-23,24.5-34.4,36.8c-20.9,22.7-41.7,45.4-62.6,68.1c-0.6,0.6-1.3,1.2-1.9,1.7
	c-3.4,2.8-6.7,5.7-10.1,8.5c0.2-2,0.7-4.6,2-5c2.6-1,1.8-2,1-3.6c-1.2-2.3-1.1-4,2.1-4c-0.6-6.4,0.3-12.6,7.4-11.9
	c0-0.2,0.2-0.5,0.1-0.7c-0.1-0.3-0.2-0.8-0.4-1c-3.4-3.2-2.5-5.9,0.6-8.8c1.2-1.1,1.8-2.9,2.3-4.5c0.6-1.9,0.7-3.9,1.1-5.8
	c0.4-2,0.8-4,1.1-6c5.1-12.4,10.2-24.9,15.3-37.3c5.9-14.3,11.9-28.5,17.8-42.8c0.6-1.3,1.1-2.6,1.9-4.3c-1.9-0.1-2.9-0.2-3.9-0.2
	c-17.4,0-34.7,0.1-52.1,0c-2.1,0-4.1-0.5-6.2-0.8c2.4-4.4,4.8-8.7,7.2-13.1C299.7,485.9,301.9,485.5,304.1,485.1L304.1,485.1z"/>
<path class="st3" d="M508.1,413.2c-22.3-0.1-44.6-0.1-66.9-0.2c-8.6,0-17.2,0.1-25.8,0c-3.8-0.1-6.9,0.3-8,4.7
	c-0.2,0.9-1.1,1.5-1.7,2.3c-0.7-1.6-1.4-3.2,0.7-4.6c0.5-0.4,0.3-2,0.2-3c-0.2-2.2-1.2-4.7-0.4-6.5c0.6-1.4,3.3-1.9,5.1-2.7
	c0.7-1.3,0.4-3.4,0.4-5.5c0-1.6,0.4-3.3,1-4.9c0.6-1.7,1.8-3.1,2.5-4.8c1.7-3.8,3.3-7.6,4.9-11.4c0.8,0.2,1.2,0.2,1.5,0.3
	c1.7,0.7,3.5,2.9,5-0.1c1.2-2.4,0.4-4.3-2.2-5.4c-0.9-0.4-1.6-1.2-2.6-2.1c0.8-0.6,1-1,1.3-1c5.3-0.3,7-3.3,6.3-8.2
	c-0.3-2.4,1.2-3.5,3.4-4.1c1.1-0.3,2.9-1.1,2.9-1.7c0.2-2.9,2.6-6.4-1.9-8.5c3.5-2.4,6.9-3,10.5-1.9c-0.5,2.4-0.2,5.7-1.7,7.1
	c-4,3.9-4.3,3.6-2,7.9c-0.5,1.3-1.1,2.5-1.7,3.8c-0.3,0.4-0.5,0.9-0.8,1.3c-0.1,0.2-0.3,0.4-0.4,0.6c-1.5,2.8-2.9,5.6-4.4,8.4
	c-0.1,0.3-0.2,0.5-0.3,0.8c-4,6.4-7.9,12.8-11.8,19.3c-0.2,0.4,0.7,2,1.5,2.4c1.2,0.6,2.6,0.8,4,0.8c29.6,0.3,59.2,0.5,88.8,0.7
	c2,0,4,0.1,6,0.1c0.6,0.2,1.1,0.6,1.7,0.6c10.9,0.8,21.8,1.6,32.6,2.4c0,28.4,0.1,56.7,0.1,85.1c-0.7,1.9-1.4,3.8-2.1,5.6
	c-8.5,13.2-25.7,16.1-37,6c-2.5-2.2-4-5.5-5.9-8.4c-0.4-3.3-1.2-6.6-1.3-9.9c-0.1-20.7-0.1-41.5-0.1-62.2c0-1.2-0.5-2.3-0.7-3.5
	C508.7,413.2,508.4,413.2,508.1,413.2L508.1,413.2z"/>
<path class="st4" d="M444.4,344.1c-3.7-1.1-7-0.5-10.5,1.9c4.5,2.1,2.1,5.6,1.9,8.5c0,0.6-1.8,1.4-2.9,1.7c-2.2,0.6-3.8,1.7-3.4,4.1
	c0.7,5-1,7.9-6.3,8.2c-0.3,0-0.6,0.4-1.3,1c1,0.8,1.7,1.7,2.6,2.1c2.6,1.1,3.4,3,2.2,5.4c-1.5,2.9-3.3,0.8-5,0.1
	c-0.3-0.1-0.7-0.2-1.5-0.3c-1.6,3.8-3.2,7.6-4.9,11.4c-0.7,1.6-1.9,3.1-2.5,4.8c-0.6,1.5-0.9,3.2-1,4.9c-0.1,2.1,0.3,4.1-0.4,5.5
	c-1.8,0.9-4.5,1.3-5.1,2.7c-0.8,1.8,0.3,4.3,0.4,6.5c0.1,1,0.3,2.6-0.2,3c-2.1,1.4-1.4,2.9-0.7,4.6l0,0c-0.8,0.2-1.7,0.4-2.5,0.6
	c0.1-1.8,0.2-3.6,0.4-5.8c-1.7,0.7-3,1.2-5,2.1c1.8,1.5,3.2,2.6,4.6,3.7c0,1.3,0.1,2.7,0.1,4c-3,5.3-6,10.5-8.9,15.8
	c-0.7,1.2-1.2,2.5-1.7,3.7c-0.5,0.9-1,1.7-1.5,2.6c-3.1-2.3-6.5-0.7-9.6-0.4c-12.9,1.5-25.7,3.3-38.5,4.9c-1.2,0.1-2.4,0-4.7,0
	c1.8-3.8,3.2-6.9,4.8-9.9c8.5-15.8,17.1-31.5,25.8-47.2c5.6-10.1,11.4-20.1,17-30.3c6.1-10.9,12-21.8,18.1-32.6
	c1.2-2.1,2.9-4.3,5-5.4c15.2-8.1,30.5-15.9,45.7-23.7c0.8-0.4,1.6-0.6,2.4-0.9c1.3,0.2,2.6,0.4,3.9,0.6c2.7,0.3,5.4,0.6,8.2,1
	c-0.2,0.2-0.5,0.5-0.8,0.8c-2.8,0.8-5.7,1.5-8.5,2.4c-1.4,0.4-2.6,1.2-3.8,2c-0.1,0.1,0.4,1.5,0.5,1.5c1.4-0.1,2.7-0.5,4-0.7
	c0.2,0,0.5,0.1,1.7,0.3c-1.1,1.8-1.9,3.4-3.1,4.5c-0.3,0.3-2-0.9-3.9-1.8c0.7,3.1,1.2,5.7,1.8,8.4c1-0.7,2.1-1.2,3-2
	c2.4-2,2.2-6.2,6-7c0,1,0,2,0.1,3l0,0c-1,1-2.1,2-3.1,3c-0.2,0.5-0.5,1-0.7,1.5c-1.3,2.5-2.6,5-3.9,7.5c-1.2-1.6-2.4-3.3-3.7-4.9
	c-0.4-0.1-0.8-0.2-1.1-0.3c-0.3,6-3.1,10.4-7.6,13.9c-0.7-0.7-1.2-1.3-1.8-2c-0.3,0.1-0.6,0.2-0.9,0.3c0.3,3.2,0.7,6.3,1,9.5
	C444.5,343.1,444.5,343.6,444.4,344.1L444.4,344.1z"/>
<path class="st3" d="M251.7,486.1c-2.1,10.6-14.7,18.5-26.5,16.8c-11-1.6-18.7-8.7-20.1-18.5c0-0.9,0.1-1.7,0.1-2.6
	c0-23.6,0.1-47.2,0.1-70.9c12.4-4.1,24.8-8.3,37.3-12.2c3.6-1.1,7.5-1.9,11.3-2c8.7-0.3,17.5,0,26.2-0.1c14-0.1,27.9-0.3,41.9-0.5
	c0.1,0.5,0.1,1.1,0.2,1.7c-2.1,4.8-4.1,9.6-6.4,14.2c-0.4,0.8-2.4,1-3.6,1c-18.1,0.1-36.2,0.1-54.3,0.1c-1.7,0-3.5,0.2-5.2,0.2
	c-0.4,0.7-1.1,1.4-1.1,2.1C251.6,439,251.6,462.6,251.7,486.1L251.7,486.1z"/>
<path class="st5" d="M322,396.1c-14,0.2-27.9,0.4-41.9,0.5c-8.7,0.1-17.5-0.2-26.2,0.1c-3.8,0.1-7.7,0.9-11.3,2
	c-12.5,3.9-24.9,8.1-37.3,12.2c0-34.2,0-68.5-0.1-102.7c2,0.1,2.7-0.9,3-2.9c0.3-2.3,1.2-4.6,1.8-6.9c0.3,0,0.6,0.1,1,0.1
	c0.1,2.9,0.3,5.9,0.4,8.8c0.4,0,0.8,0,1.3,0c0-2.4,0-4.8,0-7.2c0-2.6,0.2-5.1,3.9-5c0.7,0,1.6-1.1,2-1.9c1-1.9,1.8-3.8,2.6-5.8
	c1.2-3.1,3.3-4.9,6.8-4.7c3.2,0.1,6.5-0.1,9.7,0.1c1.1,0.1,2.5,0.6,3.1,1.5c2.2,3.3,2.1,3.4,4.3-0.1c2.2,3.5,4.4,7,6.5,10.6
	c0,24.8,0,49.6,0.1,74.5c0,1.2,0.9,2.3,1.3,3.5c0.2,0.2,0.4,0.4,0.5,0.6c-0.1,0.3-0.2,0.5-0.3,0.8c-0.3,4-0.7,8-0.8,12
	c-0.1,3.1-0.8,5.5-4.6,5.5c-0.8,0-1.6,0.7-2.3,1c0.1,0.5,0.1,1,0.2,1.5c6.5-2.5,12.6,2.9,19.2-0.2c1.2-0.5,2.9,0,4.4,0.2
	c2.1,0.3,4.1,1.1,6.2,1c8.5-0.3,17.1-0.7,25.6-1.5c4.3-0.4,9,5,12.9-0.9c1,0.7,1.9,1.3,2.8,1.9C319,392.2,320,392.5,322,396.1
	L322,396.1z"/>
<path class="st6" d="M400.8,165.6c-6.1,6.6-12.5,13.5-19,20.3c-0.9,0.9-2.7,1.3-4,1.3c-20,0.2-39.5,3.5-58.5,9.5
	c-25.9,8.2-48.6,21.9-68.4,40.5c-6.3,6-12.1,12.6-18.1,18.9c-0.8,0.8-2,1.8-3,1.7c-12.2-0.5-22.9,3.2-32.5,10.7
	c-0.1,0.1-0.2,0-0.3,0C227.5,214.6,297.7,155.7,400.8,165.6L400.8,165.6z"/>
<path class="st7" d="M368.6,599c5.6-5.5,11.1-11.1,16.8-16.5c1.1-1,3-1.7,4.6-1.8c33.5-1.5,64.2-11.8,91.8-30.7
	c12.1-8.3,22.9-18.4,34.4-27.5c1.4-1.1,3.9-1.4,5.7-1.1c7.8,1.2,15.4,0.7,22.7-2.5c1.7-0.7,3.1-1.9,4.7-2.9l0,0
	c-0.5,1.4-0.6,3-1.5,4.2c-9.2,12.7-20.2,23.8-32.3,33.7c-13.9,11.4-28.7,21.6-45,29.4c-0.9,0.4-1.8,0.7-2.8,1
	c-1.7,0.3-3.4,0.4-5,0.9c-8,2.7-15.9,5.4-23.8,8.3c-1.4,0.5-2.5,1.8-3.7,2.8l-0.1,0.2l-0.2-0.1c-1.5,0-3-0.1-4.5,0.1
	c-6.3,0.9-12.6,1.9-19,2.8c-0.7,0.1-1.5,0.3-2.2,0.4c-4.4,0.8-8.7,2.2-13,2.5c-8.1,0.4-16.2,0.1-24.4,0.2
	C369.7,602.2,368.5,601.4,368.6,599L368.6,599z"/>
<path class="st3" d="M188.9,457.8c-3.2,9.9-10.7,15.7-20.6,16c-11.1,0.4-19.1-4.7-22.9-14.4c-0.3-0.7-0.3-1.5-0.4-2.2
	c0.1-15.7,0.1-31.4,0.2-47.1c9.9-3.7,19.8-7.3,29.7-11c4.5-1.6,9-3.2,13.6-4.8c0,20.9,0.1,41.8,0.1,62.6
	C188.7,457.3,188.8,457.5,188.9,457.8L188.9,457.8z"/>
<path class="st8" d="M395.7,224.1c0.3,2.8-0.4,5-3,6.7c-1.4,0.9-2.1,2.7-3.2,4c-1.8,2-3.9,3.7-5.6,5.7c-2.2,2.7-4.2,5.6-6.1,8.5
	c-0.7,1.1-0.7,3.2-1.6,3.6c-5.9,2.4-7.7,8.2-11,12.7c-0.8,1.1-2,1.9-2.9,2.9c-2,2.2-4.1,4.2-5.7,6.7c-2.3,3.5-4.9,6.3-10,6.5
	c2.6,4.5-0.3,6.4-2.9,9.2c-3,3.2-6.4,6.1-8.4,10.5s-5.7,8.5-9.7,11.5c-3.7,2.8-6.2,5.9-8.3,9.8c-2.2,4.3-3.7,4.9-8.7,2.6
	c0.8,2,1.2,3.6,2,5c1.4,2.6,0.2,3.5-2.2,3.6c-1.9,0.1-3.8-0.1-5.6,0.1c-1.1,0.1-2.1,0.9-3.1,1.4c-2.5,0.5-5.1,1.1-7.6,1.6
	c6.5-8.2,12.9-16.5,19.5-24.6c7.8-9.7,15.8-19.3,23.7-29c14.4-17.6,28.8-35.2,43.2-52.9c7.2-8.8,14.4-17.6,21.5-26.3
	c1.9-2.4,3.9-4.7,5.8-7c1.7-1.2,3.5-2.1,4.9-3.5c2.8-2.8,5.3-5.8,7.8-8.8c3.4-4.1,7.6-7.6,8.5-13.2v0c0.8-0.2,1.6-0.4,2.5-0.7
	c0.3,0.5,0.7,1.1,1.1,1.8c0.3,0,0.6-0.1,0.8-0.1v-6.3l0,0.1c2.1-0.2,3.8-0.8,3.3-3.5c5.7-7.1,11.5-14.1,17.2-21.2
	c4.6,0.6-0.3,4.3,2.3,6.1c0.9-1,1.9-2.1,2.8-3c1.1,0.5,2.1,1,3.2,1.5c-3.5,9-7,18-10.5,27c1.5-5.3,3.1-10.6,4.7-15.9
	c0.4-1.4,1-2.7,1-4.2c-3.4,3.4-6,6.7-6,11.9c0,2.5-2,5-3.8,7.5c-0.3-1.5-0.5-2.9-0.9-4.7c-6.3,6.6-12.3,12.9-18.3,19.4
	c-0.5,0.6-0.5,1.6-0.9,2.4c-0.5,1.1-0.7,2.9-1.5,3.2c-5.6,2.1-7,7.5-9.9,11.8c-0.6,0.9-1.5,1.8-2.4,2.3c-4,2.6-6.9,5.9-9.1,10.2
	C401.2,219.9,399.5,223.1,395.7,224.1c-0.2-0.3-0.4-0.7-0.6-1c-0.1,0.1-0.3,0.3-0.4,0.4C395,223.7,395.3,223.9,395.7,224.1
	L395.7,224.1z"/>
<path class="st6" d="M472.4,186.6c34.3,18.5,61.9,43.2,82.6,75.6c-0.2,0.4-0.3,0.7-0.5,1.1c-1.3-0.3-2.7-0.3-3.8-0.9
	c-7.2-3.5-14.7-5.3-22.8-3.9c-2.3,0.4-3.8-0.1-5.4-2.1C507,237.9,488.7,222.6,468,210c-4.9-3-4.9-3-2.5-8.3
	C467.7,196.8,469.9,192,472.4,186.6L472.4,186.6z"/>
<path class="st9" d="M658.2,425.2c0.5,3.6,1.3,7.3,1.5,10.9c0.1,1.2-1.2,2.6-1.8,3.9c-1.2-0.8-2.4-1.5-3.6-2.4
	c-1.9,2.5-5.3,2.9-8.4,2.3c-5.2-0.9-10.2,0.5-15.3,0c-1.6-0.1-3.4-0.7-4.7-1.7c-3-2.1-2.4-5.1-1.3-8.1c-1.1-0.8-2.1-1.5-3.5-2.6
	c-0.1,1.4-0.3,2.6-0.3,3.7c0,5.7,0.8,11.6-0.3,17.2c-1,4.8,0.9,8.1,2.4,11.9c1.2,3,0.9,3.4-2.4,3.2c-0.5-1.7-1-3.4-1.9-6.2
	c-1.1,1.9-2.1,3-1.9,3.6c1.7,4.9-1.4,7-5,8.9c-0.4,0.2-0.9,0.5-1.4,0.7c0.5,1.4,1.1,2.7,1.9,5c-2.6-0.4-4.5-0.8-6.4-1.1
	c0.3-0.2,0.7-0.4,1-0.6c-0.1-0.1-0.3-0.3-0.4-0.4c-0.2,0.3-0.4,0.6-0.6,1c-6.9,0.4-13.8,0.9-20.7,1.3c-1.7,0.1-3.3,0.1-5,0
	c-2.4-0.2-4-3.4-3.4-7c-2.7,3-3.7,1.1-4.6-1c-0.9-3.3-1.2-6.6-3.2-9.9c-1.6-2.7-0.5-7-0.5-10.6c0-12.4,0-24.7,0-37.1
	c0-1.3,0.2-2.5,0.2-3.8l1,0c0.1,1.3,0.2,2.6,0.2,3.8c0,12.5,0,25,0.1,37.5c0,1.4,0.9,2.8,1.4,4.2c0.3,1.3,0.5,2.6,0.8,3.8
	c0.7,2.7,0.6,6,2.2,8.1c5.8,7.8,13.8,10.5,23.6,9.5c9.1-0.9,19-10.7,18.8-20.3c-0.2-13.8-0.3-27.7-0.4-41.5
	c0.1-17.6,0.1-35.1,0.2-52.7c0-10.5-0.1-20.9-0.1-31.4c-1.3-3.3-2.7-6.6-4-9.8l0-0.1c-3.3-5.4-8.5-7.7-14.3-9.2
	c2.8,0.1,5.7,0.2,8.5,0.2c1.4,0,2.8-0.3,4.3-0.4c1.3-0.1,2.6-0.1,3.6-0.2c-0.9,1.6-1.7,3-2.4,4.4c0.9,0.5,1.9,1.5,2.7,1.3
	c0.9-0.2,1.5-1.4,2.5-2.4c3.5,0.6,4,1.4,3.3,6.5c-0.8-0.7-1.4-1.2-2.1-1.8c-0.4,4.1,0.2,4.4,4.7,3.2c0.2,2.1,0.4,4.3,0.5,6.5
	c0,0.5-0.6,1.3-1.2,1.6c-3.4,2-4.5,5.1-4.5,8.8c0,5.6-0.1,11.2,0.1,16.9c0,0.9,0.9,1.7,1.4,2.6c0.5-0.9,1.4-1.7,1.4-2.6
	c0.2-2.5,0.1-4.9,0.1-7.4c0.4,0,0.8-0.1,1.1-0.1c0.2,2.2,0.4,4.3,0.7,7.2c4.4-2.4,8.5-4.7,12.6-6.9c1.4-0.8,3-1.7,4.5-1.8
	c1.1-0.1,2.3,1,3.3,2.4c4.7-0.1,8.8-4.9,14.5-1.7c-0.5,1.3-1,2.8-1.7,4.6c3.5,1.4,5,3.6,3,7.5c-0.5,1,0.8,2.8,0.8,4.2
	c-0.2,10-0.6,19.9-0.9,29.9c0,0.3-0.3,0.7-0.5,1c-0.1-2.7-0.2-5.5-0.2-8.2c-0.1-7.7,0.1-15.5-0.4-23.2c-0.5-6.5-5.5-10.6-12.1-10.7
	c-2.5,0-5,0.1-7.5,0.1c-0.8,0.4-1.6,0.8-2.4,1.2l-0.2,0.1c-3.3,0.3-4.7,2.1-4.2,5.4c0,0.2,0,0.4-0.2,0.6c-0.4,1.1-1.2,2.1-1.3,3.2
	c-0.2,2-0.1,4-0.1,6c0,19.9,0,39.9,0,59.8c0,1.7-0.8,4,2,4.5c2.6,5.4,7.3,6.9,12.7,6.5c5.7-0.4,10.4-2.5,12.3-8.5
	C657.3,427.8,657.7,426.5,658.2,425.2L658.2,425.2z M652.9,346.8l-0.1-1.1c-0.9,0.1-1.9,0.2-2.9,0.3c0,0.3,0.1,0.5,0.1,0.8H652.9
	L652.9,346.8z M656,434.4c0,0.3,0,0.6,0,0.9c0.4,0,0.9,0,1.3,0c0,0,0-0.6,0-0.9H656L656,434.4z M627.8,430.4c0-0.1-0.1-0.2-0.2-0.3
	c-0.1,0-0.2,0-0.3,0.1c0.1,0.1,0.2,0.3,0.2,0.4C627.6,430.5,627.7,430.5,627.8,430.4z M629.3,355.4c0-0.1-0.1-0.2-0.2-0.3
	c-0.1,0-0.2,0-0.3,0.1c0.1,0.1,0.2,0.3,0.2,0.4C629.1,355.5,629.2,355.5,629.3,355.4z M626,433.6c0.1,0,0.2-0.1,0.3-0.1
	c0-0.1,0-0.2-0.1-0.3c-0.1,0.1-0.3,0.2-0.4,0.2C625.8,433.5,625.9,433.6,626,433.6L626,433.6z M618.4,322.1
	c-0.1,0.1-0.1,0.1-0.2,0.2c0.2,0.1,0.3,0.1,0.4,0.2c0-0.1,0.1-0.2,0-0.3C618.6,322.2,618.5,322.1,618.4,322.1z M620.1,325.1l-0.3,0
	c0.1,0.1,0.1,0.3,0.2,0.5c0.1-0.1,0.2-0.1,0.2-0.2C620.2,325.3,620.2,325.2,620.1,325.1L620.1,325.1z"/>
<path class="st6" d="M216.3,530.2c-0.2-0.3-0.5-0.6-0.7-0.9c-0.6-0.7-1.1-1.3-1.7-2l0,0c-0.5-0.5-0.9-1.1-1.4-1.7l0,0
	c0.2-1.2,0.5-2.5,0.8-3.8l0,0c1.6-0.3,3.3-0.5,4.9-0.8c6.1,0,12.1-0.2,18.2-0.1c1.2,0,2.7,0.6,3.5,1.4c16,15.9,33.9,29.4,53.5,40.6
	c4.4,2.5,5,4.6,3.4,9.3c-1.7,4.8-3.7,9.5-5.7,14.7c-2.1-1-3.8-1.9-5.5-2.8c-23.1-11.9-43.9-27.1-61.9-46c-0.8-0.8-1.4-1.7-2.1-2.6
	C221.2,532.6,219.4,530.8,216.3,530.2L216.3,530.2z"/>
<path class="st10" d="M191.6,332.1c2.3,0,2.8,1.4,3.1,3.3c0.1,0.8,1.4,1.5,2.1,2.2c0.4-1.1,1.3-2.8,0.9-3.2
	c-4.9-5.2-1.6-11.6-2.1-17.2c-0.5-7.1,1.5-14.4,2.9-21.5c0.4-2.1,1.9-4.6,3.6-5.6c2.6-1.5,2.6,1.5,3.1,3.1c-0.1,0.4-0.3,0.8-0.4,1.2
	c-0.5,0.5-0.9,1-1.4,1.5c0,18.6,0,37.2,0,55.9c0,41.4-0.1,82.7-0.1,124.1c-2.3,0-2.7-1.5-3-3.4c-0.6-5.5-1.5-11-2.1-16.6
	c-0.3-2.5-1.3-4-3.9-4c-2.4,0-2.9-1.3-2.9-3.4c0-6.1,0.1-12.2-0.1-18.3c0-1.3-0.9-2.6-1.3-3.9c0-3.5,0-7,0-10.5
	c0.5-1.3,1.3-2.6,1.3-4c0.1-9,0-18.1,0.1-27.1c0-1.4-0.1-2.9,0.6-4c2.5-4.2,1.8-8.6,1-13.1c-0.3-1.6-0.8-3.2-0.8-4.8
	C192.1,352.8,191.8,342.4,191.6,332.1L191.6,332.1L191.6,332.1z"/>
<path class="st11" d="M322,396.1c-1.9-3.5-3-3.9-5.2-1.5c-0.9-0.6-1.8-1.2-2.8-1.9c-3.9,5.8-8.6,0.4-12.9,0.9
	c-8.5,0.9-17.1,1.2-25.6,1.5c-2,0.1-4.1-0.7-6.2-1c-1.5-0.2-3.2-0.8-4.4-0.2c-6.6,3.1-12.7-2.4-19.2,0.2c-0.1-0.5-0.1-1-0.2-1.5
	c0.8-0.4,1.6-1,2.3-1c3.8,0,4.4-2.4,4.6-5.5c0.2-4,0.5-8,0.8-12c1.2,0,2.5,0.1,3.7,0.1c23.1,0,46.1,0,69.2,0.1
	c4.8,0,4.8,0.1,4.4,4.6c-2.8,6.3-5.6,12.6-8.4,19C322.1,397.2,322.1,396.6,322,396.1L322,396.1z"/>
<path class="st2" d="M292.1,336.7c2.5-0.5,5.1-1.1,7.6-1.6c16.3-0.9,32.6-2,48.9-2.8c9.5-0.5,19-0.6,28.4-0.9c0.6,0,1.1,0.3,2.4,0.7
	c-2.2,4.2-4.3,8.1-6.2,12c-1.2,2.4-2,5-3,7.5c-29.2,0-58.5,0-88.7,0c3.3-4,5.9-7.1,8.4-10.3c0.5-0.7,0.5-1.8,0.7-2.7
	C291.1,338,291.6,337.4,292.1,336.7L292.1,336.7z"/>
<path class="st10" d="M143.5,452.1c-4.3,1-4.6,0.9-5.2-3.6c-0.4-3.2-0.3-6.4-0.8-9.5c-0.7-4-1.4-8-2.8-11.7c-0.5-1.4-2.9-2-4.5-3
	c0-2.6-0.1-5.2-0.1-7.9c0-18.7,0-37.4-0.1-56.1c0-2.4,0.1-4.9-2.9-5.7c-0.7-0.7-1.3-1.4-2-2.2c-0.2-0.2-0.4-0.4-0.6-0.5l-0.6-0.5
	c-0.9-0.9-1.6-2.3-2.7-2.6c-2-0.5-4.1-0.4-6.1-0.5c0.3-0.7,0.6-1.3,1.1-2.5c-2.8-0.2-5.2-0.4-7.7-0.5l0.1-1.3
	c2.8,0.2,5.5,0.4,8.3,0.5c2,0.1,4.1,0.4,6,0c3.7-0.9,8.2,3,7.9,6.8c-0.1,1.4,0.6,2.9,0.9,4.3c0.4,0,0.9,0,1.4,0c0.5-2,1.1-4,1.6-6
	c1.3-5.1,4.1-9.9,2.9-15.5c-0.6-3-1.1-6.1-1.4-9.1c-0.3-2.6,1.3-3.7,3.7-4.2c1.6-0.4,3.2-1.1,5.1-1.9c0.1,1,0.2,2.4,0.3,3.8
	c-0.3,0.7-0.5,1.4-0.8,2.1c-0.3,2-0.8,4.1-0.8,6.1c-0.1,12.4,0,24.7,0,37.1C143.6,396.2,143.5,424.2,143.5,452.1L143.5,452.1z"/>
<path class="st12" d="M571.2,452.1c-0.5-1.4-1.4-2.8-1.4-4.2c-0.1-12.5-0.1-25-0.1-37.5c0-1.3-0.1-2.6-0.2-3.8l-1,0
	c-0.1,1.3-0.2,2.5-0.2,3.8c0,12.4,0,24.7,0,37.1c0,3.6-1.1,8,0.5,10.6c2,3.3,2.3,6.6,3.2,9.9c-3.4,1.4-4.6,0.6-4.4-2.9
	c0.1-1.6-0.3-3.3-0.6-5c-0.5-2.9-1.1-5.8-1.8-8.7c-0.3-1.2-0.9-2.3-1.4-3.4c-0.5,0.1-0.9,0.1-1.4,0.2v27c-0.5,0-0.9,0-1.4,0
	c-0.1-1.1-0.2-2.3-0.2-3.4c0-6.4,0.2-12.7-0.1-19.1c-0.2-4.9-1-9.8-1.6-14.7c-0.1-0.6-0.8-1.1-1.3-1.7c0-9,0-18,0-27
	c1-2.4,2.5-4.8,2.7-7.3c0.8-7.3,1.2-14.6,1.7-22c0.5-1.4,1.4-2.8,1.4-4.2c0.1-14-0.2-28,0.2-42c0.2-7.1,0-14.2-0.1-21.3
	c0-1.2,0.1-2.4,0.2-3.6l1.3,0c0,2.3-0.1,4.7,0.1,7c0.1,1,0.9,2,1.4,3c0.6-0.8,1-1.8,1.7-2.5c1.4-1.3,3-2.6,4.6-3.8
	c1.7-1.2,3.7-2,5.2-3.4c2.3-2,3.8-1.5,4.8,1.1c-0.4,0.4-0.9,0.8-1.3,1.2l-0.1,0.1c-0.3,0.2-0.7,0.4-1,0.6c-0.2,0-0.3,0-0.4,0.2
	c-0.7,0.5-1.4,0.9-2.1,1.3l-0.2,0.1l0,0.2c-4.5,4.5-6.7,10-6.6,16.4c0,19.5,0.1,39,0.1,58.5C571.4,410.1,571.3,431.1,571.2,452.1
	L571.2,452.1z"/>
<path class="st13" d="M638.1,350.2c2.5,0,5-0.1,7.5-0.1c6.5,0.1,11.6,4.1,12.1,10.7c0.6,7.7,0.3,15.4,0.4,23.2
	c0,2.7,0.1,5.5,0.2,8.2c0,11,0,22.1-0.1,33.1c-0.4,1.3-0.9,2.6-1.3,3.9c0-8.1-0.1-16.2-0.1-24.3c0-1.7,0.2-3.7-2.4-3.7
	c-7.7,0.1-15.3,0.1-23,0.2c0-14.6-0.1-29.2-0.1-43.8c0.1-0.2,0.2-0.4,0.2-0.6c1.4-1.8,2.8-3.6,4.2-5.4l0.2-0.1
	C636.5,351,637.3,350.6,638.1,350.2L638.1,350.2z"/>
<path class="st14" d="M123.9,351.5c0.2,0.2,0.4,0.3,0.6,0.5c0.2,0.2,0.4,0.4,0.6,0.5c0.7,0.7,1.3,1.4,2,2.2c0.5,1.3,1,2.7,1.5,4
	c0,14.1-0.1,28.3-0.1,42.5c-8.9,0-17.8,0-26.7,0c0-13.2-0.2-26.4,0.1-39.7c0.1-5.7,3.3-9.5,9-10.8
	C115.2,349.8,119.7,349.3,123.9,351.5L123.9,351.5z"/>
<path class="st11" d="M473.4,451.3c-4.9,1.5-9.9,3-14.8,4.6c-11.8,3.8-23.3,8.6-35.8,9.7c-0.8,0.4-1.6,0.9-2.4,1.3
	c-1.2,0-2.5,0.1-3.7,0.1c-1,0.5-2,0.9-3,1.4c-2,0.3-4,0.6-6,0.9c-1.2,0.2-2.5,0.5-3.8,0.7c-1.5,0.2-3,0.5-4.5,0.8
	c-1.2,0.2-2.5,0.5-3.8,0.8c-1.5,0-2.9,0-4.4,0.1c-2,0.5-4.1,1-6.1,1.5c-0.5,0-0.9,0-1.4,0c-1.4,0-2.8-0.3-4,0
	c-1.3,0.4-2.4,1.4-3.6,2.1c-0.8,0-1.5,0-2.2,0.1c-0.8,0.2-1.5,0.4-2.2,0.7c-3,0.1-6,0.1-9,0.2c0.2-4,1.6-5.5,5.5-6.1
	c6.7-1.1,13.3-2.6,20-3.7c3.1-0.5,6.2-0.6,9.3-0.8c1.4-0.1,2.9-0.1,4.6-1.1c-0.7-0.5-1.4-1.4-2.1-1.5c-3.8-0.4-4.2-2.9-4.2-5.9
	c0-3.1,0-6.3,0-9.4c15,0,30-0.1,45-0.1c12,0,24,0.1,36,0.2C475.5,448.9,474.4,450.1,473.4,451.3L473.4,451.3z"/>
<path class="st15" d="M290.6,338.7c-0.2,0.9-0.2,2-0.7,2.7c-2.5,3.2-5.1,6.2-8.4,10.3c30.2,0,59.5,0,88.7,0
	c3.2,4.9,1.5,12.8-2.7,16.5c-2.3,2-3.2,5.6-4.7,8.5c-0.6,1.2-1.5,2.4-2,3.6c-0.5,1.4-1,3-1.1,4.5c-0.2,4.2-0.1,4.2-3,3.8
	c-1.3,2.4-2.6,4.4-3.5,6.5c-2.1,5.1-7.6,9-5.7,15.6c0.3,1.1-0.8,2.5-1.3,3.8c0-1.7,0-3.4,0-5.1l-1.7,0.3c0.6,1.6,1.2,3.2,1.7,4.8
	c-7.2,3.9-8.7,12.1-13.5,17.9c-0.9,1.1-1.6,2.5-2.6,4.1c1.1,0.9,2.2,1.8,3.5,2.9c-7.5,0.7-7.8,7.1-10,12.2c-1.2,2.8-0.9,6.5-4.6,8.1
	c-0.9,0.4-1.1,2.3-1.8,3.4c-3.5,5.6-6.7,11.5-12.7,15.1c-0.7,0.4-0.8,2-0.8,3.1c0,1.2,0.3,2.4,0.5,3.7c-2.2,0.4-4.4,0.8-6.6,1.2
	c3.6-6.7,7.3-13.3,11-20c11-20.3,22.1-40.5,32.9-60.9c8.6-16.2,16.8-32.5,25.2-48.8c0.5-1.1,1-2.2,1.7-3.9H280l-0.6-0.9
	C283.1,347.4,286.8,343.1,290.6,338.7L290.6,338.7z"/>
<path class="st16" d="M101.7,401.1c8.9,0,17.8,0,26.7,0l0.3,0.1c0,9.1,0,18.2,0,27.3c-0.2,0.9-0.4,1.7-0.7,2.6
	c-3.7,5.8-10.2,8-17.6,5.9c-5.5-1.5-9-6.5-9-13.1C101.5,416.3,101.7,408.7,101.7,401.1L101.7,401.1z"/>
<path class="st17" d="M144.5,325c0.3-0.7,0.5-1.4,0.8-2.1c4.5-9.8,12.3-14.6,23.1-14.7c10.8,1.3,18,6.9,21.1,17.5l-0.2,0.2
	c-0.2,1.5-0.5,2.9-0.5,4.4c-0.1,12.9-0.1,25.7-0.1,38.5c-0.4-0.7-1.1-1.3-1.3-2.1c-0.2-0.9-0.1-2-0.1-3c0-9.2,0.1-18.4-0.1-27.6
	c0-2.3-1.4-4.8-0.7-6.7c1.3-3.8,0.6-7.1-1.2-10.3c-3.4-6-8.6-7.4-13.1-3.6c-1.9,0.7-4.4,3.3-4.5-1.5c1.8-0.6,3.6-1.2,5.4-1.9
	c-0.1-0.4-0.2-0.7-0.3-1.1c-3.6,1.3-7.4-4.1-11,0.6c2.1,0.8,4,1.6,5.9,2.4h-9c-0.1,0.5-0.2,1-0.3,1.5c1.4,0.5,2.9,1,4.3,1.5
	c1.4,0.5,2.8,1,4.2,1.5h-10.8c0.6,1.5,1,2.5,1.4,3.6c-5.8,1.8-2.8,6.2-3.7,9.9c-0.7-1.4-1.4-2.7-2.2-4.4c-2.2,1.6-2.7,5.7-6.4,4.5
	c-0.2-2-0.3-4.1-0.5-6.1C144.6,325.7,144.5,325.3,144.5,325L144.5,325z"/>
<path class="st17" d="M205,294.6c0.1-0.4,0.2-0.8,0.4-1.2c3.2-7.1,7.8-12.6,15.6-14.6c1.2-0.3,2.4-0.4,3.6-0.5c0,0.5,0,1,0.1,1.9
	c0,0-0.2-0.5-0.3-1c-1.8,0.8-3.5,1.5-5.3,2.3c0.2,0.5,0.5,1,0.7,1.5c1.7-0.8,3.3-1.5,4.9-2.8c0.9-0.5,1.9-0.5,2.9-0.5
	c1.6,0.6,3.2,1.1,4.8,1.7l0.4-1.7h-5.2c-0.8-0.5-1.5-1-2.2-1.5c7.5-1.2,14.2,0.4,19.7,5.9c-2.2,3.5-2.1,3.4-4.3,0.1
	c-0.5-0.8-2-1.4-3.1-1.5c-3.2-0.2-6.5,0-9.7-0.1c-3.5-0.1-5.6,1.6-6.8,4.7c-0.8,2-1.6,3.9-2.6,5.8c-0.4,0.8-1.4,1.9-2,1.9
	c-3.8-0.1-3.9,2.3-3.9,5c0,2.4,0,4.8,0,7.2c-0.4,0-0.8,0-1.3,0c-0.1-2.9-0.3-5.9-0.4-8.8c-0.3,0-0.6-0.1-1-0.1
	c-0.6,2.3-1.5,4.5-1.8,6.9c-0.2,2-0.9,3-3,2.9c-0.1-4-0.2-8-0.2-12C205,295.7,205,295.1,205,294.6L205,294.6z"/>
<path class="st15" d="M509.6,294.8c3.9-10,10.5-16.4,21.7-17c10.1-0.6,18,3,23,12c0.6,1,1,2.2,1.5,3.3c0.1,0.9,0.3,1.9,0.4,2.8
	c-1.5-1.5-3-2.9-4.5-4.4c-1.4-2.2-2.8-4.5-4.4-6.6c-0.5-0.6-1.6-0.8-2.3-1.1c-0.2,0.9-0.9,1.9-0.7,2.7c1,3.6,3.7,5.1,7.3,5.2
	c-5,4.1-8.4,1.5-11.2-8.5c0.9-0.4,1.9-0.9,3.5-1.6c-2.6-0.6-4.5-0.9-6.3-1.6c-5.4-1.9-9.6,0-11.8,5.4c-0.4,0.9-0.9,1.8-1.5,2.5
	c-2.8,2.9-3.6,7.3-8,9.3c-2.8,1.3-4.3,5.2-6.4,8c-0.2-2.8-0.4-5.6-0.6-8.4C509.4,296.1,509.5,295.5,509.6,294.8L509.6,294.8z
	 M522.6,281.9c0.1,0.2,0.1,0.4,0.2,0.5c0.4-0.2,0.9-0.3,1.3-0.5c-0.1-0.2-0.3-0.5-0.3-0.5C523.4,281.6,523,281.8,522.6,281.9
	L522.6,281.9z"/>
<path class="st18" d="M317.5,584.7c-0.4,2-0.8,4-1.1,6c-0.4,2-0.5,4-1.1,5.8c-0.5,1.6-1.1,3.5-2.3,4.5c-3.1,2.9-4,5.6-0.6,8.8
	c0.2,0.2,0.3,0.7,0.4,1c0,0.2-0.1,0.5-0.1,0.7c-7.1-0.7-8,5.5-7.4,11.9c-3.2,0-3.3,1.7-2.1,4c0.8,1.5,1.6,2.6-1,3.6
	c-1.3,0.5-1.8,3-2,5c3.4-2.8,6.7-5.7,10.1-8.5c-4.8,5.4-9.5,10.9-14.3,16.2c-0.9,1-2.6,1.2-3.9,1.8c-0.1,0-0.1,0.2-0.1,0.3
	c0.1,0.2,0.2,0.4,0.2,0.2c8.1-19.8,16.3-39.8,24.5-59.9C316.9,585.8,317.2,585.3,317.5,584.7L317.5,584.7z M297.8,637.2
	c-0.2-0.1-0.5-0.1-0.7-0.2c-0.1,0.6-0.3,1.1-0.4,1.7c0.2,0.1,0.4,0.1,0.6,0.2C297.5,638.3,297.7,637.8,297.8,637.2L297.8,637.2z
	 M309.5,608.4c-0.3,0.4-0.5,0.7-0.6,0.9c0,0.2,0.2,0.4,0.3,0.6c0.2-0.2,0.7-0.3,0.7-0.5C310,609.2,309.7,608.9,309.5,608.4
	L309.5,608.4z"/>
<path class="st15" d="M460.2,146.1c-1.1-0.5-2.1-1-3.2-1.5c-0.9,1-1.9,2-2.8,3c-2.6-1.8,2.3-5.5-2.3-6.1c0.8-0.9,1.5-1.9,2.3-2.8
	c0.5,0.2,1.1,0.4,1.6,0.6c-0.1-0.8-0.1-1.5-0.2-2.3c4.5-5.4,9-10.9,12.8-15.5c0.2,7.1-4,13.8-6.8,20.8c-0.3-0.1-0.6-0.1-0.9-0.2
	c0.2,0.3,0.4,0.6,0.6,0.9C461,144,460.6,145,460.2,146.1L460.2,146.1z"/>
<path class="st16" d="M466.3,314.1c0-1,0-2-0.1-3l0,0c0.5-1,1-2,1.5-3c0.5-1.5,1-3,1.5-4.5c0.6-0.3,1.2-0.6,1.8-1
	c-0.6-0.7-1.2-1.4-1.8-2c0-0.8,0-1.5,0-2.2v-0.8c0.5,0,1,0,1.5,0c0.5,0.2,1.5,0.6,1.5,0.5c1.8-2.9-0.5-3.1-2.4-3.6
	c2.9-1.9,5.7-3.8,9-6c-3.8,0-7.3,0-10.7,0c-18,0-35.9,0-53.9,0c-2.1,0-4.1,0.7-6.2,0.8c-0.6,0-1.3-1.1-1.9-1.7
	c1.6,0.2,3.1,0.6,4.7,0.6c22.7,0,45.4-0.1,68.2-0.1c0.5,0,0.9,0.1,2.4,0.2C476.1,297.3,471.2,305.7,466.3,314.1L466.3,314.1z"/>
<path class="st19" d="M203.5,476.1c0-41.4,0.1-82.7,0.1-124.1c0-18.6,0-37.2,0-55.9c0.3,0,0.6,0,0.9,0c-0.1,1.8-0.2,3.5-0.2,5.2
	c0,29.9-0.1,59.7,0,89.6c0,31,0.1,61.9,0.2,92.9C204.2,481.3,203.9,478.7,203.5,476.1z"/>
<path class="st20" d="M204.5,483.8c-0.1-31-0.2-61.9-0.2-92.9c0-29.9,0-59.7,0-89.5c0-1.8,0.1-3.5,0.2-5.2h0.2l0.2,0
	c0.1,4,0.2,8,0.2,12c0,34.2,0,68.5,0.1,102.7c0,23.6-0.1,47.2-0.1,70.9c0,0.9-0.1,1.7-0.1,2.6C204.9,484.2,204.7,484,204.5,483.8z"
	/>
<path class="st6" d="M368.6,599c-0.1,2.4,1.2,3.2,3.5,3.2c8.1-0.1,16.3,0.2,24.4-0.2c4.4-0.2,8.7-1.6,13-2.5
	c0.7-0.1,1.5-0.3,2.2-0.4c6.3-1,12.6-2,19-2.8c1.5-0.2,3-0.1,4.5-0.1c-8.7,1.9-17.3,4.7-26.1,5.6c-14.7,1.5-29.5,1.8-44.3,2.6
	c-0.1-0.4-0.2-0.8-0.4-1.2C365.8,601.8,367.2,600.4,368.6,599L368.6,599z"/>
<path class="st21" d="M509.6,294.8c-0.1,0.6-0.2,1.3-0.4,2c-0.1,1.2-0.2,2.5-0.2,3.7c0,24,0,48.1-0.1,72.1c-1.5,0.2-3.1,0.7-4.7,0.7
	c-23.6,0-47.2,0-70.8,0c1.5-2.8,2.9-5.6,4.4-8.4c0,0.4,0,0.8-0.1,1.1c-2,6.5-2,6.5,5,6.5c20.5,0,41,0,61.5,0.1
	c3.1,0,4.1-0.9,4.1-4.1c-0.1-23,0-46,0.1-69C508.4,298,509.2,296.4,509.6,294.8L509.6,294.8z"/>
<path class="st22" d="M330.6,378.8c0.3-4.5,0.4-4.6-4.4-4.6c-23.1,0-46.1,0-69.2-0.1c-1.2,0-2.5-0.1-3.7-0.1
	c0.1-0.3,0.2-0.5,0.3-0.8c4.3,0,8.7-0.1,13-0.1c20.9,0,41.9,0,62.8,0c1.2,0,2.4,0.1,4.4,0.2C332.5,375.3,331.6,377.1,330.6,378.8
	L330.6,378.8z"/>
<path class="st3" d="M444.4,342.6c-0.3-3.2-0.7-6.3-1-9.5c0.3-0.1,0.6-0.2,0.9-0.3c0.6,0.6,1.2,1.3,1.8,2c4.5-3.5,7.4-7.9,7.6-13.9
	c0.4,0.1,0.8,0.2,1.1,0.3c1.2,1.6,2.4,3.3,3.7,4.9c0,0.4,0.1,0.9,0.1,1.3c-0.9,1.6-1.7,3.1-2.6,4.7c-3-0.5-3.8,1.4-4.4,4
	c-0.3-0.8-0.7-1.6-1.1-2.5c-3.1,2.8,0.2,4.7,0.6,7c0,0.3-0.1,0.5-0.4,0.5c-1.2,0.9-2.4,1.9-3.6,2.9
	C446.7,343.7,445.5,343.2,444.4,342.6L444.4,342.6z"/>
<path class="st18" d="M253,372.6c-0.4-1.2-1.3-2.3-1.3-3.5c-0.1-24.8-0.1-49.6-0.1-74.5c0.4,2.1,1.1,4.1,1.1,6.2
	C252.9,324.7,252.9,348.6,253,372.6L253,372.6z"/>
<path class="st18" d="M251.7,486.1c0-23.6-0.1-47.2-0.1-70.8c0-0.7,0.7-1.4,1.1-2.1c0.1,22.1,0.2,44.2,0.2,66.3
	C252.9,481.8,252.1,484,251.7,486.1z"/>
<path class="st10" d="M560.9,379.9c-0.3-23.6-0.1-47.3-0.1-70.9c0.3,0,0.7,0,1.1,0v71.1C561.5,380,561.2,380,560.9,379.9
	L560.9,379.9z"/>
<path class="st23" d="M189.2,325.9l0.2-0.2c0.3,2.1,0.6,4.3,0.9,6.4c0,28,0,56,0,84c0,3.5,0,7,0,10.5c0,8.5,0.1,17.1-0.1,25.6
	c0,1.9-0.9,3.8-1.3,5.6c-0.1-0.3-0.2-0.5-0.2-0.8c0.2-2.1,0.7-4.1,0.7-6.2c0.1-36.9,0.1-73.8,0.1-110.6
	C189.4,335.4,189.2,330.7,189.2,325.9L189.2,325.9z"/>
<path class="st21" d="M144.5,325c0.1,0.3,0.1,0.7,0.2,1c-0.1,2.6-0.3,5.2-0.3,7.9c0,40.8,0,81.7,0.1,122.5c-0.3-1.4-0.6-2.9-0.9-4.3
	c0-28,0.1-55.9,0.1-83.9c0-12.4-0.1-24.7,0-37.1C143.6,329.1,144.2,327,144.5,325L144.5,325z"/>
<path class="st24" d="M144.4,456.4c0-40.8-0.1-81.7-0.1-122.5c0-2.6,0.2-5.2,0.3-7.9c0.2,2,0.3,4.1,0.5,6.1c0,26,0,52,0.1,78.1
	c-0.1,15.7-0.1,31.4-0.2,47.1C144.9,457,144.6,456.7,144.4,456.4L144.4,456.4z"/>
<path class="st19" d="M556.3,295.9c-0.1-0.9-0.3-1.9-0.4-2.8c0.6,1.2,1.7,2.4,1.8,3.6c0.2,4.6,0.1,9.2,0.1,13.9
	c0,30.5,0,60.9,0,91.4c0,2-0.1,4-0.1,6c-0.2,0-0.4,0-0.6-0.1c0-1.1-0.1-2.2-0.1-3.4c0-34.1,0.1-68.2,0-102.3
	C557,300.1,556.5,298.1,556.3,295.9L556.3,295.9L556.3,295.9z"/>
<path class="st9" d="M190.2,332.1c-0.3-2.1-0.6-4.3-0.9-6.4c-3-10.6-10.2-16.2-21.1-17.5c4.1,0.2,8.5-0.7,12.1,0.8
	c4.5,1.8,8.3,5.5,9.4,10.8c0.8,4.1,1.3,8.2,1.9,12.3l0,0C191.1,332.1,190.7,332.1,190.2,332.1z"/>
<path class="st23" d="M557.1,407.8c0.2,0,0.4,0,0.6,0.1c0.1,0.5,0.1,1,0.2,1.5c0,9,0,18,0,27c0,14.7,0.1,29.4-0.1,44.1
	c0,3.1-1,6.3-1.7,9.3c-0.1,0.6-1.3,0.9-1.9,1.4c0.7-1.9,1.4-3.8,2.1-5.6c0.3-2,0.7-3.9,0.7-5.8C557,455.7,557,431.8,557.1,407.8
	L557.1,407.8z"/>
<path class="st21" d="M391.2,446.7c0.5-0.9,1-1.7,1.5-2.6c0.7,3,3.1,2,4.9,2c23.1,0.1,46.2,0,69.2,0c3.3,0,6.6,0.4,10,0.6
	c-2.9,0-5.7,0.1-8.6,0.1c-25.2,0-50.5,0.1-75.7,0.1C392,446.9,391.6,446.8,391.2,446.7L391.2,446.7z"/>
<path class="st19" d="M128.1,431.1c0.2-0.9,0.4-1.7,0.7-2.6c0.1-9.1,0.3-18.2,0.4-27.3c0-13.1,0.1-26.2,0-39.2
	c0-1.1-0.4-2.1-0.7-3.2c-0.5-1.3-1-2.7-1.5-4c3.1,0.8,2.9,3.3,2.9,5.7c0,18.7,0,37.4,0.1,56.1c0,2.6,0.1,5.2,0.1,7.9
	c0,1.4-0.1,2.9,0.2,4.3C130.9,430.8,129.8,431.2,128.1,431.1L128.1,431.1z"/>
<path class="st24" d="M392.4,447c25.2,0,50.5-0.1,75.7-0.1c2.9,0,5.7-0.1,8.6-0.1c0,0.4,0,0.7,0,1c-12-0.1-24-0.2-36-0.2
	c-15,0-30,0.1-45,0.1C394.6,447.5,393.5,447.2,392.4,447L392.4,447z"/>
<path class="st22" d="M427.1,171.5c-1,5.6-5.2,9.2-8.5,13.2c-2.5,3-5.1,6-7.8,8.8c-1.4,1.4-3.3,2.4-4.9,3.5
	C412.9,188.5,420,180,427.1,171.5L427.1,171.5z"/>
<path class="st16" d="M444.4,342.6c1.1,0.6,2.2,1.1,2.8,1.4c1.2-1,2.4-1.9,3.6-2.9c-3.4,6-6.7,12-10.1,18c-2.4-4.3-2.1-4,2-7.9
	c1.5-1.4,1.2-4.7,1.7-7.1C444.4,343.6,444.4,343.1,444.4,342.6L444.4,342.6z"/>
<path class="st18" d="M597.9,308.5c5.8,1.5,11,3.8,14.3,9.2c-1.8,0.2-3.5,0.3-5.3,0.6c-2.6,0.5-4.6,0-5.6-2.7
	c1.8,0.2,3.7,0.4,6.2,0.7c-1.6-3.7-4.7-4.4-7.7-5.3c-1.2-0.5-2.3-1.3-3.5-1.4c-3.1-0.2-6.2-0.1-9.2-0.1
	C590.7,309.2,594.3,308.9,597.9,308.5L597.9,308.5z"/>
<path class="st24" d="M509,413.2c0.2,1.2,0.7,2.3,0.7,3.5c0.1,20.7,0,41.5,0.1,62.2c0,3.3,0.8,6.6,1.3,9.9c-0.6-1.2-1.3-2.4-1.9-3.6
	C509.1,461.2,509.1,437.2,509,413.2L509,413.2z"/>
<path class="st6" d="M435.4,596.2c1.2-0.9,2.3-2.2,3.7-2.8c7.9-2.9,15.8-5.6,23.8-8.3c1.6-0.5,3.3-0.6,5-0.9
	C457,588.2,446.2,592.2,435.4,596.2z"/>
<path class="st23" d="M509,413.2c0.1,24,0.1,48,0.2,72c-0.3-1.8-0.9-3.6-0.9-5.4c-0.1-22.2-0.1-44.4-0.2-66.6
	C508.4,413.2,508.7,413.2,509,413.2z"/>
<path class="st13" d="M587,309.6c3.1,0,6.2-0.1,9.2,0.1c1.2,0.1,2.3,0.9,3.5,1.4c-1.9-0.1-3.9-0.4-5.8-0.1c-1.6,0.2-3.2,1.1-4.7,1.8
	c-2.3,0.5-4.6,1-6.9,1.5c0,0.4-0.1,0.7-0.1,1.1c0.8,0.6,1.7,1.2,2.5,1.8c0,0.5,0,1.1,0,1.6c-3.6,0.7-5.3-1.6-6.7-4.3l0-0.2l0.2-0.1
	c0.7-0.5,1.4-0.9,2.1-1.4c0.1-0.2,0.2-0.3,0.4-0.2c0.3-0.2,0.7-0.4,1-0.6l0.1-0.1c1.5-0.7,3-1.4,4.5-2.1
	C586.5,309.7,586.8,309.6,587,309.6L587,309.6z"/>
<path class="st20" d="M290.3,499.4c2.1,0.3,4.1,0.8,6.2,0.8c17.4,0,34.7,0,52.1,0c1,0,2,0.1,3.9,0.2c-0.7,1.7-1.3,3-1.9,4.3
	c0-0.4,0-0.8,0-1.3c0.3-0.7,0.6-1.4,1-2.5c-1.7,0-3,0-4.2,0c-17.9,0-35.9,0-53.8,0c-1.4,0-2.8-0.5-4.1-0.7L290.3,499.4L290.3,499.4z
	"/>
<path class="st19" d="M289.5,500.1c1.4,0.3,2.8,0.7,4.1,0.7c17.9,0,35.9,0,53.8,0c1.2,0,2.5,0,4.2,0c-0.4,1.1-0.7,1.8-1,2.5
	c-2.4-0.6-4.8-1.6-7.2-1.7c-16.7-0.1-33.4,0-50-0.1c-1.7,0-3.3-0.1-5-0.9C288.7,500.5,289.1,500.3,289.5,500.1z"/>
<path class="st7" d="M218.3,521c-1.6,0.3-3.3,0.5-4.9,0.8l-0.1-0.1l0.1,0.2c-0.2,1.2-0.5,2.5-0.8,3.8c-2.6-3.3-5.1-6.5-7.7-9.8
	c0.1-0.1,0.3-0.3,0.4-0.4C209.7,517.3,214,519.2,218.3,521L218.3,521z"/>
<path class="st16" d="M451.3,340.6c-0.4-2.3-3.7-4.2-0.6-7c0.4,0.9,0.7,1.7,1.1,2.5c0.5-2.6,1.4-4.4,4.4-4
	C454.5,334.9,452.9,337.8,451.3,340.6L451.3,340.6z"/>
<path class="st16" d="M458.7,327.4c0-0.4-0.1-0.9-0.1-1.3c1.3-2.5,2.6-5,3.9-7.5c0.2-0.5,0.5-1,0.7-1.5c1-1,2.1-2,3.1-3
	C463.7,318.6,461.2,323,458.7,327.4L458.7,327.4z"/>
<path class="st19" d="M123.9,351.5c-4.2-2.2-8.7-1.7-13.1-0.9c0.2-3.2,2.8-1.6,4.3-2.2c2.1,0.1,4.2,0,6.1,0.5
	C122.2,349.2,123,350.6,123.9,351.5L123.9,351.5z"/>
<path class="st22" d="M431.5,166.1v6.3c-0.3,0-0.6,0.1-0.8,0.1c-0.4-0.7-0.8-1.3-1.1-1.8c-0.9,0.2-1.7,0.4-2.5,0.7
	C428.5,169.6,430,167.9,431.5,166.1L431.5,166.1z"/>
<path class="st10" d="M192,314.7c-1.2,0.1-1.5,0.2-1.6,0.1c-1-1.4-2-2.8-3-4.2c0.5-0.2,1.4-0.8,1.4-0.7
	C189.9,311.3,190.8,312.9,192,314.7L192,314.7z"/>
<path class="st7" d="M216.3,530.2c3,0.7,4.9,2.4,5.2,5.6C219.8,533.9,218.1,532,216.3,530.2z"/>
<path class="st8" d="M446.7,181.4c-0.2-3.2,0.2-6.2,3-8.3C448.7,175.9,447.7,178.6,446.7,181.4z"/>
<path class="st18" d="M586.2,309.7c-1.5,0.7-3,1.4-4.5,2.1c0.4-0.4,0.9-0.8,1.3-1.2C584.1,310.3,585.2,310,586.2,309.7L586.2,309.7z
	"/>
<path class="st22" d="M434.7,162.7c0.5,2.6-1.2,3.2-3.3,3.5C432.5,165,433.6,163.8,434.7,162.7z"/>
<path class="st3" d="M403.2,420.6c0.8-0.2,1.7-0.4,2.5-0.6c-0.8,1.5-1.6,3.1-2.4,4.6C403.2,423.3,403.2,422,403.2,420.6L403.2,420.6
	L403.2,420.6z"/>
<path class="st8" d="M455.6,136.9c0.1,0.8,0.1,1.5,0.2,2.3c-0.5-0.2-1.1-0.4-1.6-0.6C454.7,138.1,455.2,137.5,455.6,136.9
	L455.6,136.9z"/>
<path class="st5" d="M225.4,278.1c0.8,0.5,1.5,1,2.2,1.5l0,0c-1,0-2,0-3,0c0-0.5,0-1,0-1.4C224.9,278.1,225.2,278.1,225.4,278.1
	L225.4,278.1z"/>
<path class="st16" d="M406.4,286.5c0.4-1,0.8-2.1,1.2-3.1C407.2,284.4,406.8,285.4,406.4,286.5z"/>
<path class="st7" d="M213.9,527.3c0.6,0.7,1.1,1.3,1.7,2C215.1,528.6,214.5,527.9,213.9,527.3z"/>
<path class="st8" d="M461.4,143c-0.2-0.3-0.4-0.6-0.6-0.9c0.3,0.1,0.6,0.1,0.9,0.2C461.6,142.5,461.5,142.8,461.4,143z"/>
<path class="st7" d="M212.6,525.6c0.5,0.5,0.9,1.1,1.4,1.7C213.5,526.7,213.1,526.2,212.6,525.6z"/>
<path class="st21" d="M438.3,364.2c0.3-0.4,0.5-0.9,0.8-1.3C438.8,363.4,438.6,363.8,438.3,364.2z"/>
<path class="st7" d="M549.3,516C549.5,516.2,549.7,516.4,549.3,516C549.5,516.5,549.4,516.2,549.3,516L549.3,516z"/>
<path class="st3" d="M469.2,297.6c0,0.2,0,0.5,0,0.8c-0.4,0.5-0.8,1-1.3,1.5c0.4,0.3,0.8,0.5,1.3,0.8c0.6,0.7,1.2,1.4,1.8,2
	c-0.6,0.3-1.2,0.6-1.8,1l0,0c0-0.3,0-0.5,0-0.8c-2.7-0.3-5.5-0.6-8.2-1c-1.3-0.2-2.6-0.4-3.9-0.6c4.2-2.2,8.5-4.5,12.7-6.8
	c1.9,0.5,4.2,0.7,2.4,3.6c-0.1,0.1-1-0.3-1.5-0.5c-0.3-0.3-0.6-0.6-0.9-0.9C469.6,297,469.4,297.3,469.2,297.6L469.2,297.6z"/>
<path class="st11" d="M356.7,477.7c-1,0.2-2,0.5-3,0.7c-2.3-0.5-4.6-0.9-7.3-1.5c1.6-3.6,4.4-2.8,6.8-3
	C355.8,473.7,356.2,475.7,356.7,477.7z"/>
<path class="st25" d="M376.1,475.3c1.2-0.7,2.3-1.7,3.6-2.1c1.2-0.4,2.7,0,4,0C381.2,473.9,378.7,474.6,376.1,475.3L376.1,475.3z"/>
<path class="st25" d="M385.2,473.2c2-0.5,4.1-1,6.1-1.5C389.2,472.2,387.2,472.7,385.2,473.2z"/>
<path class="st25" d="M403.9,470.1c1.2-0.2,2.5-0.5,3.8-0.7C406.4,469.6,405.2,469.9,403.9,470.1z"/>
<path class="st25" d="M395.7,471.6c1.2-0.2,2.5-0.5,3.8-0.8C398.2,471.1,396.9,471.4,395.7,471.6z"/>
<path class="st25" d="M413.7,468.5c1-0.5,2-0.9,3-1.4C415.7,467.6,414.7,468.1,413.7,468.5z"/>
<path class="st25" d="M371.7,476c0.8-0.2,1.5-0.4,2.2-0.7C373.2,475.6,372.4,475.8,371.7,476z"/>
<path class="st25" d="M420.4,467c0.8-0.4,1.6-0.9,2.4-1.3C422,466.1,421.2,466.6,420.4,467z"/>
<path class="st26" d="M551.8,291.5c1.5,1.5,3,2.9,4.5,4.4l0,0.1c0,8.1-0.1,16.2-0.1,24.3c0,26.7-0.1,53.4-0.1,80
	c-10.9-0.8-21.8-1.5-32.7-2.4c-0.6,0-1.2-0.4-1.7-0.6c2.4-1,4.5-1.8,7.4-1.1c3.3,0.8,6.8,0.2,10.3,0.2c0.1-0.7,0.1-1.4,0.1-2
	c-1.6-0.3-3.3-0.8-4.9-0.8c-9.5-0.3-18.8-1.6-27.7-5.1c-1-0.4-2.3-1.8-2.3-2.7c0.1-3.1-0.1-5.8-3.7-6.9c2.7-0.2,5.4-0.4,8.1-0.6
	c0-0.3,0.1-0.7,0.1-1c-1.8-1-3.6-2-5.5-3c2-0.5,4-1.1,6-1.6c0-1.4,0.1-2.7,0.1-4.1c0-21.1,0-42.2,0.1-63.4c2.1-2.8,3.7-6.7,6.4-8
	c4.5-2,5.2-6.4,8-9.3c0.7-0.7,1.2-1.6,1.6-2.5c2.1-5.4,6.4-7.3,11.8-5.4c1.8,0.6,3.7,0.9,6.3,1.6c-1.6,0.7-2.5,1.2-3.5,1.6
	c2.9,10.1,6.2,12.6,11.2,8.5L551.8,291.5L551.8,291.5z"/>
<path class="st11" d="M503.7,374.2c1.8,1,3.6,2,5.5,3c0,0.3-0.1,0.7-0.1,1c-2.7,0.2-5.4,0.4-8.1,0.6c3.6,1.2,3.8,3.8,3.7,6.9
	c0,0.9,1.3,2.3,2.3,2.7c8.9,3.5,18.2,4.8,27.7,5.1c1.6,0,3.3,0.5,4.9,0.8c-0.1,0.7-0.1,1.4-0.1,2c-3.5,0-7.1,0.6-10.3-0.2
	c-2.9-0.7-5,0.1-7.4,1.1c-2,0-4-0.1-6-0.1c-1.2-0.7-2.3-1.8-3.6-2.1c-3.4-0.7-6.8-1.3-10.2-1.3c-3.9-0.1-7.9,0.5-11.8,0.7
	c-2.6,0.2-5.2,0.5-7.8,0.3c-3.5-0.2-7.1-1.1-10.6-1.2c-9.2-0.2-18.5-0.1-27.7,0c-2.5,0-5.1,0.6-7.6,1.2c-3,0.7-4.3-0.3-4.3-3.5
	c0-1-0.3-2.4-1-3c-2.3-1.9-1.7-3.8-0.1-5.5c1.9-2,4.1-3.7,6.2-5.5c0.2,0.2,0.5,0.4,0.8,0.6l-0.2-3.7
	C459.7,374.3,481.7,374.3,503.7,374.2L503.7,374.2z"/>
<path class="st26" d="M437.7,374.3c0.1,1.2,0.2,2.5,0.2,3.7c-0.2-0.2-0.5-0.4-0.8-0.6c-2.1,1.8-4.3,3.5-6.2,5.5
	c-1.6,1.7-2.2,3.6,0.1,5.5c0.7,0.6,0.9,1.9,1,3c0.1,3.3,1.3,4.2,4.3,3.5c2.5-0.6,5.1-1.1,7.6-1.2c9.2-0.1,18.5-0.2,27.7,0
	c3.5,0.1,7.1,1,10.6,1.2c2.6,0.2,5.2-0.1,7.8-0.3c3.9-0.2,7.9-0.8,11.8-0.7c3.4,0.1,6.9,0.6,10.2,1.3c1.3,0.3,2.4,1.4,3.6,2.1
	c-29.6-0.2-59.2-0.5-88.8-0.7c-1.4,0-2.8-0.2-4-0.8c-0.7-0.4-1.7-2-1.5-2.4c3.8-6.5,7.8-12.9,11.8-19.3
	C434.7,374.1,436.2,374.2,437.7,374.3L437.7,374.3z"/>
<path class="st24" d="M556.1,400.4c0-26.7,0-53.4,0.1-80.1c0-8.1,0.1-16.2,0.1-24.3c0.2,2.1,0.7,4.1,0.7,6.2
	c0,34.1,0,68.2-0.1,102.3c0,1.1,0.1,2.2,0.1,3.4c0,23.9,0,47.9-0.1,71.8c0,2-0.5,3.9-0.7,5.8C556.2,457.1,556.1,428.7,556.1,400.4
	L556.1,400.4z"/>
<path class="st22" d="M437.7,374.3c-1.5-0.1-3-0.1-4.5-0.2c0.1-0.3,0.2-0.5,0.3-0.8c23.6,0,47.2,0,70.8,0c1.5,0,3.1-0.5,4.7-0.7
	c0.2,0,0.5,0,0.7,0c-2,0.5-4,1.1-6,1.6C481.7,374.2,459.7,374.2,437.7,374.3L437.7,374.3z"/>
<path class="st3" d="M469.2,303.6c-0.5,1.5-1,3-1.5,4.5c-0.5,1-1,2-1.5,3l0,0c-3.8,0.8-3.6,5-6,7c-0.9,0.8-2,1.3-3,2l0,0
	c-0.6-2.6-1.1-5.3-1.8-8.4c1.9,0.9,3.6,2.1,3.9,1.8c1.2-1.1,2-2.8,3.1-4.5c-1.2-0.2-1.5-0.4-1.7-0.3c-1.4,0.2-2.7,0.6-4,0.7
	c-0.1,0-0.6-1.4-0.5-1.5c1.2-0.8,2.5-1.5,3.8-2c2.8-0.9,5.7-1.6,8.5-2.4C468.7,303.6,468.9,303.6,469.2,303.6L469.2,303.6
	L469.2,303.6z"/>
<path class="st3" d="M403.2,420.6c-1.4-1.1-2.8-2.2-4.6-3.7c2-0.8,3.3-1.4,5-2.1C403.4,417,403.3,418.8,403.2,420.6L403.2,420.6
	L403.2,420.6z"/>
<path class="st3" d="M463.1,317.1c-0.2,0.5-0.5,1-0.7,1.5C462.7,318.1,462.9,317.6,463.1,317.1z"/>
<path class="st16" d="M469.2,303.6c-0.2,0-0.5,0-0.8,0c0.2-0.2,0.5-0.5,0.8-0.8C469.2,303.1,469.2,303.3,469.2,303.6z"/>
<path class="st25" d="M145.2,410.2c0-26,0-52-0.1-78.1c3.7,1.2,4.2-2.9,6.4-4.5c0.9,1.7,1.6,3.1,2.2,4.4c0.9-3.7-2.1-8.1,3.7-9.9
	c-0.5-1.2-0.8-2.1-1.4-3.6c3.8,0,7.3,0,10.8,0c2.9,2,9,0.8,10.3-1.5c-1.6-0.5-3.3-1-5.1-1.6c4.4-3.7,9.7-2.3,13.1,3.6
	c1.8,3.2,2.5,6.5,1.2,10.3c-0.6,1.9,0.7,4.5,0.7,6.7c0.1,9.2,0.1,18.4,0.1,27.6c0,1-0.1,2,0.1,3c0.2,0.8,0.8,1.4,1.3,2.1
	c0,2.2,0,4.5,0,6.7c0,0.8,0,1.5,0,2.3c0,5.5,0,11,0,16.5c-4.5,1.6-9.1,3.2-13.6,4.8C165,402.8,155.1,406.5,145.2,410.2L145.2,410.2z
	"/>
<path class="st24" d="M188.5,394.4c0-5.5,0-11,0-16.5c0-0.8,0-1.5,0-2.3c0-2.2,0-4.5,0-6.7c0-12.9,0.1-25.7,0.1-38.5
	c0-1.5,0.3-2.9,0.5-4.4c0.1,4.7,0.2,9.5,0.2,14.2c0,36.9,0,73.8-0.1,110.6c0,2.1-0.4,4.1-0.7,6.2
	C188.6,436.2,188.5,415.3,188.5,394.4L188.5,394.4z"/>
<path class="st1" d="M395.7,224.1c-0.3-0.2-0.7-0.4-1-0.6c0.1-0.1,0.3-0.3,0.4-0.4C395.3,223.4,395.5,223.7,395.7,224.1L395.7,224.1
	L395.7,224.1z"/>
<path class="st27" d="M584.7,318.6c0-0.5,0-1.1,0-1.6c1.7-1,3.2-2.6,5-2.9c3.3-0.5,6.7-0.1,10-0.1l0.1,0.1c0.5,0.5,0.9,0.9,1.4,1.4
	l0.1,0.1c1,2.6,3,3.2,5.6,2.7c1.7-0.3,3.5-0.4,5.3-0.6c0,0,0,0.1,0,0.1c1.3,3.3,2.7,6.6,4,9.8c0,10.5,0.1,20.9,0.1,31.4
	c0,17.6-0.1,35.1-0.2,52.7c-1.4,0.1-2.7,0-4.1,0.2c-13.1,1.7-26.2,2.4-39.3-1c0-20.2-0.3-40.4,0-60.6c0.1-6.8-2.7-14.3,2.8-20.5
	c1-1.1,1.8-2.3,2.9-3.4c0.9-1,2.5-1.5,3-2.6c1.3-3,3.3-4.4,6.7-4.3c0.7,0,1.3-1,2-1.5c-0.2-0.4-0.4-0.7-0.6-1.1
	C588,317.5,586.3,318.1,584.7,318.6L584.7,318.6z"/>
<path class="st3" d="M572.8,410.9c13,3.4,26.1,2.7,39.3,1c1.3-0.2,2.7-0.1,4.1-0.2c0.1,13.8,0.2,27.7,0.4,41.5
	c0.1,9.6-9.7,19.4-18.8,20.3c-9.8,1-17.8-1.7-23.6-9.5c-1.5-2.1-1.5-5.3-2.2-8.1c2.6-2.2,0.7-4.8,0.7-7.2
	C572.8,436.1,572.8,423.5,572.8,410.9L572.8,410.9z"/>
<path class="st16" d="M631.3,401.4c7.7-0.1,15.3-0.2,23-0.2c2.7,0,2.4,2,2.4,3.7c0.1,8.1,0.1,16.2,0.1,24.3c-1.9,6-6.7,8.1-12.3,8.5
	c-5.4,0.4-10.2-1.1-12.7-6.5C629.3,421.3,631.2,411.3,631.3,401.4L631.3,401.4z"/>
<path class="st18" d="M572.8,410.9c0,12.6,0,25.2-0.1,37.8c0,2.4,1.9,5-0.7,7.2c-0.3-1.3-0.5-2.6-0.8-3.9c0.1-21,0.2-42,0.2-63
	c0-19.5,0-39-0.1-58.5c0-6.4,2.1-11.8,6.6-16.4c1.5,2.7,3.1,5,6.7,4.3c1.6-0.5,3.3-1.1,4.9-1.7c0.2,0.4,0.4,0.7,0.6,1.1
	c-0.7,0.5-1.4,1.5-2,1.5c-3.3-0.1-5.3,1.3-6.7,4.3c-0.5,1.1-2.1,1.7-3,2.6c-1,1-1.9,2.3-2.9,3.4c-5.5,6.2-2.7,13.6-2.8,20.5
	C572.5,370.6,572.8,390.8,572.8,410.9L572.8,410.9z"/>
<path class="st28" d="M631.3,401.4c0,9.9-2,19.9,0.5,29.8c-2.8-0.6-2-2.9-2-4.5c-0.1-19.9,0-39.9,0-59.8c0-2-0.2-4,0.1-6
	c0.1-1.1,0.8-2.1,1.3-3.2C631.2,372.2,631.3,386.8,631.3,401.4L631.3,401.4z"/>
<path class="st18" d="M616.2,327.6c-1.3-3.3-2.7-6.6-4-9.8C613.5,321.1,614.9,324.3,616.2,327.6z"/>
<path class="st28" d="M635.5,351.5c-1.4,1.8-2.8,3.6-4.2,5.4C630.9,353.7,632.2,351.9,635.5,351.5z"/>
<path class="st29" d="M652.9,346.8h-2.8c0-0.3-0.1-0.5-0.1-0.8c0.9-0.1,1.9-0.2,2.9-0.3L652.9,346.8L652.9,346.8z"/>
<path class="st29" d="M656,434.4h1.3c0,0.3,0,0.9,0,0.9c-0.4,0.1-0.9,0-1.3,0C656,435,656,434.7,656,434.4L656,434.4z"/>
<path class="st28" d="M638.1,350.2c-0.8,0.4-1.6,0.8-2.4,1.2C636.5,351,637.3,350.6,638.1,350.2z"/>
<path class="st29" d="M627.8,430.4c-0.1,0.1-0.1,0.1-0.2,0.2c-0.1-0.1-0.2-0.3-0.2-0.4c0.1,0,0.2-0.1,0.3-0.1
	C627.7,430.1,627.7,430.3,627.8,430.4z"/>
<path class="st29" d="M605.7,474.6c0.2-0.3,0.4-0.6,0.6-1c0.1,0.1,0.3,0.3,0.4,0.4C606.4,474.2,606.1,474.4,605.7,474.6L605.7,474.6
	L605.7,474.6z"/>
<path class="st29" d="M629.3,355.4c-0.1,0.1-0.1,0.1-0.2,0.2c-0.1-0.1-0.2-0.3-0.2-0.4c0.1,0,0.2-0.1,0.3-0.1
	C629.2,355.1,629.2,355.3,629.3,355.4z"/>
<path class="st29" d="M626,433.6l-0.2-0.2c0.1-0.1,0.3-0.2,0.4-0.2c0,0.1,0.1,0.2,0.1,0.3C626.2,433.6,626.1,433.6,626,433.6
	L626,433.6z"/>
<path class="st29" d="M618.4,322.1c0.1,0,0.2,0.1,0.3,0.1c0,0.1,0,0.2,0,0.3c-0.2-0.1-0.3-0.1-0.4-0.2
	C618.3,322.2,618.3,322.2,618.4,322.1z"/>
<path class="st29" d="M620.1,325.1c0,0.1,0.1,0.2,0.1,0.3c0,0.1-0.2,0.1-0.2,0.2c-0.1-0.1-0.1-0.3-0.2-0.5L620.1,325.1L620.1,325.1z
	"/>
<path class="st29" d="M190.2,332.1c0.5,0,0.9,0,1.4,0c0.2,10.4,0.5,20.7,0.8,31c0.1,1.6,0.6,3.2,0.8,4.8c0.8,4.5,1.5,8.8-1,13.1
	c-0.6,1.1-0.6,2.6-0.6,4c-0.1,9,0,18.1-0.1,27.1c0,1.3-0.9,2.6-1.3,4C190.2,388.1,190.2,360.1,190.2,332.1z"/>
<path class="st29" d="M205,296.2l-0.2,0h-0.2c-0.3,0-0.6,0-0.9,0c0.5-0.5,0.9-1,1.4-1.5C205,295.1,205,295.6,205,296.2L205,296.2z"
	/>
<path class="st19" d="M125.1,352.5c-0.2-0.2-0.4-0.4-0.6-0.5C124.7,352.2,124.9,352.4,125.1,352.5z"/>
<path class="st18" d="M580.2,312.7c-0.7,0.5-1.4,0.9-2.1,1.4C578.9,313.6,579.6,313.2,580.2,312.7z"/>
<path class="st18" d="M581.7,311.9c-0.3,0.2-0.7,0.4-1,0.6C581,312.3,581.3,312.1,581.7,311.9z"/>
<path class="st24" d="M128.6,358.7c0.2,1.1,0.7,2.1,0.7,3.2c0,13.1,0,26.2,0,39.2c-0.2,0-0.3,0-0.5,0l-0.3-0.1
	C128.5,387,128.5,372.8,128.6,358.7L128.6,358.7z"/>
<path class="st1" d="M346.2,414.6c-0.6-1.6-1.2-3.2-1.7-4.8l1.7-0.3C346.2,411.2,346.2,412.9,346.2,414.6L346.2,414.6L346.2,414.6z"
	/>
<path class="st20" d="M128.7,401.2c0.2,0,0.3,0,0.5,0c-0.2,9.1-0.3,18.2-0.5,27.3C128.8,419.4,128.7,410.3,128.7,401.2z"/>
<path class="st5" d="M172.1,315.6c1.7,0.5,3.5,1.1,5.1,1.6c-1.3,2.3-7.4,3.5-10.3,1.5c-1.4-0.5-2.8-1-4.2-1.5
	c-1.4-0.5-2.9-1-4.3-1.5c0.1-0.5,0.2-1,0.3-1.5h9C167.7,318.8,170.2,316.3,172.1,315.6L172.1,315.6z"/>
<path class="st25" d="M167.6,314.1c-1.9-0.8-3.8-1.5-5.9-2.4c3.6-4.7,7.4,0.7,11-0.6c0.1,0.4,0.2,0.7,0.3,1.1
	C171.2,312.9,169.4,313.5,167.6,314.1L167.6,314.1z"/>
<path class="st5" d="M224.8,280.6c-1.7,0.8-3.3,1.5-5,2.3c-0.2-0.5-0.5-1-0.7-1.5c1.8-0.8,3.5-1.5,5.3-2.3
	C224.5,279.6,224.7,280.1,224.8,280.6L224.8,280.6z"/>
<path class="st5" d="M227.6,279.6h5.2l-0.4,1.7C230.8,280.7,229.2,280.2,227.6,279.6L227.6,279.6L227.6,279.6z"/>
<path class="st24" d="M509.7,372.6c-0.2,0-0.5,0-0.7,0c0-24,0-48.1,0.1-72.1c0-1.2,0.1-2.5,0.2-3.7c0.2,2.8,0.4,5.6,0.6,8.4
	c0,21.1,0,42.2-0.1,63.4C509.8,369.8,509.7,371.2,509.7,372.6L509.7,372.6z"/>
<path class="st26" d="M551.7,291.6c-3.6,0-6.3-1.6-7.3-5.2c-0.2-0.8,0.4-1.8,0.7-2.7c0.8,0.4,1.9,0.5,2.3,1.1
	c1.6,2.1,2.9,4.4,4.4,6.6L551.7,291.6L551.7,291.6z"/>
<path class="st26" d="M522.6,281.9c0.4-0.1,0.8-0.3,1.1-0.4c0.1,0,0.2,0.3,0.3,0.5c-0.4,0.2-0.9,0.3-1.3,0.5
	C522.7,282.3,522.7,282.1,522.6,281.9L522.6,281.9z"/>
<path class="st2" d="M297.8,637.2c-0.2,0.5-0.3,1.1-0.5,1.7c-0.2-0.1-0.4-0.1-0.6-0.2c0.1-0.6,0.3-1.1,0.4-1.7
	C297.4,637.1,297.6,637.2,297.8,637.2L297.8,637.2z"/>
<path class="st2" d="M309.5,608.4c0.2,0.5,0.5,0.8,0.4,1c-0.1,0.2-0.5,0.3-0.7,0.5c-0.1-0.2-0.3-0.4-0.3-0.6
	C308.9,609,309.2,608.8,309.5,608.4L309.5,608.4z"/>
<path class="st4" d="M466.2,311.1c0.5-1,1-2,1.5-3C467.2,309.1,466.7,310.1,466.2,311.1z"/>
<path class="st4" d="M469.2,300.6c-0.4-0.3-0.8-0.5-1.3-0.8c0.4-0.5,0.8-1,1.3-1.5C469.2,299.1,469.2,299.8,469.2,300.6L469.2,300.6
	z"/>
<path class="st4" d="M469.2,297.6c0.2-0.3,0.4-0.6,0.6-0.9c0.3,0.3,0.6,0.6,0.9,0.9C470.2,297.6,469.7,297.6,469.2,297.6z"/>
<path class="st27" d="M589.2,312.6c1.6-0.6,3.1-1.5,4.7-1.8c1.9-0.3,3.9,0.1,5.8,0.1c3,0.9,6,1.6,7.7,5.3c-2.5-0.3-4.3-0.5-6.2-0.7
	l-0.1-0.1c-0.5-0.5-0.9-0.9-1.4-1.4c0,0-0.1-0.1-0.1-0.1c-1-0.5-2-1.2-3.1-1.3C594.1,312.5,591.7,312.7,589.2,312.6L589.2,312.6z"/>
<path class="st18" d="M589.2,312.6c2.5,0,4.9-0.1,7.3,0.1c1.1,0.1,2.1,0.9,3.1,1.3c-3.3,0-6.7-0.3-10,0.1c-1.8,0.2-3.3,1.9-5,2.9
	c-0.8-0.6-1.7-1.2-2.5-1.8c0-0.4,0.1-0.7,0.1-1.1C584.6,313.6,586.9,313.1,589.2,312.6L589.2,312.6z"/>
<polygon class="st6" points="213.3,521.9 213.2,521.7 213.4,521.9 "/>
<path class="st17" d="M188.5,375.6c0,0.8,0,1.5,0,2.3C188.5,377.1,188.5,376.4,188.5,375.6z"/>
<path class="st18" d="M599.8,314.2c0.5,0.5,0.9,0.9,1.4,1.4C600.7,315.1,600.3,314.6,599.8,314.2z"/>
</svg>
